Upgrade-Semibold_MA.ufo
<glyph name="exclam" format="2">
  <advance width="262"/>
  <unicode hex="0021"/>
  <outline>
    <contour>
      <point x="65" y="216" type="line"/>
      <point x="197" y="216" type="line"/>
      <point x="197" y="716" type="line"/>
      <point x="65" y="716" type="line"/>
    </contour>
    <contour>
      <point x="65" y="0" type="line"/>
      <point x="197" y="0" type="line"/>
      <point x="197" y="132" type="line"/>
      <point x="65" y="132" type="line"/>
    </contour>
  </outline>
</glyph>
<glyph name="numbersign" format="2">
  <advance width="626"/>
  <unicode hex="0023"/>
  <outline>
    <contour>
      <point x="111" y="-40" type="line"/>
      <point x="229" y="-40" type="line"/>
      <point x="309" y="526" type="line"/>
      <point x="191" y="526" type="line"/>
    </contour>
    <contour>
      <point x="317" y="-40" type="line"/>
      <point x="434" y="-40" type="line"/>
      <point x="514" y="526" type="line"/>
      <point x="397" y="526" type="line"/>
    </contour>
    <contour>
      <point x="72" y="300" type="line"/>
      <point x="570" y="300" type="line"/>
      <point x="570" y="418" type="line"/>
      <point x="72" y="418" type="line"/>
    </contour>
    <contour>
      <point x="56" y="69" type="line"/>
      <point x="554" y="69" type="line"/>
      <point x="554" y="187" type="line"/>
      <point x="56" y="187" type="line"/>
    </contour>
  </outline>
</glyph>
<glyph name="ampersand" format="2">
  <advance width="657"/>
  <unicode hex="0026"/>
  <outline>
    <contour>
      <point x="246" y="-16.0" type="curve" smooth="yes"/>
      <point x="355" y="-16"/>
      <point x="409" y="32"/>
      <point x="449" y="80" type="curve"/>
      <point x="477" y="125" type="line"/>
      <point x="535" y="185"/>
      <point x="559" y="293"/>
      <point x="559" y="410" type="curve"/>
      <point x="432" y="410" type="line"/>
      <point x="432" y="323"/>
      <point x="417" y="258"/>
      <point x="392" y="221" type="curve"/>
      <point x="366" y="181" type="line"/>
      <point x="343" y="136"/>
      <point x="309" y="108"/>
      <point x="264" y="108" type="curve" smooth="yes"/>
      <point x="211" y="108"/>
      <point x="176" y="142"/>
      <point x="176" y="192" type="curve" smooth="yes"/>
      <point x="176" y="248"/>
      <point x="203" y="272"/>
      <point x="270" y="303" type="curve"/>
      <point x="204" y="406" type="line"/>
      <point x="80" y="359"/>
      <point x="35" y="270"/>
      <point x="35" y="182" type="curve" smooth="yes"/>
      <point x="35" y="68"/>
      <point x="113" y="-16"/>
    </contour>
    <contour>
      <point x="464" y="0" type="line"/>
      <point x="652" y="0" type="line"/>
      <point x="344" y="348" type="line" smooth="yes"/>
      <point x="301.0" y="398.0"/>
      <point x="277" y="434"/>
      <point x="277" y="473" type="curve" smooth="yes"/>
      <point x="277.0" y="519.0"/>
      <point x="309.0" y="550.0"/>
      <point x="358" y="550" type="curve" smooth="yes"/>
      <point x="397" y="550"/>
      <point x="435.8655462184874" y="538.6764705882352"/>
      <point x="471" y="515" type="curve"/>
      <point x="471" y="648" type="line"/>
      <point x="429.63157894736844" y="665.0"/>
      <point x="385.30827067669173" y="674.0"/>
      <point x="340" y="674" type="curve" smooth="yes"/>
      <point x="213" y="674"/>
      <point x="136" y="598"/>
      <point x="136" y="486" type="curve" smooth="yes"/>
      <point x="136" y="417"/>
      <point x="157" y="350"/>
      <point x="210" y="289" type="curve" smooth="yes"/>
    </contour>
  </outline>
</glyph>
<glyph name="parenleft" format="2">
  <advance width="386"/>
  <unicode hex="0028"/>
  <outline>
    <contour>
      <point x="218" y="-210" type="curve"/>
      <point x="374" y="-210" type="line"/>
      <point x="254" y="-69"/>
      <point x="192" y="104"/>
      <point x="192" y="253" type="curve" smooth="yes"/>
      <point x="192" y="402"/>
      <point x="254" y="575"/>
      <point x="374" y="716" type="curve"/>
      <point x="218" y="716" type="line"/>
      <point x="111" y="590"/>
      <point x="56" y="416"/>
      <point x="56" y="253" type="curve" smooth="yes"/>
      <point x="56" y="90"/>
      <point x="111" y="-84"/>
    </contour>
  </outline>
</glyph>
<glyph name="parenright" format="2">
  <advance width="386"/>
  <unicode hex="0029"/>
  <outline>
    <contour>
      <point x="12" y="-210" type="curve"/>
      <point x="168" y="-210" type="line"/>
      <point x="275" y="-84"/>
      <point x="330" y="90"/>
      <point x="330" y="253" type="curve" smooth="yes"/>
      <point x="330" y="416"/>
      <point x="275" y="590"/>
      <point x="168" y="716" type="curve"/>
      <point x="12" y="716" type="line"/>
      <point x="132" y="575"/>
      <point x="194" y="402"/>
      <point x="194" y="253" type="curve" smooth="yes"/>
      <point x="194" y="104"/>
      <point x="132" y="-69"/>
    </contour>
  </outline>
</glyph>
<glyph name="asterisk" format="2">
  <advance width="612"/>
  <unicode hex="002A"/>
  <outline>
    <contour>
      <point x="226" y="-24" type="line"/>
      <point x="306" y="138" type="line"/>
      <point x="386" y="-24" type="line"/>
      <point x="517" y="72" type="line"/>
      <point x="387" y="198" type="line"/>
      <point x="567" y="222" type="line"/>
      <point x="515" y="377" type="line"/>
      <point x="357" y="292" type="line"/>
      <point x="388" y="470" type="line"/>
      <point x="224" y="470" type="line"/>
      <point x="255" y="292" type="line"/>
      <point x="97" y="377" type="line"/>
      <point x="45" y="222" type="line"/>
      <point x="225" y="198" type="line"/>
      <point x="95" y="72" type="line"/>
    </contour>
  </outline>
</glyph>
<glyph name="zero" format="2">
  <advance width="618"/>
  <unicode hex="0030"/>
  <outline>
    <contour>
      <point x="309" y="-16" type="curve" smooth="yes"/>
      <point x="484" y="-16"/>
      <point x="573" y="115"/>
      <point x="573" y="330" type="curve" smooth="yes"/>
      <point x="573" y="545"/>
      <point x="484" y="674"/>
      <point x="309" y="674" type="curve" smooth="yes"/>
      <point x="134" y="674"/>
      <point x="45" y="543"/>
      <point x="45" y="328" type="curve" smooth="yes"/>
      <point x="45" y="114"/>
      <point x="134" y="-16"/>
    </contour>
    <contour>
      <point x="309" y="116" type="curve" smooth="yes"/>
      <point x="228" y="116"/>
      <point x="187" y="189"/>
      <point x="187" y="330" type="curve" smooth="yes"/>
      <point x="187" y="470"/>
      <point x="228" y="542"/>
      <point x="309" y="542" type="curve" smooth="yes"/>
      <point x="390" y="542"/>
      <point x="431" y="469"/>
      <point x="431" y="328" type="curve" smooth="yes"/>
      <point x="431" y="188"/>
      <point x="390" y="116"/>
    </contour>
  </outline>
</glyph>
<glyph name="two" format="2">
  <advance width="526"/>
  <unicode hex="0032"/>
  <outline>
    <contour>
      <point x="50" y="0" type="line"/>
      <point x="475" y="0" type="line"/>
      <point x="475" y="140" type="line"/>
      <point x="100" y="140" type="line"/>
      <point x="99" y="95" type="line"/>
      <point x="237" y="160" type="line" smooth="yes"/>
      <point x="344" y="210"/>
      <point x="476" y="305"/>
      <point x="476" y="457" type="curve" smooth="yes"/>
      <point x="476" y="595"/>
      <point x="392" y="672"/>
      <point x="236" y="672" type="curve" smooth="yes"/>
      <point x="173" y="672"/>
      <point x="118" y="656"/>
      <point x="65" y="625" type="curve"/>
      <point x="65" y="482" type="line"/>
      <point x="116" y="522"/>
      <point x="167" y="540"/>
      <point x="234" y="540" type="curve" smooth="yes"/>
      <point x="294" y="540"/>
      <point x="339" y="510"/>
      <point x="339" y="439" type="curve" smooth="yes"/>
      <point x="339" y="353"/>
      <point x="241" y="266"/>
      <point x="104" y="210" type="curve" smooth="yes"/>
      <point x="50" y="188" type="line"/>
    </contour>
  </outline>
</glyph>
<glyph name="three" format="2">
  <advance width="523"/>
  <unicode hex="0033"/>
  <outline>
    <contour>
      <point x="256" y="-14" type="curve" smooth="yes"/>
      <point x="389" y="-14"/>
      <point x="473" y="59"/>
      <point x="473" y="173" type="curve" smooth="yes"/>
      <point x="473" y="259"/>
      <point x="413" y="322"/>
      <point x="319" y="336" type="curve"/>
      <point x="319" y="330" type="line"/>
      <point x="414" y="348"/>
      <point x="461" y="413"/>
      <point x="461" y="501" type="curve" smooth="yes"/>
      <point x="461" y="605"/>
      <point x="383" y="672"/>
      <point x="226" y="672" type="curve" smooth="yes"/>
      <point x="174" y="672"/>
      <point x="111" y="656"/>
      <point x="65" y="632" type="curve"/>
      <point x="65" y="494" type="line"/>
      <point x="110" y="522"/>
      <point x="173" y="540"/>
      <point x="226" y="540" type="curve" smooth="yes"/>
      <point x="283" y="540"/>
      <point x="320" y="518"/>
      <point x="320" y="473" type="curve" smooth="yes"/>
      <point x="320" y="421"/>
      <point x="273" y="395"/>
      <point x="200" y="395" type="curve" smooth="yes"/>
      <point x="160" y="395" type="line"/>
      <point x="160" y="263" type="line"/>
      <point x="208" y="263" type="line" smooth="yes"/>
      <point x="284" y="263"/>
      <point x="332" y="238"/>
      <point x="332" y="188" type="curve" smooth="yes"/>
      <point x="332" y="141"/>
      <point x="295" y="118"/>
      <point x="237" y="118" type="curve" smooth="yes"/>
      <point x="175" y="118"/>
      <point x="103" y="138"/>
      <point x="50" y="170" type="curve"/>
      <point x="50" y="29" type="line"/>
      <point x="112" y="3"/>
      <point x="192" y="-14"/>
    </contour>
  </outline>
</glyph>
<glyph name="five" format="2">
  <advance width="536"/>
  <unicode hex="0035"/>
  <outline>
    <contour>
      <point x="241" y="-12" type="curve" smooth="yes"/>
      <point x="388" y="-12"/>
      <point x="486" y="73"/>
      <point x="486" y="206" type="curve" smooth="yes"/>
      <point x="486" y="334"/>
      <point x="395" y="415"/>
      <point x="250" y="413" type="curve" smooth="yes"/>
      <point x="234" y="413"/>
      <point x="209" y="411"/>
      <point x="193" y="408" type="curve"/>
      <point x="200" y="398" type="line"/>
      <point x="208" y="526" type="line"/>
      <point x="465" y="526" type="line"/>
      <point x="465" y="658" type="line"/>
      <point x="75" y="658" type="line"/>
      <point x="51" y="261" type="line"/>
      <point x="108" y="275"/>
      <point x="161" y="281"/>
      <point x="216" y="281" type="curve" smooth="yes"/>
      <point x="293" y="281"/>
      <point x="343" y="255"/>
      <point x="343" y="200" type="curve" smooth="yes"/>
      <point x="343" y="146"/>
      <point x="299" y="119"/>
      <point x="230" y="119" type="curve" smooth="yes"/>
      <point x="167" y="119"/>
      <point x="106" y="135"/>
      <point x="50" y="166" type="curve"/>
      <point x="50" y="28" type="line"/>
      <point x="107" y="1"/>
      <point x="166" y="-12"/>
    </contour>
  </outline>
</glyph>
<glyph name="six" format="2">
  <advance width="578"/>
  <unicode hex="0036"/>
  <outline>
    <contour>
      <point x="288" y="-12" type="curve" smooth="yes"/>
      <point x="433" y="-12"/>
      <point x="533" y="75"/>
      <point x="533" y="225" type="curve" smooth="yes"/>
      <point x="533" y="358"/>
      <point x="454" y="445"/>
      <point x="323" y="445" type="curve" smooth="yes"/>
      <point x="235" y="445"/>
      <point x="166" y="397"/>
      <point x="157" y="279" type="curve"/>
      <point x="186" y="333" type="line"/>
      <point x="186" y="487"/>
      <point x="272" y="542"/>
      <point x="352" y="542" type="curve" smooth="yes"/>
      <point x="398" y="542"/>
      <point x="444" y="531"/>
      <point x="488" y="511" type="curve"/>
      <point x="488" y="648" type="line"/>
      <point x="438" y="665"/>
      <point x="389" y="672"/>
      <point x="339" y="672" type="curve" smooth="yes"/>
      <point x="176" y="672"/>
      <point x="45" y="532"/>
      <point x="45" y="306" type="curve" smooth="yes"/>
      <point x="45" y="96"/>
      <point x="143" y="-12"/>
    </contour>
    <contour>
      <point x="289" y="112" type="curve" smooth="yes"/>
      <point x="227" y="112"/>
      <point x="192" y="160"/>
      <point x="190" y="239" type="curve"/>
      <point x="206" y="291"/>
      <point x="235" y="323"/>
      <point x="293" y="323" type="curve" smooth="yes"/>
      <point x="353" y="323"/>
      <point x="393" y="282"/>
      <point x="393" y="218" type="curve" smooth="yes"/>
      <point x="393" y="153"/>
      <point x="351" y="112"/>
    </contour>
  </outline>
</glyph>
<glyph name="seven" format="2">
  <advance width="536"/>
  <unicode hex="0037"/>
  <outline>
    <contour>
      <point x="126" y="0" type="line" smooth="yes"/>
      <point x="278" y="0" type="line" smooth="yes"/>
      <point x="491" y="555" type="line" smooth="yes"/>
      <point x="491" y="658" type="line" smooth="yes"/>
      <point x="45" y="658" type="line" smooth="yes"/>
      <point x="45" y="524" type="line" smooth="yes"/>
      <point x="391" y="524" type="line" smooth="yes"/>
      <point x="348" y="556" type="line" smooth="yes"/>
    </contour>
  </outline>
</glyph>
<glyph name="eight" format="2">
  <advance width="576"/>
  <unicode hex="0038"/>
  <outline>
    <contour>
      <point x="289" y="-16" type="curve" smooth="yes"/>
      <point x="448" y="-16"/>
      <point x="526" y="68"/>
      <point x="526" y="186" type="curve" smooth="yes"/>
      <point x="526" y="296"/>
      <point x="442" y="354"/>
      <point x="300" y="396" type="curve" smooth="yes"/>
      <point x="280" y="402" type="line" smooth="yes"/>
      <point x="236" y="415"/>
      <point x="206" y="449"/>
      <point x="206" y="486" type="curve" smooth="yes"/>
      <point x="206" y="526"/>
      <point x="240" y="555"/>
      <point x="290" y="555" type="curve" smooth="yes"/>
      <point x="341" y="555"/>
      <point x="373" y="526"/>
      <point x="373" y="484" type="curve" smooth="yes"/>
      <point x="373" y="443"/>
      <point x="345" y="411"/>
      <point x="296" y="399" type="curve" smooth="yes"/>
      <point x="276" y="394" type="line"/>
      <point x="332" y="317" type="line"/>
      <point x="351" y="322" type="line" smooth="yes"/>
      <point x="463" y="351"/>
      <point x="517" y="408"/>
      <point x="517" y="499" type="curve" smooth="yes"/>
      <point x="517" y="594"/>
      <point x="442" y="675"/>
      <point x="290" y="675" type="curve" smooth="yes"/>
      <point x="135" y="675"/>
      <point x="62" y="585"/>
      <point x="62" y="484" type="curve" smooth="yes"/>
      <point x="62" y="377"/>
      <point x="132" y="316"/>
      <point x="281" y="272" type="curve" smooth="yes"/>
      <point x="301" y="266" type="line" smooth="yes"/>
      <point x="351" y="251"/>
      <point x="380" y="229"/>
      <point x="380" y="185" type="curve" smooth="yes"/>
      <point x="380" y="137"/>
      <point x="351" y="102"/>
      <point x="287" y="102" type="curve" smooth="yes"/>
      <point x="227" y="102"/>
      <point x="191" y="143"/>
      <point x="191" y="186" type="curve" smooth="yes"/>
      <point x="191" y="235"/>
      <point x="228" y="274"/>
      <point x="277" y="286" type="curve" smooth="yes"/>
      <point x="297" y="291" type="line"/>
      <point x="242" y="368" type="line"/>
      <point x="223" y="363" type="line" smooth="yes"/>
      <point x="114" y="335"/>
      <point x="50" y="273"/>
      <point x="50" y="176" type="curve" smooth="yes"/>
      <point x="50" y="69"/>
      <point x="120" y="-16"/>
    </contour>
  </outline>
</glyph>
<glyph name="nine" format="2">
  <advance width="576"/>
  <unicode hex="0039"/>
  <outline>
    <contour>
      <point x="239" y="-12" type="curve" smooth="yes"/>
      <point x="402" y="-12"/>
      <point x="531" y="126"/>
      <point x="531" y="352" type="curve" smooth="yes"/>
      <point x="531" y="576"/>
      <point x="434" y="672"/>
      <point x="288" y="672" type="curve" smooth="yes"/>
      <point x="143" y="672"/>
      <point x="45" y="585"/>
      <point x="45" y="435" type="curve" smooth="yes"/>
      <point x="45" y="302"/>
      <point x="124" y="215"/>
      <point x="255" y="215" type="curve" smooth="yes"/>
      <point x="343" y="215"/>
      <point x="412" y="263"/>
      <point x="421" y="381" type="curve"/>
      <point x="392" y="329" type="line"/>
      <point x="392" y="175"/>
      <point x="306" y="120"/>
      <point x="226" y="120" type="curve" smooth="yes"/>
      <point x="180" y="120"/>
      <point x="134" y="131"/>
      <point x="90" y="151" type="curve"/>
      <point x="90" y="12" type="line"/>
      <point x="140" y="-5"/>
      <point x="189" y="-12"/>
    </contour>
    <contour>
      <point x="285" y="337" type="curve" smooth="yes"/>
      <point x="225" y="337"/>
      <point x="185" y="378"/>
      <point x="185" y="442" type="curve" smooth="yes"/>
      <point x="185" y="507"/>
      <point x="225" y="548"/>
      <point x="287" y="548" type="curve" smooth="yes"/>
      <point x="349" y="548"/>
      <point x="386" y="500"/>
      <point x="388" y="421" type="curve"/>
      <point x="372" y="369"/>
      <point x="343" y="337"/>
    </contour>
  </outline>
</glyph>
<glyph name="equal" format="2">
  <advance width="524"/>
  <unicode hex="003D"/>
  <outline>
    <contour>
      <point x="60" y="338" type="line"/>
      <point x="464" y="338" type="line"/>
      <point x="464" y="456" type="line"/>
      <point x="60" y="456" type="line"/>
    </contour>
    <contour>
      <point x="60" y="134" type="line"/>
      <point x="464" y="134" type="line"/>
      <point x="464" y="252" type="line"/>
      <point x="60" y="252" type="line"/>
    </contour>
  </outline>
</glyph>
<glyph name="greater" format="2">
  <advance width="510"/>
  <unicode hex="003E"/>
  <outline>
    <contour>
      <point x="60" y="84" type="line"/>
      <point x="245" y="84" type="line"/>
      <point x="450" y="300" type="line"/>
      <point x="245" y="516" type="line"/>
      <point x="60" y="516" type="line"/>
      <point x="265" y="300" type="line"/>
    </contour>
  </outline>
</glyph>
<glyph name="question" format="2">
  <advance width="484"/>
  <unicode hex="003F"/>
  <outline>
    <contour>
      <point x="165" y="216" type="curve"/>
      <point x="293" y="216" type="line"/>
      <point x="293" y="267"/>
      <point x="312" y="307"/>
      <point x="360" y="355" type="curve" smooth="yes"/>
      <point x="420" y="414"/>
      <point x="444" y="463"/>
      <point x="444" y="529" type="curve" smooth="yes"/>
      <point x="444" y="631"/>
      <point x="369" y="716"/>
      <point x="213" y="716" type="curve" smooth="yes"/>
      <point x="156" y="716"/>
      <point x="97" y="705"/>
      <point x="40" y="685" type="curve"/>
      <point x="40" y="551" type="line"/>
      <point x="86" y="578"/>
      <point x="136" y="592"/>
      <point x="187" y="592" type="curve" smooth="yes"/>
      <point x="258" y="592"/>
      <point x="303" y="562"/>
      <point x="303" y="516" type="curve" smooth="yes"/>
      <point x="303" y="479"/>
      <point x="288" y="449"/>
      <point x="249" y="411" type="curve" smooth="yes"/>
      <point x="189" y="352"/>
      <point x="165" y="296"/>
    </contour>
    <contour>
      <point x="164" y="0" type="line"/>
      <point x="296" y="0" type="line"/>
      <point x="296" y="132" type="line"/>
      <point x="164" y="132" type="line"/>
    </contour>
  </outline>
</glyph>
<glyph name="at" format="2">
  <advance width="819"/>
  <unicode hex="0040"/>
  <outline>
    <contour>
      <point x="407" y="-74" type="curve" smooth="yes"/>
      <point x="466" y="-74"/>
      <point x="527" y="-61"/>
      <point x="585" y="-37" type="curve"/>
      <point x="585" y="54" type="line"/>
      <point x="530" y="25"/>
      <point x="469" y="10"/>
      <point x="407" y="10" type="curve" smooth="yes"/>
      <point x="246" y="10"/>
      <point x="138" y="131"/>
      <point x="138" y="278" type="curve" smooth="yes"/>
      <point x="138" y="420"/>
      <point x="246" y="546"/>
      <point x="408" y="546" type="curve" smooth="yes"/>
      <point x="572" y="546"/>
      <point x="681" y="442"/>
      <point x="681" y="320" type="curve" smooth="yes"/>
      <point x="681" y="223"/>
      <point x="645" y="186"/>
      <point x="598" y="186" type="curve" smooth="yes"/>
      <point x="557" y="186"/>
      <point x="535" y="226"/>
      <point x="543" y="286" type="curve" smooth="yes"/>
      <point x="561" y="415" type="line"/>
      <point x="524" y="430"/>
      <point x="468" y="441"/>
      <point x="429" y="441" type="curve" smooth="yes"/>
      <point x="316" y="441"/>
      <point x="232" y="355"/>
      <point x="232" y="240" type="curve" smooth="yes"/>
      <point x="232" y="154"/>
      <point x="280" y="108"/>
      <point x="345" y="108" type="curve" smooth="yes"/>
      <point x="401" y="108"/>
      <point x="446" y="135"/>
      <point x="475" y="194" type="curve"/>
      <point x="465" y="193" type="line"/>
      <point x="493" y="135"/>
      <point x="538" y="108"/>
      <point x="592" y="108" type="curve" smooth="yes"/>
      <point x="690" y="108"/>
      <point x="769" y="185"/>
      <point x="769" y="321" type="curve" smooth="yes"/>
      <point x="769" y="506"/>
      <point x="603" y="630"/>
      <point x="408" y="630" type="curve" smooth="yes"/>
      <point x="215" y="630"/>
      <point x="50" y="485"/>
      <point x="50" y="276" type="curve" smooth="yes"/>
      <point x="50" y="63"/>
      <point x="214" y="-74"/>
    </contour>
    <contour>
      <point x="375" y="190" type="curve" smooth="yes"/>
      <point x="342" y="190"/>
      <point x="324" y="211"/>
      <point x="324" y="252" type="curve" smooth="yes"/>
      <point x="324" y="311"/>
      <point x="365" y="362"/>
      <point x="413" y="362" type="curve" smooth="yes"/>
      <point x="430" y="362"/>
      <point x="447" y="359"/>
      <point x="461" y="353" type="curve"/>
      <point x="453" y="302" type="line" smooth="yes"/>
      <point x="439" y="207"/>
      <point x="404" y="190"/>
    </contour>
  </outline>
</glyph>
<glyph name="A" format="2">
  <advance width="687"/>
  <unicode hex="0041"/>
  <anchor x="342.0" y="642" name="top"/>
  <anchor x="662.0" y="16" name="ogonek"/>
  <outline>
    <contour>
      <point x="16" y="0" type="line"/>
      <point x="160" y="0" type="line"/>
      <point x="213" y="140" type="line"/>
      <point x="187" y="140" type="line"/>
      <point x="495" y="140" type="line"/>
      <point x="466" y="140" type="line"/>
      <point x="519" y="0" type="line"/>
      <point x="671" y="0" type="line"/>
      <point x="409" y="658" type="line"/>
      <point x="278" y="658" type="line"/>
    </contour>
    <contour>
      <point x="258" y="264" type="line"/>
      <point x="297" y="370" type="line"/>
      <point x="347" y="518" type="line"/>
      <point x="330" y="518" type="line"/>
      <point x="380" y="370" type="line"/>
      <point x="420" y="264" type="line"/>
      <point x="448" y="264" type="line"/>
      <point x="221" y="264" type="line"/>
    </contour>
  </outline>
</glyph>
<glyph name="B" format="2">
  <advance width="549"/>
  <unicode hex="0042"/>
  <outline>
    <contour>
      <point x="64" y="0" type="line"/>
      <point x="271" y="0" type="line" smooth="yes"/>
      <point x="423" y="0"/>
      <point x="504" y="62"/>
      <point x="504" y="184" type="curve" smooth="yes"/>
      <point x="504" y="285"/>
      <point x="432" y="340"/>
      <point x="323" y="347" type="curve"/>
      <point x="323" y="322" type="line"/>
      <point x="419" y="334"/>
      <point x="483" y="393"/>
      <point x="483" y="493" type="curve" smooth="yes"/>
      <point x="483" y="603"/>
      <point x="409" y="658"/>
      <point x="258" y="658" type="curve" smooth="yes"/>
      <point x="64" y="658" type="line"/>
    </contour>
    <contour>
      <point x="204" y="388" type="line"/>
      <point x="204" y="537" type="line"/>
      <point x="259" y="537" type="line" smooth="yes"/>
      <point x="310" y="537"/>
      <point x="344" y="512"/>
      <point x="344" y="464" type="curve" smooth="yes"/>
      <point x="344" y="413"/>
      <point x="310" y="388"/>
      <point x="259" y="388" type="curve" smooth="yes"/>
    </contour>
    <contour>
      <point x="204" y="121" type="line"/>
      <point x="204" y="274" type="line"/>
      <point x="276" y="274" type="line" smooth="yes"/>
      <point x="329" y="274"/>
      <point x="365" y="248"/>
      <point x="365" y="198" type="curve" smooth="yes"/>
      <point x="365" y="147"/>
      <point x="329" y="121"/>
      <point x="276" y="121" type="curve" smooth="yes"/>
    </contour>
  </outline>
</glyph>
<glyph name="C" format="2">
  <advance width="651"/>
  <unicode hex="0043"/>
  <anchor x="384" y="650" name="top"/>
  <anchor x="385" y="8" name="bottom"/>
  <outline>
    <contour>
      <point x="401" y="-16" type="curve" smooth="yes"/>
      <point x="477" y="-16"/>
      <point x="544" y="-1"/>
      <point x="609" y="36" type="curve"/>
      <point x="609" y="176" type="line"/>
      <point x="543" y="136"/>
      <point x="481" y="114"/>
      <point x="401" y="114" type="curve" smooth="yes"/>
      <point x="270" y="114"/>
      <point x="182" y="199"/>
      <point x="182" y="330" type="curve" smooth="yes"/>
      <point x="182" y="459"/>
      <point x="270" y="544"/>
      <point x="401" y="544" type="curve" smooth="yes"/>
      <point x="474" y="544"/>
      <point x="538" y="525"/>
      <point x="602" y="486" type="curve"/>
      <point x="602" y="626" type="line"/>
      <point x="538" y="658"/>
      <point x="473" y="674"/>
      <point x="401" y="674" type="curve" smooth="yes"/>
      <point x="179" y="674"/>
      <point x="40" y="538"/>
      <point x="40" y="330" type="curve" smooth="yes"/>
      <point x="40" y="120"/>
      <point x="179" y="-16"/>
    </contour>
  </outline>
</glyph>
<glyph name="D" format="2">
  <advance width="687"/>
  <unicode hex="0044"/>
  <anchor x="303" y="642" name="top"/>
  <outline>
    <contour>
      <point x="64" y="0" type="line"/>
      <point x="286" y="0" type="line" smooth="yes"/>
      <point x="507" y="0"/>
      <point x="647" y="131"/>
      <point x="647" y="337" type="curve" smooth="yes"/>
      <point x="647" y="533"/>
      <point x="510" y="658"/>
      <point x="294" y="658" type="curve" smooth="yes"/>
      <point x="64" y="658" type="line"/>
    </contour>
    <contour>
      <point x="204" y="132" type="line"/>
      <point x="204" y="526" type="line"/>
      <point x="302" y="526" type="line" smooth="yes"/>
      <point x="427" y="526"/>
      <point x="507" y="452"/>
      <point x="507" y="337" type="curve" smooth="yes"/>
      <point x="507" y="212"/>
      <point x="424" y="132"/>
      <point x="294" y="132" type="curve" smooth="yes"/>
    </contour>
  </outline>
</glyph>
<glyph name="E" format="2">
  <advance width="536"/>
  <unicode hex="0045"/>
  <anchor x="273" y="642" name="top"/>
  <anchor x="473" y="16" name="ogonek"/>
  <outline>
    <contour>
      <point x="64" y="0" type="line"/>
      <point x="476" y="0" type="line"/>
      <point x="476" y="132" type="line"/>
      <point x="204" y="132" type="line"/>
      <point x="204" y="267" type="line"/>
      <point x="460" y="267" type="line"/>
      <point x="460" y="399" type="line"/>
      <point x="204" y="399" type="line"/>
      <point x="204" y="526" type="line"/>
      <point x="468" y="526" type="line"/>
      <point x="468" y="658" type="line"/>
      <point x="64" y="658" type="line"/>
    </contour>
  </outline>
</glyph>
<glyph name="G" format="2">
  <advance width="687"/>
  <unicode hex="0047"/>
  <anchor x="376" y="650" name="top"/>
  <anchor x="383" y="8" name="bottom"/>
  <outline>
    <contour>
      <point x="387" y="-16" type="curve" smooth="yes"/>
      <point x="476" y="-16"/>
      <point x="561" y="2"/>
      <point x="637" y="38" type="curve"/>
      <point x="637" y="370" type="line"/>
      <point x="363" y="370" type="line"/>
      <point x="363" y="238" type="line"/>
      <point x="497" y="238" type="line"/>
      <point x="497" y="132" type="line"/>
      <point x="461" y="120"/>
      <point x="425" y="114"/>
      <point x="377" y="114" type="curve" smooth="yes"/>
      <point x="261" y="114"/>
      <point x="182" y="200"/>
      <point x="182" y="333" type="curve" smooth="yes"/>
      <point x="182" y="461"/>
      <point x="264" y="544"/>
      <point x="394" y="544" type="curve" smooth="yes"/>
      <point x="473" y="544"/>
      <point x="546" y="527"/>
      <point x="607" y="495" type="curve"/>
      <point x="607" y="630" type="line"/>
      <point x="547" y="657"/>
      <point x="462" y="674"/>
      <point x="388" y="674" type="curve" smooth="yes"/>
      <point x="175" y="674"/>
      <point x="40" y="541"/>
      <point x="40" y="333" type="curve" smooth="yes"/>
      <point x="40" y="120"/>
      <point x="172" y="-16"/>
    </contour>
  </outline>
</glyph>
<glyph name="J" format="2">
  <advance width="269"/>
  <unicode hex="004A"/>
  <anchor x="135" y="642" name="top"/>
  <outline>
    <contour>
      <point x="-20" y="-220" type="line" smooth="yes"/>
      <point x="117" y="-220"/>
      <point x="205.0" y="-133.0"/>
      <point x="205" y="4" type="curve" smooth="yes"/>
      <point x="205" y="658" type="line"/>
      <point x="65" y="658" type="line"/>
      <point x="65" y="4" type="line" smooth="yes"/>
      <point x="65.0" y="-53.0"/>
      <point x="32" y="-90"/>
      <point x="-20" y="-90" type="curve" smooth="yes"/>
      <point x="-28" y="-90" type="line"/>
      <point x="-28" y="-220" type="line"/>
    </contour>
  </outline>
</glyph>
<glyph name="L" format="2">
  <advance width="501"/>
  <unicode hex="004C"/>
  <anchor x="133" y="642" name="top"/>
  <anchor x="282" y="16" name="bottom"/>
  <anchor x="385" y="642" name="caron.vert"/>
  <outline>
    <contour>
      <point x="64" y="0" type="line"/>
      <point x="476" y="0" type="line"/>
      <point x="476" y="132" type="line"/>
      <point x="204" y="132" type="line"/>
      <point x="204" y="658" type="line"/>
      <point x="64" y="658" type="line"/>
    </contour>
  </outline>
</glyph>
<glyph name="M" format="2">
  <advance width="832"/>
  <unicode hex="004D"/>
  <outline>
    <contour>
      <point x="64" y="0" type="line"/>
      <point x="196" y="0" type="line"/>
      <point x="196" y="370" type="line"/>
      <point x="186" y="650" type="line"/>
      <point x="142" y="650" type="line"/>
      <point x="249" y="370" type="line"/>
      <point x="345" y="130" type="line"/>
      <point x="482" y="130" type="line"/>
      <point x="578" y="370" type="line" smooth="yes"/>
      <point x="684" y="650" type="line"/>
      <point x="640" y="650" type="line"/>
      <point x="630" y="370" type="line"/>
      <point x="630" y="0" type="line"/>
      <point x="768" y="0" type="line"/>
      <point x="768" y="658" type="line"/>
      <point x="557" y="658" type="line"/>
      <point x="465" y="420" type="line"/>
      <point x="390" y="190" type="line"/>
      <point x="446" y="190" type="line"/>
      <point x="371" y="418" type="line"/>
      <point x="279" y="658" type="line"/>
      <point x="64" y="658" type="line"/>
    </contour>
  </outline>
</glyph>
<glyph name="N" format="2">
  <advance width="715"/>
  <unicode hex="004E"/>
  <anchor x="359" y="642" name="top"/>
  <anchor x="366" y="16" name="bottom"/>
  <outline>
    <contour>
      <point x="64" y="0" type="line"/>
      <point x="198" y="0" type="line"/>
      <point x="198" y="370" type="line"/>
      <point x="194" y="556" type="line"/>
      <point x="124" y="556" type="line"/>
      <point x="250" y="368" type="line"/>
      <point x="507" y="0" type="line"/>
      <point x="651" y="0" type="line"/>
      <point x="651" y="658" type="line"/>
      <point x="517" y="658" type="line"/>
      <point x="517" y="294" type="line"/>
      <point x="521" y="102" type="line"/>
      <point x="592" y="102" type="line"/>
      <point x="463" y="296" type="line"/>
      <point x="210" y="658" type="line"/>
      <point x="64" y="658" type="line"/>
    </contour>
  </outline>
</glyph>
<glyph name="O" format="2">
  <advance width="772"/>
  <unicode hex="004F"/>
  <anchor x="386" y="650" name="top"/>
  <outline>
    <contour>
      <point x="386" y="-16" type="curve" smooth="yes"/>
      <point x="597" y="-16"/>
      <point x="732" y="118"/>
      <point x="732" y="329" type="curve" smooth="yes"/>
      <point x="732" y="540"/>
      <point x="589" y="674"/>
      <point x="386" y="674" type="curve" smooth="yes"/>
      <point x="183" y="674"/>
      <point x="40" y="533"/>
      <point x="40" y="329" type="curve" smooth="yes"/>
      <point x="40" y="125"/>
      <point x="175" y="-16"/>
    </contour>
    <contour>
      <point x="386" y="114" type="curve" smooth="yes"/>
      <point x="262" y="114"/>
      <point x="182" y="198"/>
      <point x="182" y="329" type="curve" smooth="yes"/>
      <point x="182" y="460"/>
      <point x="262" y="544"/>
      <point x="386" y="544" type="curve" smooth="yes"/>
      <point x="510" y="544"/>
      <point x="590" y="460"/>
      <point x="590" y="329" type="curve" smooth="yes"/>
      <point x="590" y="198"/>
      <point x="510" y="114"/>
    </contour>
  </outline>
</glyph>
<glyph name="P" format="2">
  <advance width="535"/>
  <unicode hex="0050"/>
  <outline>
    <contour>
      <point x="64" y="0" type="line"/>
      <point x="204" y="0" type="line"/>
      <point x="204" y="212" type="line"/>
      <point x="243" y="212" type="line" smooth="yes"/>
      <point x="400" y="212"/>
      <point x="499" y="293"/>
      <point x="499" y="434" type="curve" smooth="yes"/>
      <point x="499" y="573"/>
      <point x="400" y="658"/>
      <point x="241" y="658" type="curve" smooth="yes"/>
      <point x="64" y="658" type="line"/>
    </contour>
    <contour>
      <point x="204" y="338" type="line"/>
      <point x="204" y="528" type="line"/>
      <point x="248" y="528" type="line" smooth="yes"/>
      <point x="315" y="528"/>
      <point x="357" y="492"/>
      <point x="357" y="434" type="curve" smooth="yes"/>
      <point x="357" y="376"/>
      <point x="315" y="338"/>
      <point x="249" y="338" type="curve" smooth="yes"/>
    </contour>
  </outline>
</glyph>
<glyph name="Q" format="2">
  <advance width="772"/>
  <unicode hex="0051"/>
  <guideline x="730" y="473" angle="90" identifier="D9ZbGaj5Ep"/>
  <outline>
    <contour>
      <point x="643" y="-154" type="curve"/>
      <point x="693" y="-26" type="line"/>
      <point x="632" y="-11"/>
      <point x="583" y="19"/>
      <point x="553" y="55" type="curve"/>
      <point x="380" y="21" type="line"/>
      <point x="462" y="-65"/>
      <point x="534" y="-112"/>
    </contour>
    <component base="O"/>
  </outline>
</glyph>
<glyph name="R" format="2">
  <advance width="568"/>
  <unicode hex="0052"/>
  <anchor x="255" y="642" name="top"/>
  <anchor x="300" y="16" name="bottom"/>
  <outline>
    <contour>
      <point x="397" y="0" type="line"/>
      <point x="550" y="0" type="line"/>
      <point x="472" y="211" type="line" smooth="yes"/>
      <point x="446" y="281"/>
      <point x="394" y="317"/>
      <point x="320" y="317" type="curve"/>
      <point x="320" y="301" type="line"/>
      <point x="433" y="315"/>
      <point x="492" y="384"/>
      <point x="492" y="477" type="curve" smooth="yes"/>
      <point x="492" y="584"/>
      <point x="411" y="658"/>
      <point x="274" y="658" type="curve" smooth="yes"/>
      <point x="64" y="658" type="line"/>
      <point x="64" y="0" type="line"/>
      <point x="204" y="0" type="line"/>
      <point x="204" y="255" type="line"/>
      <point x="248" y="255" type="line" smooth="yes"/>
      <point x="290" y="255"/>
      <point x="319" y="230"/>
      <point x="335" y="182" type="curve" smooth="yes"/>
    </contour>
    <contour>
      <point x="204" y="373" type="line"/>
      <point x="204" y="532" type="line"/>
      <point x="269" y="532" type="line" smooth="yes"/>
      <point x="318" y="532"/>
      <point x="350" y="501"/>
      <point x="350" y="454" type="curve" smooth="yes"/>
      <point x="350" y="406"/>
      <point x="318" y="373"/>
      <point x="269" y="373" type="curve" smooth="yes"/>
    </contour>
  </outline>
</glyph>
<glyph name="S" format="2">
  <advance width="513"/>
  <unicode hex="0053"/>
  <anchor x="257" y="650" name="top"/>
  <anchor x="246" y="8" name="bottom"/>
  <outline>
    <contour>
      <point x="245" y="-14" type="curve" smooth="yes"/>
      <point x="382" y="-14"/>
      <point x="468" y="74"/>
      <point x="468" y="202" type="curve" smooth="yes"/>
      <point x="468" y="296"/>
      <point x="410" y="363"/>
      <point x="296" y="398" type="curve" smooth="yes"/>
      <point x="277" y="404" type="line" smooth="yes"/>
      <point x="217" y="423"/>
      <point x="188" y="446"/>
      <point x="188" y="482" type="curve" smooth="yes"/>
      <point x="188" y="523"/>
      <point x="217" y="542"/>
      <point x="271" y="542" type="curve" smooth="yes"/>
      <point x="331" y="542"/>
      <point x="384" y="523"/>
      <point x="442" y="487" type="curve"/>
      <point x="442" y="631" type="line"/>
      <point x="376" y="661"/>
      <point x="320" y="672"/>
      <point x="260" y="672" type="curve" smooth="yes"/>
      <point x="129" y="672"/>
      <point x="45" y="592"/>
      <point x="45" y="478" type="curve" smooth="yes"/>
      <point x="45" y="379"/>
      <point x="100" y="311"/>
      <point x="207" y="277" type="curve" smooth="yes"/>
      <point x="226" y="271" type="line" smooth="yes"/>
      <point x="294" y="250"/>
      <point x="325" y="224"/>
      <point x="325" y="185" type="curve" smooth="yes"/>
      <point x="325" y="141"/>
      <point x="292" y="116"/>
      <point x="237" y="116" type="curve" smooth="yes"/>
      <point x="169" y="116"/>
      <point x="108" y="134"/>
      <point x="53" y="171" type="curve"/>
      <point x="53" y="27" type="line"/>
      <point x="114" y="-2"/>
      <point x="176" y="-14"/>
    </contour>
  </outline>
</glyph>
<glyph name="U" format="2">
  <advance width="670"/>
  <unicode hex="0055"/>
  <anchor x="339" y="642" name="top"/>
  <outline>
    <contour>
      <point x="337" y="-12" type="curve" smooth="yes"/>
      <point x="506" y="-12"/>
      <point x="614" y="93"/>
      <point x="614" y="261" type="curve" smooth="yes"/>
      <point x="614" y="658" type="line"/>
      <point x="478" y="658" type="line"/>
      <point x="478" y="261" type="line" smooth="yes"/>
      <point x="478" y="175"/>
      <point x="426" y="120"/>
      <point x="338" y="120" type="curve" smooth="yes"/>
      <point x="251" y="120"/>
      <point x="196" y="175"/>
      <point x="196" y="261" type="curve" smooth="yes"/>
      <point x="196" y="658" type="line"/>
      <point x="56" y="658" type="line"/>
      <point x="56" y="261" type="line" smooth="yes"/>
      <point x="56" y="93"/>
      <point x="162" y="-12"/>
    </contour>
  </outline>
</glyph>
<glyph name="V" format="2">
  <advance width="688"/>
  <unicode hex="0056"/>
  <outline>
    <contour>
      <point x="283" y="0" type="line"/>
      <point x="405" y="0" type="line"/>
      <point x="672" y="658" type="line"/>
      <point x="528" y="658" type="line"/>
      <point x="386" y="288" type="line"/>
      <point x="319" y="99" type="line"/>
      <point x="377" y="99" type="line"/>
      <point x="311" y="288" type="line"/>
      <point x="169" y="658" type="line"/>
      <point x="16" y="658" type="line"/>
    </contour>
  </outline>
</glyph>
<glyph name="W" format="2">
  <advance width="984"/>
  <unicode hex="0057"/>
  <anchor x="492" y="642" name="top"/>
  <outline>
    <contour>
      <point x="217" y="0" type="line"/>
      <point x="364" y="0" type="line"/>
      <point x="466" y="370" type="line"/>
      <point x="531" y="646" type="line"/>
      <point x="455" y="646" type="line"/>
      <point x="518" y="370" type="line"/>
      <point x="620" y="0" type="line"/>
      <point x="767" y="0" type="line"/>
      <point x="968" y="658" type="line"/>
      <point x="827" y="658" type="line"/>
      <point x="726" y="288" type="line"/>
      <point x="662" y="20" type="line"/>
      <point x="735" y="20" type="line"/>
      <point x="671" y="288" type="line"/>
      <point x="570" y="658" type="line"/>
      <point x="423" y="658" type="line"/>
      <point x="321" y="288" type="line"/>
      <point x="257" y="20" type="line"/>
      <point x="329" y="20" type="line"/>
      <point x="265" y="288" type="line"/>
      <point x="163" y="658" type="line"/>
      <point x="16" y="658" type="line"/>
    </contour>
  </outline>
</glyph>
<glyph name="X" format="2">
  <advance width="669"/>
  <unicode hex="0058"/>
  <outline>
    <contour>
      <point x="15" y="0" type="line"/>
      <point x="177" y="0" type="line"/>
      <point x="291" y="172" type="line"/>
      <point x="358" y="273" type="line"/>
      <point x="389" y="306" type="line"/>
      <point x="633" y="658" type="line"/>
      <point x="471" y="658" type="line"/>
      <point x="372" y="507" type="line"/>
      <point x="317" y="424" type="line"/>
      <point x="278" y="380" type="line"/>
    </contour>
    <contour>
      <point x="482" y="0" type="line"/>
      <point x="654" y="0" type="line"/>
      <point x="389" y="381" type="line"/>
      <point x="354" y="425" type="line"/>
      <point x="300" y="507" type="line"/>
      <point x="200" y="658" type="line"/>
      <point x="28" y="658" type="line"/>
      <point x="272" y="305" type="line"/>
      <point x="308" y="259" type="line"/>
      <point x="366" y="172" type="line"/>
    </contour>
  </outline>
</glyph>
<glyph name="Y" format="2">
  <advance width="642"/>
  <unicode hex="0059"/>
  <anchor x="321" y="642" name="top"/>
  <outline>
    <contour>
      <point x="252" y="0" type="line"/>
      <point x="392" y="0" type="line"/>
      <point x="392" y="287" type="line"/>
      <point x="371" y="221" type="line"/>
      <point x="632" y="658" type="line"/>
      <point x="480" y="658" type="line"/>
      <point x="371" y="464" type="line"/>
      <point x="283" y="307" type="line"/>
      <point x="369" y="307" type="line"/>
      <point x="283" y="464" type="line"/>
      <point x="172" y="658" type="line"/>
      <point x="10" y="658" type="line"/>
      <point x="273" y="221" type="line"/>
      <point x="252" y="290" type="line"/>
    </contour>
  </outline>
</glyph>
<glyph name="Z" format="2">
  <advance width="587"/>
  <unicode hex="005A"/>
  <anchor x="294" y="642" name="top"/>
  <outline>
    <contour>
      <point x="40" y="0" type="line"/>
      <point x="547" y="0" type="line"/>
      <point x="547" y="132" type="line"/>
      <point x="172" y="132" type="line"/>
      <point x="172" y="26" type="line"/>
      <point x="285" y="191" type="line"/>
      <point x="547" y="580" type="line"/>
      <point x="547" y="658" type="line"/>
      <point x="51" y="658" type="line"/>
      <point x="51" y="526" type="line"/>
      <point x="415" y="526" type="line"/>
      <point x="415" y="631" type="line"/>
      <point x="302" y="466" type="line"/>
      <point x="40" y="78" type="line"/>
    </contour>
  </outline>
</glyph>
<glyph name="a" format="2">
  <advance width="476"/>
  <unicode hex="0061"/>
  <anchor x="232" y="454" name="top"/>
  <anchor x="432" y="16" name="ogonek"/>
  <outline>
    <contour>
      <point x="174" y="-10" type="curve" smooth="yes"/>
      <point x="226" y="-10"/>
      <point x="274" y="17"/>
      <point x="299" y="62" type="curve"/>
      <point x="309" y="0" type="line"/>
      <point x="434" y="0" type="line"/>
      <point x="434" y="319" type="line" smooth="yes"/>
      <point x="434" y="425"/>
      <point x="365" y="486"/>
      <point x="230" y="486" type="curve" smooth="yes"/>
      <point x="178" y="486"/>
      <point x="108" y="468"/>
      <point x="53" y="450" type="curve"/>
      <point x="53" y="322" type="line"/>
      <point x="99" y="347"/>
      <point x="156" y="364"/>
      <point x="209" y="364" type="curve" smooth="yes"/>
      <point x="268" y="364"/>
      <point x="298" y="347"/>
      <point x="298" y="315" type="curve" smooth="yes"/>
      <point x="298" y="305" type="line"/>
      <point x="212" y="290" type="line" smooth="yes"/>
      <point x="91" y="269"/>
      <point x="32" y="217"/>
      <point x="32" y="127" type="curve" smooth="yes"/>
      <point x="32" y="43"/>
      <point x="89" y="-10"/>
    </contour>
    <contour>
      <point x="221" y="98" type="curve" smooth="yes"/>
      <point x="187" y="98"/>
      <point x="166" y="115"/>
      <point x="166" y="143" type="curve" smooth="yes"/>
      <point x="166" y="175"/>
      <point x="190" y="194"/>
      <point x="229" y="201" type="curve" smooth="yes"/>
      <point x="298" y="213" type="line"/>
      <point x="298" y="149" type="line"/>
      <point x="287" y="118"/>
      <point x="256" y="98"/>
    </contour>
  </outline>
</glyph>
<glyph name="b" format="2">
  <advance width="527"/>
  <unicode hex="0062"/>
  <outline>
    <contour>
      <point x="242" y="-10" type="curve" smooth="yes"/>
      <point x="399" y="-10"/>
      <point x="497" y="89"/>
      <point x="497" y="249" type="curve" smooth="yes"/>
      <point x="497" y="390"/>
      <point x="421" y="480"/>
      <point x="302" y="480" type="curve" smooth="yes"/>
      <point x="260" y="480"/>
      <point x="216" y="465"/>
      <point x="184" y="438" type="curve"/>
      <point x="184" y="716" type="line"/>
      <point x="48" y="716" type="line"/>
      <point x="48" y="28" type="line"/>
      <point x="113" y="1"/>
      <point x="177" y="-10"/>
    </contour>
    <contour>
      <point x="251" y="108" type="curve" smooth="yes"/>
      <point x="229" y="108"/>
      <point x="204" y="112"/>
      <point x="184" y="117" type="curve"/>
      <point x="184" y="334" type="line"/>
      <point x="206" y="351"/>
      <point x="237" y="360"/>
      <point x="265" y="360" type="curve" smooth="yes"/>
      <point x="329" y="360"/>
      <point x="361" y="311"/>
      <point x="361" y="237" type="curve" smooth="yes"/>
      <point x="361" y="161"/>
      <point x="319" y="108"/>
    </contour>
  </outline>
</glyph>
<glyph name="c" format="2">
  <advance width="460"/>
  <unicode hex="0063"/>
  <anchor x="263" y="454" name="top"/>
  <anchor x="245" y="16" name="bottom"/>
  <outline>
    <contour>
      <point x="278" y="-10" type="curve" smooth="yes"/>
      <point x="326" y="-10"/>
      <point x="381" y="6"/>
      <point x="420" y="30" type="curve"/>
      <point x="420" y="166" type="line"/>
      <point x="384" y="137"/>
      <point x="334" y="116"/>
      <point x="288" y="116" type="curve" smooth="yes"/>
      <point x="213" y="116"/>
      <point x="167" y="158"/>
      <point x="167" y="236" type="curve" smooth="yes"/>
      <point x="167" y="313"/>
      <point x="213" y="354"/>
      <point x="286" y="354" type="curve" smooth="yes"/>
      <point x="333" y="354"/>
      <point x="378" y="338"/>
      <point x="417" y="311" type="curve"/>
      <point x="417" y="447" type="line"/>
      <point x="375" y="469"/>
      <point x="325" y="480"/>
      <point x="279" y="480" type="curve" smooth="yes"/>
      <point x="126" y="480"/>
      <point x="30" y="387"/>
      <point x="30" y="235" type="curve" smooth="yes"/>
      <point x="30" y="82"/>
      <point x="124" y="-10"/>
    </contour>
  </outline>
</glyph>
<glyph name="d" format="2">
  <advance width="532"/>
  <unicode hex="0064"/>
  <anchor x="355" y="716" name="top"/>
  <anchor x="624" y="700" name="caron.vert"/>
  <outline>
    <contour>
      <point x="229" y="-10" type="curve" smooth="yes"/>
      <point x="278" y="-10"/>
      <point x="326" y="19"/>
      <point x="349" y="62" type="curve"/>
      <point x="359" y="0" type="line"/>
      <point x="484" y="0" type="line"/>
      <point x="484" y="716" type="line"/>
      <point x="348" y="716" type="line"/>
      <point x="348" y="461" type="line"/>
      <point x="324" y="472"/>
      <point x="285" y="480"/>
      <point x="256" y="480" type="curve" smooth="yes"/>
      <point x="121" y="480"/>
      <point x="30" y="380"/>
      <point x="30" y="226" type="curve" smooth="yes"/>
      <point x="30" y="83"/>
      <point x="109" y="-10"/>
    </contour>
    <contour>
      <point x="263" y="110" type="curve" smooth="yes"/>
      <point x="205" y="110"/>
      <point x="167" y="159"/>
      <point x="167" y="232" type="curve" smooth="yes"/>
      <point x="167" y="311"/>
      <point x="211" y="363"/>
      <point x="278" y="363" type="curve" smooth="yes"/>
      <point x="302" y="363"/>
      <point x="330" y="355"/>
      <point x="348" y="342" type="curve"/>
      <point x="348" y="156" type="line"/>
      <point x="326" y="128"/>
      <point x="295" y="110"/>
    </contour>
  </outline>
</glyph>
<glyph name="e" format="2">
  <advance width="492"/>
  <unicode hex="0065"/>
  <anchor x="254" y="454" name="top"/>
  <outline>
    <contour>
      <point x="271" y="-10" type="curve" smooth="yes"/>
      <point x="328" y="-10"/>
      <point x="389" y="2"/>
      <point x="448" y="25" type="curve"/>
      <point x="448" y="149" type="line"/>
      <point x="393" y="119"/>
      <point x="339" y="104"/>
      <point x="291" y="104" type="curve" smooth="yes"/>
      <point x="215" y="104"/>
      <point x="169" y="139"/>
      <point x="169" y="193" type="curve" smooth="yes"/>
      <point x="169" y="281" type="line" smooth="yes"/>
      <point x="169" y="333"/>
      <point x="199" y="370"/>
      <point x="252" y="370" type="curve" smooth="yes"/>
      <point x="299" y="370"/>
      <point x="326" y="337"/>
      <point x="326" y="287" type="curve"/>
      <point x="147" y="287" type="line"/>
      <point x="147" y="187" type="line"/>
      <point x="462" y="187" type="line"/>
      <point x="462" y="220" type="line" smooth="yes"/>
      <point x="462" y="395"/>
      <point x="383" y="480"/>
      <point x="253" y="480" type="curve" smooth="yes"/>
      <point x="115" y="480"/>
      <point x="30" y="383"/>
      <point x="30" y="236" type="curve" smooth="yes"/>
      <point x="30" y="83"/>
      <point x="121" y="-10"/>
    </contour>
  </outline>
</glyph>
<glyph name="f" format="2">
  <advance width="306"/>
  <unicode hex="0066"/>
  <outline>
    <contour>
      <point x="80" y="0" type="line"/>
      <point x="216" y="0" type="line"/>
      <point x="216" y="348" type="line"/>
      <point x="291" y="348" type="line"/>
      <point x="291" y="470" type="line"/>
      <point x="216" y="470" type="line"/>
      <point x="216" y="516" type="line" smooth="yes"/>
      <point x="216" y="569"/>
      <point x="244" y="602"/>
      <point x="297" y="602" type="curve" smooth="yes"/>
      <point x="328" y="602"/>
      <point x="366" y="591"/>
      <point x="391" y="576" type="curve"/>
      <point x="391" y="706" type="line"/>
      <point x="356" y="719"/>
      <point x="318" y="726"/>
      <point x="281" y="726" type="curve" smooth="yes"/>
      <point x="159" y="726"/>
      <point x="80" y="643"/>
      <point x="80" y="512" type="curve" smooth="yes"/>
      <point x="80" y="470" type="line"/>
      <point x="20" y="470" type="line"/>
      <point x="20" y="348" type="line"/>
      <point x="80" y="348" type="line"/>
    </contour>
  </outline>
</glyph>
<glyph name="g" format="2">
  <advance width="527"/>
  <unicode hex="0067"/>
  <anchor x="259" y="454" name="top"/>
  <outline>
    <contour>
      <point x="263" y="110" type="curve" smooth="yes"/>
      <point x="200" y="110"/>
      <point x="167" y="158"/>
      <point x="167" y="231" type="curve" smooth="yes"/>
      <point x="167" y="301"/>
      <point x="205" y="362"/>
      <point x="276" y="362" type="curve" smooth="yes"/>
      <point x="299" y="362"/>
      <point x="324" y="356"/>
      <point x="343" y="349" type="curve"/>
      <point x="343" y="138" type="line"/>
      <point x="321" y="122"/>
      <point x="294" y="110"/>
    </contour>
    <contour>
      <point x="242" y="-220" type="curve" smooth="yes"/>
      <point x="386" y="-220"/>
      <point x="479" y="-126"/>
      <point x="479" y="22" type="curve" smooth="yes"/>
      <point x="479" y="470" type="line"/>
      <point x="419" y="470" type="line"/>
      <point x="390" y="429" type="line"/>
      <point x="360" y="461"/>
      <point x="303" y="480"/>
      <point x="259" y="480" type="curve" smooth="yes"/>
      <point x="117" y="480"/>
      <point x="30" y="373"/>
      <point x="30" y="230" type="curve" smooth="yes"/>
      <point x="30" y="79"/>
      <point x="103" y="-10"/>
      <point x="230" y="-10" type="curve" smooth="yes"/>
      <point x="273" y="-10"/>
      <point x="315" y="6"/>
      <point x="343" y="35" type="curve"/>
      <point x="343" y="8" type="line" smooth="yes"/>
      <point x="343" y="-63"/>
      <point x="293" y="-96"/>
      <point x="219" y="-96" type="curve" smooth="yes"/>
      <point x="167" y="-96"/>
      <point x="116" y="-77"/>
      <point x="64" y="-49" type="curve"/>
      <point x="64" y="-185" type="line"/>
      <point x="116" y="-208"/>
      <point x="177" y="-220"/>
    </contour>
  </outline>
</glyph>
<glyph name="h" format="2">
  <advance width="521"/>
  <unicode hex="0068"/>
  <anchor x="118" y="677" name="top"/>
  <outline>
    <contour>
      <point x="48" y="0" type="line"/>
      <point x="184" y="0" type="line"/>
      <point x="184" y="304" type="line"/>
      <point x="208" y="338"/>
      <point x="237" y="356"/>
      <point x="272" y="356" type="curve" smooth="yes"/>
      <point x="316" y="356"/>
      <point x="339" y="329"/>
      <point x="339" y="276" type="curve" smooth="yes"/>
      <point x="339" y="0" type="line"/>
      <point x="475" y="0" type="line"/>
      <point x="475" y="301" type="line" smooth="yes"/>
      <point x="475" y="417"/>
      <point x="415" y="480"/>
      <point x="319" y="480" type="curve" smooth="yes"/>
      <point x="264" y="480"/>
      <point x="218" y="456"/>
      <point x="184" y="408" type="curve"/>
      <point x="184" y="716" type="line"/>
      <point x="48" y="716" type="line"/>
    </contour>
  </outline>
</glyph>
<glyph name="i" format="2">
  <advance width="232"/>
  <unicode hex="0069"/>
  <anchor x="117" y="438" name="top"/>
  <anchor x="182" y="16" name="ogonek"/>
  <outline>
    <contour>
      <point x="48" y="0" type="line"/>
      <point x="184" y="0" type="line"/>
      <point x="184" y="470" type="line"/>
      <point x="48" y="470" type="line"/>
    </contour>
    <contour>
      <point x="48" y="584" type="line"/>
      <point x="184" y="584" type="line"/>
      <point x="184" y="716" type="line"/>
      <point x="48" y="716" type="line"/>
    </contour>
  </outline>
</glyph>
<glyph name="j" format="2">
  <advance width="232"/>
  <unicode hex="006A"/>
  <anchor x="117" y="438" name="top"/>
  <outline>
    <contour>
      <point x="-24" y="-220" type="line" smooth="yes"/>
      <point x="104" y="-220"/>
      <point x="186" y="-142"/>
      <point x="186" y="-18" type="curve" smooth="yes"/>
      <point x="186" y="470" type="line"/>
      <point x="50" y="470" type="line"/>
      <point x="50" y="-18" type="line" smooth="yes"/>
      <point x="50" y="-66"/>
      <point x="21" y="-96"/>
      <point x="-24" y="-96" type="curve" smooth="yes"/>
      <point x="-32" y="-96" type="line"/>
      <point x="-32" y="-220" type="line"/>
    </contour>
    <contour>
      <point x="50" y="584" type="line"/>
      <point x="186" y="584" type="line"/>
      <point x="186" y="716" type="line"/>
      <point x="50" y="716" type="line"/>
    </contour>
  </outline>
</glyph>
<glyph name="k" format="2">
  <advance width="508"/>
  <unicode hex="006B"/>
  <anchor x="257" y="16" name="bottom"/>
  <outline>
    <contour>
      <point x="48" y="0" type="line"/>
      <point x="184" y="0" type="line"/>
      <point x="184" y="239" type="line"/>
      <point x="169" y="239" type="line"/>
      <point x="338" y="0" type="line"/>
      <point x="502" y="0" type="line"/>
      <point x="304" y="270" type="line"/>
      <point x="303" y="227" type="line"/>
      <point x="491" y="470" type="line"/>
      <point x="333" y="470" type="line"/>
      <point x="169" y="245" type="line"/>
      <point x="184" y="245" type="line"/>
      <point x="184" y="716" type="line"/>
      <point x="48" y="716" type="line"/>
    </contour>
  </outline>
</glyph>
<glyph name="l" format="2">
  <advance width="232"/>
  <unicode hex="006C"/>
  <anchor x="116" y="700" name="top"/>
  <anchor x="116" y="16" name="bottom"/>
  <anchor x="330" y="700" name="caron.vert"/>
  <outline>
    <contour>
      <point x="48" y="0" type="line"/>
      <point x="184" y="0" type="line"/>
      <point x="184" y="716" type="line"/>
      <point x="48" y="716" type="line"/>
    </contour>
  </outline>
</glyph>
<glyph name="m" format="2">
  <advance width="808"/>
  <unicode hex="006D"/>
  <outline>
    <contour>
      <point x="48" y="0" type="line"/>
      <point x="184" y="0" type="line"/>
      <point x="184" y="304" type="line"/>
      <point x="207" y="338"/>
      <point x="234" y="356"/>
      <point x="270" y="356" type="curve" smooth="yes"/>
      <point x="314" y="356"/>
      <point x="337" y="329"/>
      <point x="337" y="276" type="curve" smooth="yes"/>
      <point x="337" y="0" type="line"/>
      <point x="473" y="0" type="line"/>
      <point x="473" y="314" type="line"/>
      <point x="496" y="342"/>
      <point x="525" y="356"/>
      <point x="559" y="356" type="curve" smooth="yes"/>
      <point x="599" y="356"/>
      <point x="626" y="329"/>
      <point x="626" y="276" type="curve" smooth="yes"/>
      <point x="626" y="0" type="line"/>
      <point x="762" y="0" type="line"/>
      <point x="762" y="301" type="line" smooth="yes"/>
      <point x="762" y="417"/>
      <point x="699" y="480"/>
      <point x="606" y="480" type="curve" smooth="yes"/>
      <point x="550" y="480"/>
      <point x="501" y="460"/>
      <point x="457" y="398" type="curve"/>
      <point x="433" y="449"/>
      <point x="386" y="480"/>
      <point x="321" y="480" type="curve" smooth="yes"/>
      <point x="261" y="480"/>
      <point x="219" y="457"/>
      <point x="184" y="408" type="curve"/>
      <point x="184" y="470" type="line"/>
      <point x="48" y="470" type="line"/>
    </contour>
  </outline>
</glyph>
<glyph name="n" format="2">
  <advance width="521"/>
  <unicode hex="006E"/>
  <anchor x="262" y="454" name="top"/>
  <anchor x="261" y="16" name="bottom"/>
  <outline>
    <contour>
      <point x="48" y="0" type="line"/>
      <point x="184" y="0" type="line"/>
      <point x="184" y="304" type="line"/>
      <point x="208" y="338"/>
      <point x="237" y="356"/>
      <point x="272" y="356" type="curve" smooth="yes"/>
      <point x="316" y="356"/>
      <point x="339" y="329"/>
      <point x="339" y="276" type="curve" smooth="yes"/>
      <point x="339" y="0" type="line"/>
      <point x="475" y="0" type="line"/>
      <point x="475" y="301" type="line" smooth="yes"/>
      <point x="475" y="417"/>
      <point x="415" y="480"/>
      <point x="319" y="480" type="curve" smooth="yes"/>
      <point x="264" y="480"/>
      <point x="218" y="456"/>
      <point x="184" y="408" type="curve"/>
      <point x="184" y="470" type="line"/>
      <point x="48" y="470" type="line"/>
    </contour>
  </outline>
</glyph>
<glyph name="o" format="2">
  <advance width="548"/>
  <unicode hex="006F"/>
  <anchor x="274" y="454" name="top"/>
  <outline>
    <contour>
      <point x="274" y="-12" type="curve" smooth="yes"/>
      <point x="420" y="-12"/>
      <point x="518" y="87"/>
      <point x="518" y="236" type="curve" smooth="yes"/>
      <point x="518" y="384"/>
      <point x="420" y="482"/>
      <point x="274" y="482" type="curve" smooth="yes"/>
      <point x="128" y="482"/>
      <point x="30" y="383"/>
      <point x="30" y="234" type="curve" smooth="yes"/>
      <point x="30" y="86"/>
      <point x="128" y="-12"/>
    </contour>
    <contour>
      <point x="274" y="112" type="curve" smooth="yes"/>
      <point x="210" y="112"/>
      <point x="168" y="162"/>
      <point x="168" y="236" type="curve" smooth="yes"/>
      <point x="168" y="309"/>
      <point x="210" y="358"/>
      <point x="274" y="358" type="curve" smooth="yes"/>
      <point x="338" y="358"/>
      <point x="380" y="308"/>
      <point x="380" y="234" type="curve" smooth="yes"/>
      <point x="380" y="161"/>
      <point x="338" y="112"/>
    </contour>
  </outline>
</glyph>
<glyph name="p" format="2">
  <advance width="527"/>
  <unicode hex="0070"/>
  <outline>
    <contour>
      <point x="48" y="-204" type="line"/>
      <point x="184" y="-204" type="line"/>
      <point x="184" y="-1" type="line"/>
      <point x="211" y="-6"/>
      <point x="243" y="-10"/>
      <point x="265" y="-10" type="curve" smooth="yes"/>
      <point x="407" y="-10"/>
      <point x="497" y="90"/>
      <point x="497" y="249" type="curve" smooth="yes"/>
      <point x="497" y="384"/>
      <point x="424" y="480"/>
      <point x="314" y="480" type="curve" smooth="yes"/>
      <point x="257" y="480"/>
      <point x="212" y="461"/>
      <point x="184" y="418" type="curve"/>
      <point x="184" y="470" type="line"/>
      <point x="48" y="470" type="line"/>
    </contour>
    <contour>
      <point x="252" y="108" type="curve" smooth="yes"/>
      <point x="229" y="108"/>
      <point x="207" y="111"/>
      <point x="184" y="116" type="curve"/>
      <point x="184" y="325" type="line"/>
      <point x="204" y="346"/>
      <point x="235" y="360"/>
      <point x="266" y="360" type="curve" smooth="yes"/>
      <point x="329" y="360"/>
      <point x="361" y="311"/>
      <point x="361" y="237" type="curve" smooth="yes"/>
      <point x="361" y="157"/>
      <point x="319" y="108"/>
    </contour>
  </outline>
</glyph>
<glyph name="q" format="2">
  <advance width="530"/>
  <unicode hex="0071"/>
  <outline>
    <contour>
      <point x="344" y="-204" type="line"/>
      <point x="480" y="-204" type="line"/>
      <point x="480" y="470" type="line"/>
      <point x="420" y="470" type="line"/>
      <point x="391" y="429" type="line"/>
      <point x="361" y="461"/>
      <point x="301" y="480"/>
      <point x="256" y="480" type="curve" smooth="yes"/>
      <point x="116" y="480"/>
      <point x="30" y="383"/>
      <point x="30" y="226" type="curve" smooth="yes"/>
      <point x="30" y="83"/>
      <point x="109" y="-10"/>
      <point x="229" y="-10" type="curve" smooth="yes"/>
      <point x="273" y="-10"/>
      <point x="316" y="6"/>
      <point x="344" y="35" type="curve"/>
    </contour>
    <contour>
      <point x="263" y="111" type="curve" smooth="yes"/>
      <point x="205" y="111"/>
      <point x="167" y="160"/>
      <point x="167" y="233" type="curve" smooth="yes"/>
      <point x="167" y="313"/>
      <point x="209" y="363"/>
      <point x="276" y="363" type="curve" smooth="yes"/>
      <point x="298" y="363"/>
      <point x="324" y="357"/>
      <point x="344" y="349" type="curve"/>
      <point x="344" y="139" type="line"/>
      <point x="324" y="124"/>
      <point x="298" y="111"/>
    </contour>
  </outline>
</glyph>
<glyph name="r" format="2">
  <advance width="338"/>
  <unicode hex="0072"/>
  <anchor x="189" y="454" name="top"/>
  <anchor x="117" y="16" name="bottom"/>
  <outline>
    <contour>
      <point x="48" y="0" type="line"/>
      <point x="184" y="0" type="line"/>
      <point x="184" y="309" type="line"/>
      <point x="203" y="326"/>
      <point x="232" y="338"/>
      <point x="263" y="338" type="curve" smooth="yes"/>
      <point x="285" y="338"/>
      <point x="306" y="335"/>
      <point x="326" y="328" type="curve"/>
      <point x="326" y="476" type="line"/>
      <point x="314" y="479"/>
      <point x="302" y="480"/>
      <point x="288" y="480" type="curve" smooth="yes"/>
      <point x="246" y="480"/>
      <point x="209" y="454"/>
      <point x="184" y="400" type="curve"/>
      <point x="184" y="470" type="line"/>
      <point x="48" y="470" type="line"/>
    </contour>
  </outline>
</glyph>
<glyph name="s" format="2">
  <advance width="403"/>
  <unicode hex="0073"/>
  <anchor x="202" y="454" name="top"/>
  <anchor x="203" y="16" name="bottom"/>
  <outline>
    <contour>
      <point x="184" y="-10" type="curve" smooth="yes"/>
      <point x="310" y="-10"/>
      <point x="373" y="50"/>
      <point x="373" y="146" type="curve" smooth="yes"/>
      <point x="373" y="216"/>
      <point x="334" y="259"/>
      <point x="235" y="294" type="curve" smooth="yes"/>
      <point x="221" y="299" type="line" smooth="yes"/>
      <point x="177" y="315"/>
      <point x="165" y="324"/>
      <point x="165" y="342" type="curve" smooth="yes"/>
      <point x="165" y="361"/>
      <point x="183" y="371"/>
      <point x="216" y="371" type="curve" smooth="yes"/>
      <point x="258" y="371"/>
      <point x="310" y="358"/>
      <point x="349" y="338" type="curve"/>
      <point x="349" y="456" type="line"/>
      <point x="305" y="469"/>
      <point x="248" y="480"/>
      <point x="204" y="480" type="curve" smooth="yes"/>
      <point x="87" y="480"/>
      <point x="30" y="425"/>
      <point x="30" y="333" type="curve" smooth="yes"/>
      <point x="30" y="256"/>
      <point x="71" y="213"/>
      <point x="172" y="177" type="curve" smooth="yes"/>
      <point x="186" y="172" type="line" smooth="yes"/>
      <point x="227" y="157"/>
      <point x="238" y="147"/>
      <point x="238" y="130" type="curve" smooth="yes"/>
      <point x="238" y="109"/>
      <point x="217" y="99"/>
      <point x="178" y="99" type="curve" smooth="yes"/>
      <point x="133" y="99"/>
      <point x="78" y="113"/>
      <point x="37" y="136" type="curve"/>
      <point x="37" y="18" type="line"/>
      <point x="80" y="2"/>
      <point x="138" y="-10"/>
    </contour>
  </outline>
</glyph>
<glyph name="t" format="2">
  <advance width="332"/>
  <unicode hex="0074"/>
  <anchor x="158" y="438" name="top"/>
  <anchor x="200" y="8" name="bottom"/>
  <anchor x="379" y="700" name="caron.vert"/>
  <outline>
    <contour>
      <point x="201" y="-10" type="curve" smooth="yes"/>
      <point x="231" y="-10"/>
      <point x="269" y="-5"/>
      <point x="298" y="7" type="curve"/>
      <point x="298" y="124" type="line"/>
      <point x="283" y="117"/>
      <point x="271" y="114"/>
      <point x="256" y="114" type="curve" smooth="yes"/>
      <point x="232" y="114"/>
      <point x="214" y="130"/>
      <point x="214" y="159" type="curve" smooth="yes"/>
      <point x="214" y="348" type="line"/>
      <point x="298" y="348" type="line"/>
      <point x="298" y="470" type="line"/>
      <point x="214" y="470" type="line"/>
      <point x="214" y="593" type="line"/>
      <point x="78" y="593" type="line"/>
      <point x="78" y="470" type="line"/>
      <point x="18" y="470" type="line"/>
      <point x="18" y="348" type="line"/>
      <point x="78" y="348" type="line"/>
      <point x="78" y="116" type="line" smooth="yes"/>
      <point x="78" y="34"/>
      <point x="122" y="-10"/>
    </contour>
  </outline>
</glyph>
<glyph name="u" format="2">
  <advance width="521"/>
  <unicode hex="0075"/>
  <anchor x="260" y="454" name="top"/>
  <anchor x="469" y="16" name="ogonek"/>
  <outline>
    <contour>
      <point x="200" y="-11" type="curve" smooth="yes"/>
      <point x="260" y="-11"/>
      <point x="302" y="14"/>
      <point x="337" y="62" type="curve"/>
      <point x="347" y="0" type="line"/>
      <point x="473" y="0" type="line"/>
      <point x="473" y="470" type="line"/>
      <point x="337" y="470" type="line"/>
      <point x="337" y="162" type="line"/>
      <point x="316" y="132"/>
      <point x="288" y="113"/>
      <point x="252" y="113" type="curve" smooth="yes"/>
      <point x="210" y="113"/>
      <point x="182" y="145"/>
      <point x="182" y="193" type="curve" smooth="yes"/>
      <point x="182" y="470" type="line"/>
      <point x="46" y="470" type="line"/>
      <point x="46" y="169" type="line" smooth="yes"/>
      <point x="46" y="57"/>
      <point x="106" y="-11"/>
    </contour>
  </outline>
</glyph>
<glyph name="v" format="2">
  <advance width="503"/>
  <unicode hex="0076"/>
  <outline>
    <contour>
      <point x="172" y="0" type="line"/>
      <point x="331" y="0" type="line"/>
      <point x="493" y="470" type="line"/>
      <point x="355" y="470" type="line"/>
      <point x="284" y="238" type="line"/>
      <point x="242" y="95" type="line"/>
      <point x="266" y="95" type="line"/>
      <point x="226" y="238" type="line"/>
      <point x="155" y="470" type="line"/>
      <point x="10" y="470" type="line"/>
    </contour>
  </outline>
</glyph>
<glyph name="w" format="2">
  <advance width="777"/>
  <unicode hex="0077"/>
  <anchor x="389" y="454" name="top"/>
  <outline>
    <contour>
      <point x="148" y="0" type="line"/>
      <point x="314" y="0" type="line"/>
      <point x="363" y="193" type="line"/>
      <point x="424" y="450" type="line"/>
      <point x="359" y="450" type="line"/>
      <point x="416" y="193" type="line"/>
      <point x="465" y="0" type="line"/>
      <point x="629" y="0" type="line"/>
      <point x="767" y="470" type="line"/>
      <point x="639" y="470" type="line"/>
      <point x="575" y="238" type="line"/>
      <point x="525" y="21" type="line"/>
      <point x="574" y="21" type="line"/>
      <point x="526" y="238" type="line"/>
      <point x="466" y="470" type="line"/>
      <point x="325" y="470" type="line"/>
      <point x="265" y="238" type="line"/>
      <point x="217" y="21" type="line"/>
      <point x="264" y="21" type="line"/>
      <point x="214" y="238" type="line"/>
      <point x="150" y="470" type="line"/>
      <point x="10" y="470" type="line"/>
    </contour>
  </outline>
</glyph>
<glyph name="x" format="2">
  <advance width="498"/>
  <unicode hex="0078"/>
  <outline>
    <contour>
      <point x="10" y="0" type="line"/>
      <point x="161" y="0" type="line"/>
      <point x="220" y="91" type="line"/>
      <point x="268" y="173" type="line"/>
      <point x="310" y="218" type="line"/>
      <point x="478" y="470" type="line"/>
      <point x="327" y="470" type="line"/>
      <point x="274" y="388" type="line"/>
      <point x="236" y="321" type="line"/>
      <point x="202" y="287" type="line"/>
    </contour>
    <contour>
      <point x="332" y="0" type="line"/>
      <point x="488" y="0" type="line"/>
      <point x="300" y="281" type="line"/>
      <point x="260" y="321" type="line"/>
      <point x="222" y="388" type="line"/>
      <point x="171" y="470" type="line"/>
      <point x="15" y="470" type="line"/>
      <point x="190" y="207" type="line"/>
      <point x="227" y="173" type="line"/>
      <point x="275" y="91" type="line"/>
    </contour>
  </outline>
</glyph>
<glyph name="y" format="2">
  <advance width="503"/>
  <unicode hex="0079"/>
  <anchor x="251" y="454" name="top"/>
  <outline>
    <contour>
      <point x="12" y="-204" type="line" smooth="yes"/>
      <point x="200" y="-204"/>
      <point x="278" y="-152"/>
      <point x="341" y="30" type="curve" smooth="yes"/>
      <point x="493" y="470" type="line"/>
      <point x="355" y="470" type="line"/>
      <point x="284" y="238" type="line"/>
      <point x="242" y="95" type="line"/>
      <point x="266" y="95" type="line"/>
      <point x="226" y="238" type="line"/>
      <point x="155" y="470" type="line"/>
      <point x="10" y="470" type="line"/>
      <point x="168" y="14" type="line"/>
      <point x="188" y="-44" type="line"/>
      <point x="195" y="21" type="line"/>
      <point x="171" y="-55"/>
      <point x="122" y="-80"/>
      <point x="12" y="-80" type="curve" smooth="yes"/>
      <point x="4" y="-80" type="line"/>
      <point x="4" y="-204" type="line"/>
    </contour>
  </outline>
</glyph>
<glyph name="z" format="2">
  <advance width="450"/>
  <unicode hex="007A"/>
  <anchor x="225" y="454" name="top"/>
  <outline>
    <contour>
      <point x="35" y="0" type="line"/>
      <point x="415" y="0" type="line"/>
      <point x="415" y="122" type="line"/>
      <point x="151" y="122" type="line"/>
      <point x="172" y="71" type="line"/>
      <point x="256" y="175" type="line"/>
      <point x="410" y="371" type="line"/>
      <point x="410" y="470" type="line"/>
      <point x="39" y="470" type="line"/>
      <point x="39" y="348" type="line"/>
      <point x="332" y="348" type="line"/>
      <point x="283" y="413" type="line"/>
      <point x="188" y="295" type="line"/>
      <point x="35" y="99" type="line"/>
    </contour>
  </outline>
</glyph>
<glyph name="braceleft" format="2">
  <advance width="485"/>
  <unicode hex="007B"/>
  <outline>
    <contour>
      <point x="430" y="-220" type="curve" smooth="yes"/>
      <point x="445" y="-220" type="line"/>
      <point x="445" y="-100" type="line"/>
      <point x="429" y="-100" type="line" smooth="yes"/>
      <point x="346" y="-100"/>
      <point x="311" y="-65"/>
      <point x="317" y="7" type="curve" smooth="yes"/>
      <point x="324" y="88" type="line" smooth="yes"/>
      <point x="331" y="171"/>
      <point x="278" y="223"/>
      <point x="199" y="248" type="curve"/>
      <point x="199" y="249" type="line"/>
      <point x="279" y="270"/>
      <point x="332" y="321"/>
      <point x="324" y="408" type="curve" smooth="yes"/>
      <point x="317" y="489" type="line" smooth="yes"/>
      <point x="311" y="561"/>
      <point x="346" y="596"/>
      <point x="429" y="596" type="curve" smooth="yes"/>
      <point x="445" y="596" type="line"/>
      <point x="445" y="716" type="line"/>
      <point x="430" y="716" type="line" smooth="yes"/>
      <point x="257" y="716"/>
      <point x="165" y="649"/>
      <point x="176" y="512" type="curve" smooth="yes"/>
      <point x="184" y="408" type="line" smooth="yes"/>
      <point x="188" y="351"/>
      <point x="143" y="319"/>
      <point x="56" y="305" type="curve"/>
      <point x="56" y="191" type="line"/>
      <point x="143" y="177"/>
      <point x="188" y="145"/>
      <point x="184" y="88" type="curve" smooth="yes"/>
      <point x="176" y="-16" type="line" smooth="yes"/>
      <point x="165" y="-153"/>
      <point x="257" y="-220"/>
    </contour>
  </outline>
</glyph>
<glyph name="braceright" format="2">
  <advance width="485"/>
  <unicode hex="007D"/>
  <outline>
    <contour>
      <point x="40" y="-220" type="line"/>
      <point x="55" y="-220" type="line" smooth="yes"/>
      <point x="228" y="-220"/>
      <point x="320" y="-153"/>
      <point x="309" y="-16" type="curve" smooth="yes"/>
      <point x="301" y="88" type="line" smooth="yes"/>
      <point x="297" y="145"/>
      <point x="342" y="177"/>
      <point x="429" y="191" type="curve"/>
      <point x="429" y="305" type="line"/>
      <point x="342" y="319"/>
      <point x="297" y="351"/>
      <point x="301" y="408" type="curve" smooth="yes"/>
      <point x="309" y="512" type="line" smooth="yes"/>
      <point x="320" y="649"/>
      <point x="228" y="716"/>
      <point x="55" y="716" type="curve" smooth="yes"/>
      <point x="40" y="716" type="line"/>
      <point x="40" y="596" type="line"/>
      <point x="56" y="596" type="line" smooth="yes"/>
      <point x="139" y="596"/>
      <point x="174" y="561"/>
      <point x="168" y="489" type="curve" smooth="yes"/>
      <point x="161" y="408" type="line" smooth="yes"/>
      <point x="154" y="325"/>
      <point x="207" y="273"/>
      <point x="286" y="248" type="curve"/>
      <point x="286" y="247" type="line"/>
      <point x="206" y="226"/>
      <point x="153" y="175"/>
      <point x="161" y="88" type="curve" smooth="yes"/>
      <point x="168" y="7" type="line" smooth="yes"/>
      <point x="174" y="-65"/>
      <point x="139" y="-100"/>
      <point x="56" y="-100" type="curve" smooth="yes"/>
      <point x="40" y="-100" type="line"/>
    </contour>
  </outline>
</glyph>
<glyph name="sterling" format="2">
  <advance width="538"/>
  <unicode hex="00A3"/>
  <outline>
    <contour>
      <point x="59" y="0" type="line"/>
      <point x="498" y="0" type="line"/>
      <point x="498" y="132" type="line"/>
      <point x="85" y="132" type="line"/>
      <point x="167" y="95" type="line"/>
      <point x="254" y="143"/>
      <point x="285" y="221"/>
      <point x="265" y="309" type="curve" smooth="yes"/>
      <point x="242" y="410" type="line" smooth="yes"/>
      <point x="220" y="507"/>
      <point x="259" y="553"/>
      <point x="339" y="553" type="curve" smooth="yes"/>
      <point x="398" y="553"/>
      <point x="449" y="537"/>
      <point x="498" y="503" type="curve"/>
      <point x="498" y="633" type="line"/>
      <point x="441" y="661"/>
      <point x="385" y="674"/>
      <point x="323" y="674" type="curve" smooth="yes"/>
      <point x="131" y="674"/>
      <point x="66" y="571"/>
      <point x="103" y="407" type="curve" smooth="yes"/>
      <point x="126" y="306" type="line" smooth="yes"/>
      <point x="144" y="227"/>
      <point x="116" y="168"/>
      <point x="59" y="135" type="curve"/>
    </contour>
    <contour>
      <point x="50" y="272" type="line"/>
      <point x="367" y="272" type="line"/>
      <point x="367" y="396" type="line"/>
      <point x="50" y="396" type="line"/>
    </contour>
  </outline>
</glyph>
<glyph name="currency" format="2">
  <advance width="681"/>
  <unicode hex="00A4"/>
  <outline>
    <contour>
      <point x="139" y="22" type="line"/>
      <point x="257" y="140" type="line"/>
      <point x="283" y="130"/>
      <point x="311" y="124"/>
      <point x="341" y="124" type="curve" smooth="yes"/>
      <point x="370" y="124"/>
      <point x="398" y="129"/>
      <point x="423" y="140" type="curve"/>
      <point x="542" y="21" type="line"/>
      <point x="639" y="118" type="line"/>
      <point x="524" y="233" type="line"/>
      <point x="537" y="260"/>
      <point x="544" y="292"/>
      <point x="544" y="327" type="curve" smooth="yes"/>
      <point x="544" y="358"/>
      <point x="538" y="386"/>
      <point x="528" y="411" type="curve"/>
      <point x="646" y="529" type="line"/>
      <point x="549" y="626" type="line"/>
      <point x="433" y="510" type="line"/>
      <point x="406" y="523"/>
      <point x="374" y="530"/>
      <point x="341" y="530" type="curve" smooth="yes"/>
      <point x="308" y="530"/>
      <point x="276" y="523"/>
      <point x="248" y="510" type="curve"/>
      <point x="132" y="626" type="line"/>
      <point x="35" y="529" type="line"/>
      <point x="154" y="410" type="line"/>
      <point x="144" y="386"/>
      <point x="138" y="358"/>
      <point x="138" y="327" type="curve" smooth="yes"/>
      <point x="138" y="293"/>
      <point x="145" y="262"/>
      <point x="157" y="235" type="curve"/>
      <point x="42" y="120" type="line"/>
    </contour>
    <contour>
      <point x="341" y="248" type="curve" smooth="yes"/>
      <point x="293" y="248"/>
      <point x="262" y="283"/>
      <point x="262" y="327" type="curve" smooth="yes"/>
      <point x="262" y="371"/>
      <point x="293" y="406"/>
      <point x="341" y="406" type="curve" smooth="yes"/>
      <point x="389" y="406"/>
      <point x="420" y="371"/>
      <point x="420" y="327" type="curve" smooth="yes"/>
      <point x="420" y="283"/>
      <point x="389" y="248"/>
    </contour>
  </outline>
</glyph>
<glyph name="section" format="2">
  <advance width="455"/>
  <unicode hex="00A7"/>
  <outline>
    <contour>
      <point x="204" y="-12" type="curve" smooth="yes"/>
      <point x="326" y="-12"/>
      <point x="387" y="53"/>
      <point x="387" y="136" type="curve" smooth="yes"/>
      <point x="387" y="218"/>
      <point x="330" y="268"/>
      <point x="250" y="288" type="curve" smooth="yes"/>
      <point x="238" y="291" type="line" smooth="yes"/>
      <point x="195" y="302"/>
      <point x="177" y="321"/>
      <point x="177" y="344" type="curve" smooth="yes"/>
      <point x="177" y="367"/>
      <point x="194" y="395"/>
      <point x="230" y="395" type="curve"/>
      <point x="198" y="462" type="line"/>
      <point x="117" y="448"/>
      <point x="44" y="394"/>
      <point x="44" y="312" type="curve" smooth="yes"/>
      <point x="44" y="249"/>
      <point x="81" y="196"/>
      <point x="171" y="177" type="curve" smooth="yes"/>
      <point x="185" y="174" type="line" smooth="yes"/>
      <point x="230" y="164"/>
      <point x="251" y="155"/>
      <point x="251" y="131" type="curve" smooth="yes"/>
      <point x="251" y="106"/>
      <point x="232" y="98"/>
      <point x="192" y="98" type="curve" smooth="yes"/>
      <point x="147" y="98"/>
      <point x="92" y="112"/>
      <point x="51" y="135" type="curve"/>
      <point x="51" y="16" type="line"/>
      <point x="96" y="-1"/>
      <point x="156" y="-12"/>
    </contour>
    <contour>
      <point x="411" y="355" type="curve" smooth="yes"/>
      <point x="411" y="408"/>
      <point x="373" y="466"/>
      <point x="279" y="486" type="curve" smooth="yes"/>
      <point x="265" y="489" type="line" smooth="yes"/>
      <point x="224" y="498"/>
      <point x="204" y="507"/>
      <point x="204" y="530" type="curve" smooth="yes"/>
      <point x="204" y="551"/>
      <point x="220" y="560"/>
      <point x="254" y="560" type="curve" smooth="yes"/>
      <point x="296" y="560"/>
      <point x="348" y="547"/>
      <point x="387" y="527" type="curve"/>
      <point x="387" y="645" type="line"/>
      <point x="341" y="660"/>
      <point x="282" y="670"/>
      <point x="236" y="670" type="curve" smooth="yes"/>
      <point x="123" y="670"/>
      <point x="68" y="612"/>
      <point x="68" y="530" type="curve" smooth="yes"/>
      <point x="68" y="457"/>
      <point x="125" y="400"/>
      <point x="199" y="383" type="curve" smooth="yes"/>
      <point x="212" y="380" type="line" smooth="yes"/>
      <point x="260" y="369"/>
      <point x="281" y="349"/>
      <point x="281" y="324" type="curve" smooth="yes"/>
      <point x="281" y="295"/>
      <point x="264" y="274"/>
      <point x="222" y="274" type="curve"/>
      <point x="254" y="207" type="line"/>
      <point x="338" y="224"/>
      <point x="411" y="246"/>
    </contour>
  </outline>
</glyph>
<glyph name="copyright" format="2">
  <advance width="723"/>
  <unicode hex="00A9"/>
  <outline>
    <contour>
      <point x="361" y="80" type="curve" smooth="yes"/>
      <point x="551" y="80"/>
      <point x="683" y="229"/>
      <point x="683" y="402" type="curve" smooth="yes"/>
      <point x="683" y="576"/>
      <point x="551" y="724"/>
      <point x="361" y="724" type="curve" smooth="yes"/>
      <point x="168" y="724"/>
      <point x="40" y="576"/>
      <point x="40" y="402" type="curve" smooth="yes"/>
      <point x="40" y="230"/>
      <point x="168" y="80"/>
    </contour>
    <contour>
      <point x="361" y="152" type="curve" smooth="yes"/>
      <point x="226" y="152"/>
      <point x="112" y="253"/>
      <point x="112" y="402" type="curve" smooth="yes"/>
      <point x="112" y="552"/>
      <point x="226" y="652"/>
      <point x="361" y="652" type="curve" smooth="yes"/>
      <point x="489" y="652"/>
      <point x="611" y="553"/>
      <point x="611" y="402" type="curve" smooth="yes"/>
      <point x="611" y="254"/>
      <point x="489" y="152"/>
    </contour>
    <contour>
      <point x="367" y="221" type="curve" smooth="yes"/>
      <point x="398" y="221"/>
      <point x="440" y="232"/>
      <point x="470" y="248" type="curve"/>
      <point x="470" y="327" type="line"/>
      <point x="442" y="309"/>
      <point x="401" y="297"/>
      <point x="367" y="297" type="curve" smooth="yes"/>
      <point x="305" y="297"/>
      <point x="263" y="346"/>
      <point x="263" y="403" type="curve" smooth="yes"/>
      <point x="263" y="459"/>
      <point x="305" y="507"/>
      <point x="367" y="507" type="curve" smooth="yes"/>
      <point x="399" y="507"/>
      <point x="438" y="496"/>
      <point x="466" y="479" type="curve"/>
      <point x="466" y="557" type="line"/>
      <point x="438" y="573"/>
      <point x="399" y="583"/>
      <point x="367" y="583" type="curve" smooth="yes"/>
      <point x="267" y="583"/>
      <point x="181" y="511"/>
      <point x="181" y="403" type="curve" smooth="yes"/>
      <point x="181" y="295"/>
      <point x="267" y="221"/>
    </contour>
  </outline>
</glyph>
<glyph name="guillemotleft" format="2">
  <advance width="639"/>
  <unicode hex="00AB"/>
  <outline>
    <contour>
      <point x="195" y="63" type="line"/>
      <point x="355" y="63" type="line"/>
      <point x="200" y="226" type="line" smooth="yes"/>
      <point x="355" y="390" type="line"/>
      <point x="195" y="390" type="line"/>
      <point x="40" y="226" type="line"/>
    </contour>
    <contour>
      <point x="439" y="63" type="line"/>
      <point x="599" y="63" type="line"/>
      <point x="444" y="226" type="line" smooth="yes"/>
      <point x="599" y="390" type="line"/>
      <point x="439" y="390" type="line"/>
      <point x="284" y="226" type="line"/>
    </contour>
  </outline>
</glyph>
<glyph name="registered" format="2">
  <advance width="723"/>
  <unicode hex="00AE"/>
  <outline>
    <contour>
      <point x="361" y="80" type="curve" smooth="yes"/>
      <point x="551" y="80"/>
      <point x="683" y="229"/>
      <point x="683" y="402" type="curve" smooth="yes"/>
      <point x="683" y="576"/>
      <point x="551" y="724"/>
      <point x="361" y="724" type="curve" smooth="yes"/>
      <point x="168" y="724"/>
      <point x="40" y="576"/>
      <point x="40" y="402" type="curve" smooth="yes"/>
      <point x="40" y="230"/>
      <point x="168" y="80"/>
    </contour>
    <contour>
      <point x="361" y="152" type="curve" smooth="yes"/>
      <point x="226" y="152"/>
      <point x="112" y="253"/>
      <point x="112" y="402" type="curve" smooth="yes"/>
      <point x="112" y="552"/>
      <point x="226" y="652"/>
      <point x="361" y="652" type="curve" smooth="yes"/>
      <point x="489" y="652"/>
      <point x="611" y="553"/>
      <point x="611" y="402" type="curve" smooth="yes"/>
      <point x="611" y="254"/>
      <point x="489" y="152"/>
    </contour>
    <contour>
      <point x="244" y="235" type="line"/>
      <point x="324" y="235" type="line"/>
      <point x="324" y="365" type="line"/>
      <point x="347" y="365" type="line" smooth="yes"/>
      <point x="370" y="365"/>
      <point x="390" y="353"/>
      <point x="398" y="323" type="curve" smooth="yes"/>
      <point x="420" y="235" type="line"/>
      <point x="506" y="235" type="line"/>
      <point x="472" y="351" type="line" smooth="yes"/>
      <point x="463" y="381"/>
      <point x="431" y="404"/>
      <point x="390" y="406" type="curve"/>
      <point x="390" y="401" type="line"/>
      <point x="445" y="406"/>
      <point x="476" y="441"/>
      <point x="476" y="487" type="curve" smooth="yes"/>
      <point x="476" y="538"/>
      <point x="433" y="570"/>
      <point x="361" y="570" type="curve" smooth="yes"/>
      <point x="244" y="570" type="line"/>
    </contour>
    <contour>
      <point x="324" y="432" type="line"/>
      <point x="324" y="503" type="line"/>
      <point x="357" y="503" type="line" smooth="yes"/>
      <point x="382" y="503"/>
      <point x="396" y="491"/>
      <point x="396" y="467" type="curve" smooth="yes"/>
      <point x="396" y="444"/>
      <point x="382" y="432"/>
      <point x="357" y="432" type="curve" smooth="yes"/>
    </contour>
  </outline>
</glyph>
<glyph name="degree" format="2">
  <advance width="370"/>
  <unicode hex="00B0"/>
  <outline>
    <contour>
      <point x="185" y="449" type="curve" smooth="yes"/>
      <point x="272" y="449"/>
      <point x="326" y="512"/>
      <point x="326" y="589" type="curve" smooth="yes"/>
      <point x="326" y="667"/>
      <point x="272" y="730"/>
      <point x="185" y="730" type="curve" smooth="yes"/>
      <point x="98" y="730"/>
      <point x="44" y="667"/>
      <point x="44" y="589" type="curve" smooth="yes"/>
      <point x="44" y="512"/>
      <point x="98" y="449"/>
    </contour>
    <contour>
      <point x="185" y="536" type="curve" smooth="yes"/>
      <point x="156" y="536"/>
      <point x="132" y="556"/>
      <point x="132" y="589" type="curve" smooth="yes"/>
      <point x="132" y="622"/>
      <point x="156" y="643"/>
      <point x="185" y="643" type="curve" smooth="yes"/>
      <point x="214" y="643"/>
      <point x="238" y="622"/>
      <point x="238" y="589" type="curve" smooth="yes"/>
      <point x="238" y="556"/>
      <point x="214" y="536"/>
    </contour>
  </outline>
</glyph>
<glyph name="paragraph" format="2">
  <advance width="527"/>
  <unicode hex="00B6"/>
  <outline>
    <contour>
      <point x="138" y="0" type="line"/>
      <point x="262" y="0" type="line"/>
      <point x="262" y="540" type="line"/>
      <point x="343" y="540" type="line"/>
      <point x="343" y="0" type="line"/>
      <point x="467" y="0" type="line"/>
      <point x="467" y="658" type="line"/>
      <point x="147" y="658" type="line" smooth="yes"/>
      <point x="66" y="658"/>
      <point x="15" y="612"/>
      <point x="15" y="539" type="curve" smooth="yes"/>
      <point x="15" y="467"/>
      <point x="63" y="422"/>
      <point x="138" y="422" type="curve"/>
    </contour>
  </outline>
</glyph>
<glyph name="ordmasculine" format="2">
  <advance width="492"/>
  <unicode hex="00BA"/>
  <outline>
    <contour>
      <point x="68" y="208" type="line"/>
      <point x="428" y="208" type="line"/>
      <point x="428" y="316" type="line"/>
      <point x="68" y="316" type="line"/>
    </contour>
    <component base="o.sinf" xOffset="35" yOffset="542"/>
  </outline>
</glyph>
<glyph name="guillemotright" format="2">
  <advance width="639"/>
  <unicode hex="00BB"/>
  <outline>
    <contour>
      <point x="40" y="63" type="line"/>
      <point x="200" y="63" type="line"/>
      <point x="355" y="226" type="line"/>
      <point x="200" y="390" type="line"/>
      <point x="40" y="390" type="line"/>
      <point x="195" y="226" type="line" smooth="yes"/>
    </contour>
    <contour>
      <point x="284" y="63" type="line"/>
      <point x="444" y="63" type="line"/>
      <point x="599" y="226" type="line"/>
      <point x="444" y="390" type="line"/>
      <point x="284" y="390" type="line"/>
      <point x="439" y="226" type="line" smooth="yes"/>
    </contour>
  </outline>
</glyph>
<glyph name="questiondown" format="2">
  <advance width="484"/>
  <unicode hex="00BF"/>
  <outline>
    <contour>
      <point x="188" y="338" type="line"/>
      <point x="320" y="338" type="line"/>
      <point x="320" y="470" type="line"/>
      <point x="188" y="470" type="line"/>
    </contour>
    <contour>
      <point x="271" y="-246" type="curve" smooth="yes"/>
      <point x="328" y="-246"/>
      <point x="387" y="-235"/>
      <point x="444" y="-215" type="curve"/>
      <point x="444" y="-81" type="line"/>
      <point x="398" y="-108"/>
      <point x="348" y="-122"/>
      <point x="297" y="-122" type="curve" smooth="yes"/>
      <point x="226" y="-122"/>
      <point x="181" y="-92"/>
      <point x="181" y="-46" type="curve" smooth="yes"/>
      <point x="181" y="-9"/>
      <point x="196" y="21"/>
      <point x="235" y="59" type="curve" smooth="yes"/>
      <point x="295" y="118"/>
      <point x="319" y="174"/>
      <point x="319" y="254" type="curve"/>
      <point x="191" y="254" type="line"/>
      <point x="191" y="203"/>
      <point x="172" y="163"/>
      <point x="124" y="115" type="curve" smooth="yes"/>
      <point x="64" y="56"/>
      <point x="40" y="7"/>
      <point x="40" y="-59" type="curve" smooth="yes"/>
      <point x="40" y="-161"/>
      <point x="115" y="-246"/>
    </contour>
  </outline>
</glyph>
<glyph name="AE" format="2">
  <advance width="880"/>
  <unicode hex="00C6"/>
  <anchor x="474" y="642" name="top"/>
  <outline>
    <contour>
      <point x="5.0" y="0.0" type="line"/>
      <point x="152.0" y="0.0" type="line"/>
      <point x="233.0" y="160.0" type="line"/>
      <point x="201.0" y="160.0" type="line"/>
      <point x="408.0" y="160.0" type="line"/>
      <point x="408.0" y="0.0" type="line"/>
      <point x="820.0" y="0.0" type="line"/>
      <point x="820.0" y="132.0" type="line"/>
      <point x="548.0" y="132.0" type="line"/>
      <point x="548.0" y="267.0" type="line"/>
      <point x="804.0" y="267.0" type="line"/>
      <point x="804.0" y="399.0" type="line"/>
      <point x="548.0" y="399.0" type="line"/>
      <point x="548.0" y="526.0" type="line"/>
      <point x="812.0" y="526.0" type="line"/>
      <point x="812.0" y="658.0" type="line"/>
      <point x="337.0" y="658.0" type="line"/>
    </contour>
    <contour>
      <point x="299.0" y="292.0" type="line"/>
      <point x="358.0" y="408.0" type="line"/>
      <point x="428.0" y="553.0" type="line"/>
      <point x="408.0" y="553.0" type="line"/>
      <point x="408.0" y="292.0" type="line"/>
      <point x="262.0" y="292.0" type="line"/>
    </contour>
  </outline>
</glyph>
<glyph name="multiply" format="2">
  <advance width="538"/>
  <unicode hex="00D7"/>
  <guideline x="414" y="70" angle="0" name="" identifier="EBtnxtBYqz"/>
  <outline>
    <contour>
      <point x="145" y="70" type="line"/>
      <point x="269" y="194" type="line"/>
      <point x="393" y="70" type="line"/>
      <point x="483" y="160" type="line"/>
      <point x="359" y="284" type="line"/>
      <point x="483" y="408" type="line"/>
      <point x="393" y="498" type="line"/>
      <point x="269" y="374" type="line"/>
      <point x="145" y="498" type="line"/>
      <point x="55" y="407" type="line"/>
      <point x="179" y="283" type="line"/>
      <point x="55" y="160" type="line"/>
    </contour>
  </outline>
</glyph>
<glyph name="Oslash" format="2">
  <advance width="772"/>
  <unicode hex="00D8"/>
  <anchor x="391" y="658" name="top"/>
  <outline>
    <contour>
      <point x="89" y="-48" type="line"/>
      <point x="223" y="-48" type="line"/>
      <point x="686" y="706" type="line"/>
      <point x="552" y="706" type="line"/>
    </contour>
    <component base="O"/>
  </outline>
</glyph>
<glyph name="Thorn" format="2">
  <advance width="529"/>
  <unicode hex="00DE"/>
  <outline>
    <contour>
      <point x="64" y="0" type="line"/>
      <point x="204" y="0" type="line"/>
      <point x="204" y="108" type="line"/>
      <point x="242" y="108" type="line" smooth="yes"/>
      <point x="399" y="108"/>
      <point x="494" y="194"/>
      <point x="494" y="333" type="curve" smooth="yes"/>
      <point x="494" y="472"/>
      <point x="399" y="558"/>
      <point x="242" y="558" type="curve" smooth="yes"/>
      <point x="204" y="558" type="line"/>
      <point x="204" y="658" type="line"/>
      <point x="64" y="658" type="line"/>
    </contour>
    <contour>
      <point x="204" y="238" type="line"/>
      <point x="204" y="428" type="line"/>
      <point x="243" y="428" type="line" smooth="yes"/>
      <point x="310" y="428"/>
      <point x="352" y="391"/>
      <point x="352" y="333" type="curve" smooth="yes"/>
      <point x="352" y="275"/>
      <point x="310" y="238"/>
      <point x="244" y="238" type="curve" smooth="yes"/>
    </contour>
  </outline>
</glyph>
<glyph name="germandbls" format="2">
  <advance width="609"/>
  <unicode hex="00DF"/>
  <outline>
    <contour>
      <point x="55" y="0" type="line"/>
      <point x="191" y="0" type="line"/>
      <point x="191" y="463" type="line" smooth="yes"/>
      <point x="191" y="552"/>
      <point x="238" y="608"/>
      <point x="312" y="608" type="curve" smooth="yes"/>
      <point x="405" y="608"/>
      <point x="446" y="556"/>
      <point x="436" y="478" type="curve"/>
      <point x="418" y="480"/>
      <point x="409" y="480"/>
      <point x="392" y="480" type="curve" smooth="yes"/>
      <point x="306" y="480"/>
      <point x="245" y="417"/>
      <point x="245" y="331" type="curve" smooth="yes"/>
      <point x="245" y="246"/>
      <point x="292" y="198"/>
      <point x="380" y="176" type="curve" smooth="yes"/>
      <point x="388" y="174" type="line" smooth="yes"/>
      <point x="426" y="165"/>
      <point x="447" y="154"/>
      <point x="447" y="133" type="curve" smooth="yes"/>
      <point x="447" y="110"/>
      <point x="428" y="99"/>
      <point x="391" y="99" type="curve" smooth="yes"/>
      <point x="346" y="99"/>
      <point x="299" y="109"/>
      <point x="253" y="129" type="curve"/>
      <point x="253" y="11" type="line"/>
      <point x="307" y="-3"/>
      <point x="358" y="-10"/>
      <point x="402" y="-10" type="curve" smooth="yes"/>
      <point x="509" y="-10"/>
      <point x="579" y="47"/>
      <point x="579" y="152" type="curve" smooth="yes"/>
      <point x="579" y="229"/>
      <point x="530" y="276"/>
      <point x="446" y="297" type="curve" smooth="yes"/>
      <point x="438" y="299" type="line" smooth="yes"/>
      <point x="398" y="309"/>
      <point x="377" y="320"/>
      <point x="377" y="341" type="curve" smooth="yes"/>
      <point x="377" y="360"/>
      <point x="393" y="371"/>
      <point x="433" y="371" type="curve" smooth="yes"/>
      <point x="470" y="371"/>
      <point x="515" y="362"/>
      <point x="548" y="350" type="curve"/>
      <point x="555" y="387"/>
      <point x="560" y="435"/>
      <point x="560" y="476" type="curve" smooth="yes"/>
      <point x="560" y="633"/>
      <point x="456" y="726"/>
      <point x="309" y="726" type="curve" smooth="yes"/>
      <point x="159" y="726"/>
      <point x="55" y="638"/>
      <point x="55" y="455" type="curve" smooth="yes"/>
    </contour>
  </outline>
</glyph>
<glyph name="ae" format="2">
  <advance width="759"/>
  <unicode hex="00E6"/>
  <anchor x="377" y="454" name="top"/>
  <outline>
    <contour>
      <point x="190" y="-10" type="curve" smooth="yes"/>
      <point x="271" y="-10"/>
      <point x="327" y="25"/>
      <point x="366" y="94" type="curve"/>
      <point x="336" y="89" type="line"/>
      <point x="375" y="28"/>
      <point x="442" y="-10"/>
      <point x="538" y="-10" type="curve" smooth="yes"/>
      <point x="588" y="-10"/>
      <point x="659" y="3"/>
      <point x="715" y="25" type="curve"/>
      <point x="715" y="145" type="line"/>
      <point x="666" y="121"/>
      <point x="603" y="106"/>
      <point x="558" y="106" type="curve" smooth="yes"/>
      <point x="482" y="106"/>
      <point x="436" y="140"/>
      <point x="436" y="193" type="curve" smooth="yes"/>
      <point x="436" y="281" type="line" smooth="yes"/>
      <point x="436" y="332"/>
      <point x="464" y="368"/>
      <point x="514" y="368" type="curve" smooth="yes"/>
      <point x="561" y="368"/>
      <point x="593" y="338"/>
      <point x="593" y="289" type="curve"/>
      <point x="420" y="289" type="line"/>
      <point x="420" y="187" type="line"/>
      <point x="729" y="187" type="line"/>
      <point x="729" y="220" type="line" smooth="yes"/>
      <point x="729" y="395"/>
      <point x="647" y="480"/>
      <point x="516" y="480" type="curve" smooth="yes"/>
      <point x="444" y="480"/>
      <point x="382" y="450"/>
      <point x="343" y="391" type="curve"/>
      <point x="404" y="401" type="line"/>
      <point x="380" y="447"/>
      <point x="321" y="480"/>
      <point x="235" y="480" type="curve" smooth="yes"/>
      <point x="178" y="480"/>
      <point x="107" y="468"/>
      <point x="53" y="450" type="curve"/>
      <point x="53" y="334" type="line"/>
      <point x="96" y="357"/>
      <point x="154" y="370"/>
      <point x="203" y="370" type="curve" smooth="yes"/>
      <point x="267" y="370"/>
      <point x="298" y="355"/>
      <point x="298" y="320" type="curve" smooth="yes"/>
      <point x="298" y="309" type="line"/>
      <point x="213" y="294" type="line" smooth="yes"/>
      <point x="92" y="273"/>
      <point x="32" y="218"/>
      <point x="32" y="126" type="curve" smooth="yes"/>
      <point x="32" y="43"/>
      <point x="93" y="-10"/>
    </contour>
    <contour>
      <point x="226" y="100" type="curve" smooth="yes"/>
      <point x="191" y="100"/>
      <point x="169" y="116"/>
      <point x="169" y="146" type="curve" smooth="yes"/>
      <point x="169" y="175"/>
      <point x="193" y="193"/>
      <point x="231" y="200" type="curve" smooth="yes"/>
      <point x="298" y="212" type="line"/>
      <point x="298" y="150" type="line"/>
      <point x="287" y="120"/>
      <point x="259" y="100"/>
    </contour>
  </outline>
</glyph>
<glyph name="eth" format="2">
  <advance width="558"/>
  <unicode hex="00F0"/>
  <outline>
    <contour>
      <point x="279" y="-12" type="curve" smooth="yes"/>
      <point x="428" y="-12"/>
      <point x="528" y="87"/>
      <point x="528" y="278" type="curve" smooth="yes"/>
      <point x="528" y="475"/>
      <point x="424" y="662"/>
      <point x="287" y="748" type="curve"/>
      <point x="151" y="693" type="line"/>
      <point x="343" y="584"/>
      <point x="422" y="417"/>
      <point x="420" y="267" type="curve"/>
      <point x="448" y="271" type="line"/>
      <point x="439" y="424"/>
      <point x="373" y="482"/>
      <point x="265" y="482" type="curve" smooth="yes"/>
      <point x="127" y="482"/>
      <point x="30" y="384"/>
      <point x="30" y="234" type="curve" smooth="yes"/>
      <point x="30" y="80"/>
      <point x="127" y="-12"/>
    </contour>
    <contour>
      <point x="278" y="114" type="curve" smooth="yes"/>
      <point x="213" y="114"/>
      <point x="168" y="161"/>
      <point x="168" y="236" type="curve" smooth="yes"/>
      <point x="168" y="310"/>
      <point x="213" y="358"/>
      <point x="276" y="358" type="curve" smooth="yes"/>
      <point x="342" y="358"/>
      <point x="387" y="309"/>
      <point x="387" y="234" type="curve" smooth="yes"/>
      <point x="387" y="160"/>
      <point x="342" y="114"/>
    </contour>
    <contour>
      <point x="214" y="512" type="line"/>
      <point x="508" y="605" type="line"/>
      <point x="474" y="712" type="line"/>
      <point x="180" y="619" type="line"/>
    </contour>
  </outline>
</glyph>
<glyph name="thorn" format="2">
  <advance width="527"/>
  <unicode hex="00FE"/>
  <outline>
    <contour>
      <point x="48" y="-210" type="line"/>
      <point x="184" y="-210" type="line"/>
      <point x="184" y="-1" type="line"/>
      <point x="211" y="-6"/>
      <point x="243" y="-10"/>
      <point x="265" y="-10" type="curve" smooth="yes"/>
      <point x="407" y="-10"/>
      <point x="497" y="90"/>
      <point x="497" y="249" type="curve" smooth="yes"/>
      <point x="497" y="384"/>
      <point x="423" y="480"/>
      <point x="311" y="480" type="curve" smooth="yes"/>
      <point x="255" y="480"/>
      <point x="212" y="461"/>
      <point x="184" y="418" type="curve"/>
      <point x="184" y="716" type="line"/>
      <point x="48" y="716" type="line"/>
    </contour>
    <contour>
      <point x="252" y="108" type="curve" smooth="yes"/>
      <point x="229" y="108"/>
      <point x="207" y="111"/>
      <point x="184" y="116" type="curve"/>
      <point x="184" y="325" type="line"/>
      <point x="201" y="345"/>
      <point x="230" y="357"/>
      <point x="260" y="357" type="curve" smooth="yes"/>
      <point x="321" y="357"/>
      <point x="361" y="310"/>
      <point x="361" y="237" type="curve" smooth="yes"/>
      <point x="361" y="157"/>
      <point x="319" y="108"/>
    </contour>
  </outline>
</glyph>
<glyph name="dcroat" format="2">
  <advance width="534"/>
  <unicode hex="0111"/>
  <anchor x="285" y="716" name="top"/>
  <outline>
    <contour>
      <point x="295" y="526" type="line"/>
      <point x="542" y="526" type="line"/>
      <point x="542" y="638" type="line"/>
      <point x="295" y="638" type="line"/>
    </contour>
    <component base="d"/>
  </outline>
</glyph>
<glyph name="eogonek" format="2">
  <advance width="492"/>
  <unicode hex="0119"/>
  <outline>
    <contour>
      <point x="420" y="-210" type="curve"/>
      <point x="420" y="-107" type="line"/>
      <point x="379" y="-107"/>
      <point x="351" y="-84"/>
      <point x="351" y="-52" type="curve" smooth="yes"/>
      <point x="351" y="-23"/>
      <point x="370" y="-3"/>
      <point x="397" y="8" type="curve" smooth="yes"/>
      <point x="414" y="15"/>
      <point x="432" y="20"/>
      <point x="448" y="25" type="curve"/>
      <point x="448" y="149" type="line"/>
      <point x="393" y="119"/>
      <point x="339" y="104"/>
      <point x="291" y="104" type="curve" smooth="yes"/>
      <point x="215" y="104"/>
      <point x="169" y="139"/>
      <point x="169" y="193" type="curve" smooth="yes"/>
      <point x="169" y="281" type="line" smooth="yes"/>
      <point x="169" y="333"/>
      <point x="199" y="370"/>
      <point x="252" y="370" type="curve" smooth="yes"/>
      <point x="299" y="370"/>
      <point x="326" y="337"/>
      <point x="326" y="287" type="curve"/>
      <point x="147" y="287" type="line"/>
      <point x="147" y="187" type="line"/>
      <point x="462" y="187" type="line"/>
      <point x="462" y="220" type="line" smooth="yes"/>
      <point x="462" y="395"/>
      <point x="383" y="480"/>
      <point x="253" y="480" type="curve" smooth="yes"/>
      <point x="115" y="480"/>
      <point x="30" y="383"/>
      <point x="30" y="236" type="curve" smooth="yes"/>
      <point x="30" y="83"/>
      <point x="121" y="-10"/>
      <point x="271" y="-10" type="curve" smooth="yes"/>
      <point x="312" y="-10"/>
      <point x="343" y="-5"/>
      <point x="386" y="5" type="curve"/>
      <point x="375" y="60" type="line"/>
      <point x="287" y="50"/>
      <point x="231" y="-4"/>
      <point x="231" y="-79" type="curve" smooth="yes"/>
      <point x="231" y="-158"/>
      <point x="306" y="-210"/>
    </contour>
  </outline>
</glyph>
<glyph name="Hbar" format="2">
  <advance width="746"/>
  <unicode hex="0126"/>
  <outline>
    <contour>
      <point x="88" y="0" type="line"/>
      <point x="228" y="0" type="line"/>
      <point x="228" y="259" type="line"/>
      <point x="516" y="259" type="line"/>
      <point x="516" y="0" type="line"/>
      <point x="656" y="0" type="line"/>
      <point x="656" y="658" type="line"/>
      <point x="516" y="658" type="line"/>
      <point x="516" y="391" type="line"/>
      <point x="228" y="391" type="line"/>
      <point x="228" y="658" type="line"/>
      <point x="88" y="658" type="line"/>
    </contour>
    <contour>
      <point x="36" y="461" type="line"/>
      <point x="710" y="461" type="line"/>
      <point x="710" y="581" type="line"/>
      <point x="36" y="581" type="line"/>
    </contour>
  </outline>
</glyph>
<glyph name="Lslash" format="2">
  <advance width="502"/>
  <unicode hex="0141"/>
  <anchor x="250" y="642" name="top"/>
  <outline>
    <contour>
      <point x="10" y="274" type="line"/>
      <point x="292" y="338" type="line"/>
      <point x="292" y="461" type="line"/>
      <point x="10" y="397" type="line"/>
    </contour>
    <component base="L"/>
  </outline>
</glyph>
<glyph name="Eng" format="2">
  <advance width="715"/>
  <unicode hex="014A"/>
  <outline>
    <contour>
      <point x="429" y="-210" type="line" smooth="yes"/>
      <point x="566" y="-210"/>
      <point x="651" y="-133"/>
      <point x="651" y="-3" type="curve" smooth="yes"/>
      <point x="651" y="81" type="line"/>
      <point x="521" y="81" type="line"/>
      <point x="521" y="-3" type="line" smooth="yes"/>
      <point x="521" y="-57"/>
      <point x="485" y="-86"/>
      <point x="429" y="-86" type="curve" smooth="yes"/>
      <point x="421" y="-86" type="line"/>
      <point x="421" y="-210" type="line"/>
    </contour>
    <contour>
      <point x="64" y="0" type="line"/>
      <point x="198" y="0" type="line"/>
      <point x="198" y="370" type="line"/>
      <point x="194" y="556" type="line"/>
      <point x="111" y="556" type="line"/>
      <point x="242" y="368" type="line"/>
      <point x="521" y="0" type="line"/>
      <point x="651" y="0" type="line"/>
      <point x="651" y="658" type="line"/>
      <point x="517" y="658" type="line"/>
      <point x="517" y="296" type="line"/>
      <point x="521" y="102" type="line"/>
      <point x="607" y="102" type="line"/>
      <point x="471" y="296" type="line"/>
      <point x="194" y="658" type="line"/>
      <point x="64" y="658" type="line"/>
    </contour>
  </outline>
</glyph>
<glyph name="eng" format="2">
  <advance width="521"/>
  <unicode hex="014B"/>
  <outline>
    <contour>
      <point x="265" y="-210" type="line" smooth="yes"/>
      <point x="393" y="-210"/>
      <point x="475" y="-132"/>
      <point x="475" y="-8" type="curve" smooth="yes"/>
      <point x="475" y="301" type="line" smooth="yes"/>
      <point x="475" y="417"/>
      <point x="416" y="480"/>
      <point x="322" y="480" type="curve" smooth="yes"/>
      <point x="261" y="480"/>
      <point x="219" y="457"/>
      <point x="184" y="408" type="curve"/>
      <point x="184" y="470" type="line"/>
      <point x="48" y="470" type="line"/>
      <point x="48" y="0" type="line"/>
      <point x="184" y="0" type="line"/>
      <point x="184" y="304" type="line"/>
      <point x="204" y="332"/>
      <point x="226" y="350"/>
      <point x="262" y="350" type="curve" smooth="yes"/>
      <point x="311" y="350"/>
      <point x="339" y="320"/>
      <point x="339" y="273" type="curve" smooth="yes"/>
      <point x="339" y="-8" type="line" smooth="yes"/>
      <point x="339" y="-56"/>
      <point x="310" y="-86"/>
      <point x="265" y="-86" type="curve" smooth="yes"/>
      <point x="257" y="-86" type="line"/>
      <point x="257" y="-210" type="line"/>
    </contour>
  </outline>
</glyph>
<glyph name="OE" format="2">
  <advance width="899"/>
  <unicode hex="0152"/>
  <outline>
    <contour>
      <point x="390" y="0" type="curve" smooth="yes"/>
      <point x="839" y="0" type="line"/>
      <point x="839" y="132" type="line"/>
      <point x="568" y="132" type="line"/>
      <point x="568" y="267" type="line"/>
      <point x="823" y="267" type="line"/>
      <point x="823" y="399" type="line"/>
      <point x="568" y="399" type="line"/>
      <point x="568" y="526" type="line"/>
      <point x="831" y="526" type="line"/>
      <point x="831" y="658" type="line"/>
      <point x="393" y="658" type="line" smooth="yes"/>
      <point x="177" y="658"/>
      <point x="40" y="530"/>
      <point x="40" y="329" type="curve" smooth="yes"/>
      <point x="40" y="128"/>
      <point x="176" y="0"/>
    </contour>
    <contour>
      <point x="384" y="132" type="line" smooth="yes"/>
      <point x="261" y="132"/>
      <point x="182" y="209"/>
      <point x="182" y="329" type="curve" smooth="yes"/>
      <point x="182" y="449"/>
      <point x="262" y="526"/>
      <point x="387" y="526" type="curve" smooth="yes"/>
      <point x="427" y="526" type="line"/>
      <point x="427" y="132" type="line"/>
    </contour>
  </outline>
</glyph>
<glyph name="oe" format="2">
  <advance width="826"/>
  <unicode hex="0153"/>
  <outline>
    <contour>
      <point x="605" y="-10" type="curve" smooth="yes"/>
      <point x="662" y="-10"/>
      <point x="723" y="2"/>
      <point x="782" y="25" type="curve"/>
      <point x="782" y="149" type="line"/>
      <point x="727" y="119"/>
      <point x="673" y="104"/>
      <point x="625" y="104" type="curve" smooth="yes"/>
      <point x="549" y="104"/>
      <point x="503" y="139"/>
      <point x="503" y="193" type="curve" smooth="yes"/>
      <point x="503" y="281" type="line" smooth="yes"/>
      <point x="503" y="333"/>
      <point x="533" y="370"/>
      <point x="586" y="370" type="curve" smooth="yes"/>
      <point x="633" y="370"/>
      <point x="660" y="337"/>
      <point x="660" y="287" type="curve"/>
      <point x="481" y="287" type="line"/>
      <point x="481" y="187" type="line"/>
      <point x="796" y="187" type="line"/>
      <point x="796" y="220" type="line" smooth="yes"/>
      <point x="796" y="395"/>
      <point x="717" y="480"/>
      <point x="587" y="480" type="curve" smooth="yes"/>
      <point x="449" y="480"/>
      <point x="372" y="366"/>
      <point x="372" y="235" type="curve" smooth="yes"/>
      <point x="372" y="98"/>
      <point x="455" y="-10"/>
    </contour>
    <contour>
      <point x="270" y="-10" type="curve" smooth="yes"/>
      <point x="416" y="-10"/>
      <point x="494" y="103"/>
      <point x="494" y="236" type="curve" smooth="yes"/>
      <point x="494" y="368"/>
      <point x="416" y="480"/>
      <point x="270" y="480" type="curve" smooth="yes"/>
      <point x="124" y="480"/>
      <point x="30" y="383"/>
      <point x="30" y="234" type="curve" smooth="yes"/>
      <point x="30" y="86"/>
      <point x="124" y="-10"/>
    </contour>
    <contour>
      <point x="270" y="114" type="curve" smooth="yes"/>
      <point x="206" y="114"/>
      <point x="168" y="162"/>
      <point x="168" y="236" type="curve" smooth="yes"/>
      <point x="168" y="309"/>
      <point x="206" y="356"/>
      <point x="270" y="356" type="curve" smooth="yes"/>
      <point x="334" y="356"/>
      <point x="372" y="309"/>
      <point x="372" y="235" type="curve" smooth="yes"/>
      <point x="372" y="162"/>
      <point x="334" y="114"/>
    </contour>
  </outline>
</glyph>
<glyph name="Uogonek" format="2">
  <advance width="670"/>
  <unicode hex="0172"/>
  <outline>
    <contour>
      <point x="491" y="-220" type="curve"/>
      <point x="491" y="-112" type="line"/>
      <point x="447" y="-112"/>
      <point x="418" y="-87"/>
      <point x="418" y="-50" type="curve" smooth="yes"/>
      <point x="418" y="-21"/>
      <point x="434" y="0"/>
      <point x="459" y="10" type="curve" smooth="yes"/>
      <point x="556" y="49"/>
      <point x="614" y="138"/>
      <point x="614" y="261" type="curve" smooth="yes"/>
      <point x="614" y="658" type="line"/>
      <point x="478" y="658" type="line"/>
      <point x="478" y="261" type="line" smooth="yes"/>
      <point x="478" y="175"/>
      <point x="426" y="120"/>
      <point x="338" y="120" type="curve" smooth="yes"/>
      <point x="251" y="120"/>
      <point x="196" y="175"/>
      <point x="196" y="261" type="curve" smooth="yes"/>
      <point x="196" y="658" type="line"/>
      <point x="56" y="658" type="line"/>
      <point x="56" y="261" type="line" smooth="yes"/>
      <point x="56" y="93"/>
      <point x="162" y="-12"/>
      <point x="337" y="-12" type="curve" smooth="yes"/>
      <point x="373" y="-12"/>
      <point x="409" y="-7"/>
      <point x="443" y="5" type="curve"/>
      <point x="438" y="63" type="line"/>
      <point x="352" y="51"/>
      <point x="299" y="-4"/>
      <point x="299" y="-81" type="curve" smooth="yes"/>
      <point x="299" y="-166"/>
      <point x="376" y="-220"/>
    </contour>
  </outline>
</glyph>
<glyph name="florin" format="2">
  <advance width="494"/>
  <unicode hex="0192"/>
  <outline>
    <contour>
      <point x="129" y="346" type="line"/>
      <point x="407" y="346" type="line"/>
      <point x="407" y="470" type="line"/>
      <point x="129" y="470" type="line"/>
    </contour>
    <contour>
      <point x="88" y="-210" type="curve" smooth="yes"/>
      <point x="201" y="-210"/>
      <point x="273" y="-151"/>
      <point x="286" y="-29" type="curve" smooth="yes"/>
      <point x="345" y="534" type="line" smooth="yes"/>
      <point x="349" y="573"/>
      <point x="370" y="592"/>
      <point x="406" y="592" type="curve" smooth="yes"/>
      <point x="431" y="592"/>
      <point x="455" y="588"/>
      <point x="479" y="580" type="curve"/>
      <point x="479" y="708" type="line"/>
      <point x="453" y="713"/>
      <point x="428" y="716"/>
      <point x="402" y="716" type="curve" smooth="yes"/>
      <point x="301" y="716"/>
      <point x="225" y="657"/>
      <point x="212" y="533" type="curve" smooth="yes"/>
      <point x="153" y="-28" type="line" smooth="yes"/>
      <point x="149" y="-67"/>
      <point x="127" y="-86"/>
      <point x="93" y="-86" type="curve" smooth="yes"/>
      <point x="63" y="-86"/>
      <point x="39" y="-83"/>
      <point x="15" y="-76" type="curve"/>
      <point x="15" y="-198" type="line"/>
      <point x="39" y="-206"/>
      <point x="63" y="-210"/>
    </contour>
  </outline>
</glyph>
<glyph name="oslashacute" format="2">
  <advance width="548"/>
  <unicode hex="01FF"/>
  <anchor x="282" y="454" name="top"/>
  <outline>
    <contour>
      <point x="47" y="-48" type="line"/>
      <point x="161" y="-48" type="line"/>
      <point x="500" y="518" type="line"/>
      <point x="386" y="518" type="line"/>
    </contour>
    <component base="o"/>
    <component base="acutecmb" xOffset="282"/>
  </outline>
</glyph>
<glyph name="dotlessj" format="2">
  <advance width="232"/>
  <unicode hex="0237"/>
  <anchor x="120" y="454" name="top"/>
  <outline>
    <contour>
      <point x="-24" y="-210" type="line" smooth="yes"/>
      <point x="104" y="-210"/>
      <point x="186" y="-132"/>
      <point x="186" y="-8" type="curve" smooth="yes"/>
      <point x="186" y="470" type="line"/>
      <point x="50" y="470" type="line"/>
      <point x="50" y="-8" type="line" smooth="yes"/>
      <point x="50" y="-56"/>
      <point x="21" y="-86"/>
      <point x="-24" y="-86" type="curve" smooth="yes"/>
      <point x="-32" y="-86" type="line"/>
      <point x="-32" y="-210" type="line"/>
    </contour>
  </outline>
</glyph>
<glyph name="schwa" format="2">
  <advance width="491"/>
  <unicode hex="0259"/>
  <outline>
    <contour>
      <point x="242" y="-10" type="curve" smooth="yes"/>
      <point x="378" y="-10"/>
      <point x="461" y="86"/>
      <point x="461" y="234" type="curve" smooth="yes"/>
      <point x="461" y="387"/>
      <point x="370" y="480"/>
      <point x="220" y="480" type="curve" smooth="yes"/>
      <point x="170" y="480"/>
      <point x="99" y="468"/>
      <point x="43" y="446" type="curve"/>
      <point x="43" y="329" type="line"/>
      <point x="92" y="353"/>
      <point x="155" y="368"/>
      <point x="200" y="368" type="curve" smooth="yes"/>
      <point x="276" y="368"/>
      <point x="322" y="334"/>
      <point x="322" y="281" type="curve" smooth="yes"/>
      <point x="322" y="193" type="line" smooth="yes"/>
      <point x="322" y="142"/>
      <point x="294" y="102"/>
      <point x="245" y="102" type="curve" smooth="yes"/>
      <point x="197" y="102"/>
      <point x="166" y="137"/>
      <point x="166" y="185" type="curve"/>
      <point x="344" y="185" type="line"/>
      <point x="344" y="287" type="line"/>
      <point x="30" y="287" type="line"/>
      <point x="30" y="236" type="line" smooth="yes"/>
      <point x="30" y="89"/>
      <point x="110" y="-10"/>
    </contour>
  </outline>
</glyph>
<glyph name="gravecmb" format="2">
  <unicode hex="0300"/>
  <anchor x="0" y="454" name="_top"/>
  <anchor x="0" y="16" name="_bottom"/>
  <outline>
    <contour>
      <point x="-58" y="524" type="line"/>
      <point x="74" y="524" type="line"/>
      <point x="-25" y="674" type="line"/>
      <point x="-175" y="674" type="line"/>
    </contour>
  </outline>
</glyph>
<glyph name="tildecmb" format="2">
  <unicode hex="0303"/>
  <anchor x="0.0" y="454" name="_top"/>
  <anchor x="4" y="16" name="_bottom"/>
  <outline>
    <contour>
      <point x="-75" y="524" type="line"/>
      <point x="-75" y="546"/>
      <point x="-64" y="560"/>
      <point x="-47" y="560" type="curve" smooth="yes"/>
      <point x="-35" y="560"/>
      <point x="-22" y="554"/>
      <point x="-3" y="541" type="curve" smooth="yes"/>
      <point x="21" y="524"/>
      <point x="41" y="520"/>
      <point x="64" y="520" type="curve" smooth="yes"/>
      <point x="124" y="520"/>
      <point x="163" y="574"/>
      <point x="163" y="655" type="curve"/>
      <point x="83" y="655" type="line"/>
      <point x="83" y="633"/>
      <point x="72" y="619"/>
      <point x="55" y="619" type="curve" smooth="yes"/>
      <point x="43" y="619"/>
      <point x="32" y="626"/>
      <point x="11" y="638" type="curve" smooth="yes"/>
      <point x="-15" y="654"/>
      <point x="-33" y="659"/>
      <point x="-56" y="659" type="curve" smooth="yes"/>
      <point x="-116" y="659"/>
      <point x="-155" y="605"/>
      <point x="-155" y="524" type="curve"/>
    </contour>
  </outline>
</glyph>
<glyph name="brevecmb" format="2">
  <unicode hex="0306"/>
  <anchor x="0.0" y="454" name="_top"/>
  <anchor x="1" y="16" name="_bottom"/>
  <outline>
    <contour>
      <point x="1" y="516" type="curve" smooth="yes"/>
      <point x="84" y="516"/>
      <point x="137" y="573"/>
      <point x="137" y="663" type="curve"/>
      <point x="50" y="663" type="line"/>
      <point x="50" y="630"/>
      <point x="31" y="609"/>
      <point x="1" y="609" type="curve" smooth="yes"/>
      <point x="-28" y="609"/>
      <point x="-47" y="630"/>
      <point x="-47" y="663" type="curve"/>
      <point x="-135" y="663" type="line"/>
      <point x="-135" y="573"/>
      <point x="-82" y="516"/>
    </contour>
  </outline>
</glyph>
<glyph name="commaturnedabovecmb" format="2">
  <unicode hex="0312"/>
  <anchor x="4" y="16" name="_bottom"/>
  <anchor x="0.0" y="454" name="_top"/>
  <outline>
    <contour>
      <point x="10" y="748" type="line"/>
      <point x="-30" y="699"/>
      <point x="-55" y="638"/>
      <point x="-55" y="572" type="curve" smooth="yes"/>
      <point x="-55" y="524" type="line"/>
      <point x="65" y="524" type="line"/>
      <point x="65" y="572" type="line" smooth="yes"/>
      <point x="65" y="628"/>
      <point x="76" y="661"/>
      <point x="109" y="709" type="curve"/>
    </contour>
  </outline>
</glyph>
<glyph name="cedillacmb" format="2">
  <unicode hex="0327"/>
  <anchor x="0" y="16" name="_bottom"/>
  <outline>
    <contour>
      <point x="19" y="-242" type="curve" smooth="yes"/>
      <point x="83" y="-242"/>
      <point x="126" y="-202"/>
      <point x="126" y="-142" type="curve" smooth="yes"/>
      <point x="126" y="-81"/>
      <point x="76" y="-40"/>
      <point x="1" y="-40" type="curve" smooth="yes"/>
      <point x="-11" y="-40" type="line"/>
      <point x="-11" y="-111" type="line"/>
      <point x="0" y="-111" type="line" smooth="yes"/>
      <point x="17" y="-111"/>
      <point x="30" y="-123"/>
      <point x="30" y="-140" type="curve" smooth="yes"/>
      <point x="30" y="-157"/>
      <point x="18" y="-168"/>
      <point x="0" y="-168" type="curve" smooth="yes"/>
      <point x="-17" y="-168"/>
      <point x="-35" y="-164"/>
      <point x="-55" y="-154" type="curve"/>
      <point x="-55" y="-229" type="line"/>
      <point x="-30" y="-238"/>
      <point x="-5" y="-242"/>
    </contour>
  </outline>
</glyph>
<glyph name="ogonekcmb" format="2">
  <unicode hex="0328"/>
  <anchor x="0" y="454" name="_top"/>
  <anchor x="0" y="16" name="_ogonek"/>
  <outline>
    <contour>
      <point x="0" y="-220" type="curve"/>
      <point x="0" y="-112" type="line"/>
      <point x="-39" y="-112"/>
      <point x="-66" y="-90"/>
      <point x="-66" y="-58" type="curve" smooth="yes"/>
      <point x="-66" y="-22"/>
      <point x="-39" y="0"/>
      <point x="0" y="0" type="curve"/>
      <point x="-13" y="48" type="line"/>
      <point x="-114" y="48"/>
      <point x="-180" y="-7"/>
      <point x="-180" y="-90" type="curve" smooth="yes"/>
      <point x="-180" y="-169"/>
      <point x="-108" y="-220"/>
    </contour>
  </outline>
</glyph>
<glyph name="mu" format="2">
  <advance width="521"/>
  <unicode hex="03BC"/>
  <unicode hex="00B5"/>
  <outline>
    <contour>
      <point x="164" y="-202" type="line"/>
      <point x="141" y="0" type="line"/>
      <point x="158" y="-7"/>
      <point x="178" y="-11"/>
      <point x="200" y="-11" type="curve" smooth="yes"/>
      <point x="260" y="-11"/>
      <point x="302" y="14"/>
      <point x="337" y="62" type="curve"/>
      <point x="347" y="0" type="line"/>
      <point x="473" y="0" type="line"/>
      <point x="473" y="470" type="line"/>
      <point x="337" y="470" type="line"/>
      <point x="337" y="162" type="line"/>
      <point x="316" y="132"/>
      <point x="288" y="113"/>
      <point x="252" y="113" type="curve" smooth="yes"/>
      <point x="210" y="113"/>
      <point x="182" y="145"/>
      <point x="182" y="193" type="curve" smooth="yes"/>
      <point x="182" y="470" type="line"/>
      <point x="46" y="470" type="line"/>
      <point x="46" y="-202" type="line"/>
    </contour>
  </outline>
</glyph>
<glyph name="quoteleft" format="2">
  <advance width="237"/>
  <unicode hex="2018"/>
  <outline>
    <contour>
      <point x="45" y="412" type="line"/>
      <point x="177" y="412" type="line"/>
      <point x="177" y="518" type="line" smooth="yes"/>
      <point x="177" y="600"/>
      <point x="199" y="648"/>
      <point x="227" y="700" type="curve"/>
      <point x="135" y="733" type="line"/>
      <point x="91" y="691"/>
      <point x="45" y="606"/>
      <point x="45" y="509" type="curve" smooth="yes"/>
    </contour>
  </outline>
</glyph>
<glyph name="quoteright" format="2">
  <advance width="237"/>
  <unicode hex="2019"/>
  <outline>
    <contour>
      <point x="102" y="395" type="line"/>
      <point x="146" y="437"/>
      <point x="192" y="522"/>
      <point x="192" y="619" type="curve" smooth="yes"/>
      <point x="192" y="716" type="line"/>
      <point x="60" y="716" type="line"/>
      <point x="60" y="610" type="line" smooth="yes"/>
      <point x="60" y="528"/>
      <point x="38" y="480"/>
      <point x="10" y="428" type="curve"/>
    </contour>
  </outline>
</glyph>
<glyph name="quotedblleft" format="2">
  <advance width="442"/>
  <unicode hex="201C"/>
  <outline>
    <contour>
      <point x="45" y="414" type="line"/>
      <point x="177" y="414" type="line"/>
      <point x="177" y="520" type="line" smooth="yes"/>
      <point x="177" y="602"/>
      <point x="199" y="650"/>
      <point x="227" y="702" type="curve"/>
      <point x="135" y="735" type="line"/>
      <point x="91" y="693"/>
      <point x="45" y="608"/>
      <point x="45" y="511" type="curve" smooth="yes"/>
    </contour>
    <contour>
      <point x="250" y="414" type="line"/>
      <point x="382" y="414" type="line"/>
      <point x="382" y="520" type="line" smooth="yes"/>
      <point x="382" y="602"/>
      <point x="404" y="650"/>
      <point x="432" y="702" type="curve"/>
      <point x="340" y="735" type="line"/>
      <point x="296" y="693"/>
      <point x="250" y="608"/>
      <point x="250" y="511" type="curve" smooth="yes"/>
    </contour>
  </outline>
</glyph>
<glyph name="quotedblbase" format="2">
  <advance width="430"/>
  <unicode hex="201E"/>
  <outline>
    <contour>
      <point x="192" y="132" type="line"/>
      <point x="60" y="132" type="line"/>
      <point x="60" y="26" type="line" smooth="yes"/>
      <point x="60" y="-56"/>
      <point x="38" y="-104"/>
      <point x="10" y="-156" type="curve"/>
      <point x="102" y="-189" type="line"/>
      <point x="146" y="-147"/>
      <point x="192" y="-62"/>
      <point x="192" y="35" type="curve" smooth="yes"/>
    </contour>
    <contour>
      <point x="385" y="132" type="line"/>
      <point x="253" y="132" type="line"/>
      <point x="253" y="26" type="line" smooth="yes"/>
      <point x="253" y="-56"/>
      <point x="231" y="-104"/>
      <point x="203" y="-156" type="curve"/>
      <point x="295" y="-189" type="line"/>
      <point x="339" y="-147"/>
      <point x="385" y="-62"/>
      <point x="385" y="35" type="curve" smooth="yes"/>
    </contour>
  </outline>
</glyph>
<glyph name="dagger" format="2">
  <advance width="444"/>
  <unicode hex="2020"/>
  <outline>
    <contour>
      <point x="152" y="0" type="line"/>
      <point x="292" y="0" type="line"/>
      <point x="284" y="442" type="line"/>
      <point x="424" y="434" type="line"/>
      <point x="424" y="558" type="line"/>
      <point x="284" y="550" type="line"/>
      <point x="292" y="716" type="line"/>
      <point x="152" y="716" type="line"/>
      <point x="160" y="550" type="line"/>
      <point x="20" y="558" type="line"/>
      <point x="20" y="434" type="line"/>
      <point x="160" y="442" type="line"/>
    </contour>
  </outline>
</glyph>
<glyph name="guilsinglright" format="2">
  <advance width="395"/>
  <unicode hex="203A"/>
  <outline>
    <contour>
      <point x="40" y="63" type="line"/>
      <point x="200" y="63" type="line"/>
      <point x="355" y="226" type="line"/>
      <point x="200" y="390" type="line"/>
      <point x="40" y="390" type="line"/>
      <point x="195" y="226" type="line" smooth="yes"/>
    </contour>
  </outline>
</glyph>
<glyph name="bitcoin" format="2">
  <advance width="550"/>
  <unicode hex="20BF"/>
  <outline>
    <contour>
      <point x="133" y="552" type="line"/>
      <point x="227" y="552" type="line"/>
      <point x="227" y="786" type="line"/>
      <point x="133" y="786" type="line"/>
    </contour>
    <contour>
      <point x="284" y="552" type="line"/>
      <point x="378" y="552" type="line"/>
      <point x="378" y="786" type="line"/>
      <point x="284" y="786" type="line"/>
    </contour>
    <contour>
      <point x="133" y="-124" type="line"/>
      <point x="227" y="-124" type="line"/>
      <point x="227" y="110" type="line"/>
      <point x="133" y="110" type="line"/>
    </contour>
    <contour>
      <point x="284" y="-124" type="line"/>
      <point x="378" y="-124" type="line"/>
      <point x="378" y="110" type="line"/>
      <point x="284" y="110" type="line"/>
    </contour>
    <component base="B"/>
  </outline>
</glyph>
<glyph name="copyrightsound" format="2">
  <advance width="723"/>
  <unicode hex="2117"/>
  <outline>
    <contour>
      <point x="361" y="80" type="curve" smooth="yes"/>
      <point x="551" y="80"/>
      <point x="683" y="229"/>
      <point x="683" y="402" type="curve" smooth="yes"/>
      <point x="683" y="576"/>
      <point x="551" y="724"/>
      <point x="361" y="724" type="curve" smooth="yes"/>
      <point x="168" y="724"/>
      <point x="40" y="576"/>
      <point x="40" y="402" type="curve" smooth="yes"/>
      <point x="40" y="230"/>
      <point x="168" y="80"/>
    </contour>
    <contour>
      <point x="361" y="152" type="curve" smooth="yes"/>
      <point x="226" y="152"/>
      <point x="112" y="253"/>
      <point x="112" y="402" type="curve" smooth="yes"/>
      <point x="112" y="552"/>
      <point x="226" y="652"/>
      <point x="361" y="652" type="curve" smooth="yes"/>
      <point x="489" y="652"/>
      <point x="611" y="553"/>
      <point x="611" y="402" type="curve" smooth="yes"/>
      <point x="611" y="254"/>
      <point x="489" y="152"/>
    </contour>
    <contour>
      <point x="266" y="235" type="line"/>
      <point x="346" y="235" type="line"/>
      <point x="346" y="340" type="line"/>
      <point x="377" y="340" type="line" smooth="yes"/>
      <point x="445" y="340"/>
      <point x="500" y="385"/>
      <point x="500" y="457" type="curve" smooth="yes"/>
      <point x="500" y="526"/>
      <point x="446" y="570"/>
      <point x="379" y="570" type="curve" smooth="yes"/>
      <point x="266" y="570" type="line"/>
    </contour>
    <contour>
      <point x="346" y="407" type="line"/>
      <point x="346" y="503" type="line"/>
      <point x="370" y="503" type="line" smooth="yes"/>
      <point x="400" y="503"/>
      <point x="419" y="481"/>
      <point x="419" y="455" type="curve" smooth="yes"/>
      <point x="419" y="429"/>
      <point x="400" y="407"/>
      <point x="370" y="407" type="curve" smooth="yes"/>
    </contour>
  </outline>
</glyph>
<glyph name="trademark" format="2">
  <advance width="678"/>
  <unicode hex="2122"/>
  <outline>
    <contour>
      <point x="108" y="453" type="line"/>
      <point x="192" y="453" type="line"/>
      <point x="192" y="646" type="line"/>
      <point x="260" y="646" type="line"/>
      <point x="260" y="716" type="line"/>
      <point x="40" y="716" type="line"/>
      <point x="40" y="646" type="line"/>
      <point x="108" y="646" type="line"/>
    </contour>
    <contour>
      <point x="289" y="453" type="line"/>
      <point x="359" y="453" type="line"/>
      <point x="359" y="713" type="line"/>
      <point x="322" y="713" type="line"/>
      <point x="424" y="490" type="line"/>
      <point x="469" y="490" type="line"/>
      <point x="571" y="713" type="line"/>
      <point x="534" y="713" type="line"/>
      <point x="534" y="453" type="line"/>
      <point x="618" y="453" type="line"/>
      <point x="618" y="716" type="line"/>
      <point x="500" y="716" type="line"/>
      <point x="429" y="558" type="line"/>
      <point x="481" y="558" type="line"/>
      <point x="412" y="716" type="line"/>
      <point x="289" y="716" type="line"/>
    </contour>
  </outline>
</glyph>
<glyph name="partialdiff" format="2">
  <advance width="577"/>
  <unicode hex="2202"/>
  <outline>
    <contour>
      <point x="295" y="-12" type="curve" smooth="yes"/>
      <point x="439" y="-12"/>
      <point x="537" y="95"/>
      <point x="537" y="288" type="curve" smooth="yes"/>
      <point x="537.0" y="545.0"/>
      <point x="351.0" y="716.0"/>
      <point x="72" y="716" type="curve"/>
      <point x="72" y="571" type="line"/>
      <point x="282.0" y="571.0"/>
      <point x="390.0" y="475.0"/>
      <point x="390" y="288" type="curve"/>
      <point x="421" y="289" type="line"/>
      <point x="411" y="415"/>
      <point x="346" y="475"/>
      <point x="251" y="475" type="curve" smooth="yes"/>
      <point x="125" y="475"/>
      <point x="40" y="378"/>
      <point x="40" y="222" type="curve" smooth="yes"/>
      <point x="40" y="63"/>
      <point x="142" y="-12"/>
    </contour>
    <contour>
      <point x="290" y="120" type="curve" smooth="yes"/>
      <point x="223" y="120"/>
      <point x="186" y="162"/>
      <point x="186" y="232" type="curve" smooth="yes"/>
      <point x="186" y="301"/>
      <point x="222" y="346"/>
      <point x="287" y="346" type="curve" smooth="yes"/>
      <point x="357" y="346"/>
      <point x="393" y="305"/>
      <point x="393" y="239" type="curve" smooth="yes"/>
      <point x="393" y="166"/>
      <point x="358" y="120"/>
    </contour>
  </outline>
</glyph>
<glyph name="summation" format="2">
  <advance width="511"/>
  <unicode hex="2211"/>
  <outline>
    <contour>
      <point x="45" y="0" type="line"/>
      <point x="471" y="0" type="line"/>
      <point x="471" y="132" type="line"/>
      <point x="161" y="132" type="line"/>
      <point x="161" y="67" type="line"/>
      <point x="432" y="348" type="line"/>
      <point x="168" y="595" type="line"/>
      <point x="168" y="526" type="line"/>
      <point x="463" y="526" type="line"/>
      <point x="463" y="658" type="line"/>
      <point x="45" y="658" type="line"/>
      <point x="45" y="528" type="line"/>
      <point x="291" y="294" type="line"/>
      <point x="288" y="381" type="line"/>
      <point x="45" y="130" type="line"/>
    </contour>
  </outline>
</glyph>
<glyph name="radical" format="2">
  <advance width="643"/>
  <unicode hex="221A"/>
  <outline>
    <contour>
      <point x="219" y="0" type="line"/>
      <point x="348" y="0" type="line"/>
      <point x="638" y="700" type="line"/>
      <point x="504" y="700" type="line"/>
      <point x="247" y="77" type="line"/>
      <point x="334" y="77" type="line"/>
      <point x="153" y="516" type="line"/>
      <point x="5" y="516" type="line"/>
    </contour>
  </outline>
</glyph>
<glyph name="infinity" format="2">
  <advance width="848"/>
  <unicode hex="221E"/>
  <outline>
    <contour>
      <point x="227" y="13" type="curve" smooth="yes"/>
      <point x="302" y="13"/>
      <point x="374" y="56"/>
      <point x="421" y="151" type="curve"/>
      <point x="366" y="256" type="line"/>
      <point x="338" y="173"/>
      <point x="286" y="137"/>
      <point x="250" y="137" type="curve" smooth="yes"/>
      <point x="192" y="137"/>
      <point x="152" y="175"/>
      <point x="152" y="236" type="curve" smooth="yes"/>
      <point x="152" y="297"/>
      <point x="192" y="335"/>
      <point x="248" y="335" type="curve" smooth="yes"/>
      <point x="289" y="335"/>
      <point x="327" y="312"/>
      <point x="370" y="211" type="curve" smooth="yes"/>
      <point x="397" y="148" type="line" smooth="yes"/>
      <point x="437" y="56"/>
      <point x="525" y="13"/>
      <point x="607" y="13" type="curve" smooth="yes"/>
      <point x="743" y="13"/>
      <point x="828" y="99"/>
      <point x="828" y="236" type="curve" smooth="yes"/>
      <point x="828" y="373"/>
      <point x="751" y="459"/>
      <point x="628" y="459" type="curve" smooth="yes"/>
      <point x="561" y="459"/>
      <point x="475" y="418"/>
      <point x="427" y="313" type="curve"/>
      <point x="473" y="207" type="line"/>
      <point x="507" y="292"/>
      <point x="561" y="335"/>
      <point x="600" y="335" type="curve" smooth="yes"/>
      <point x="655" y="335"/>
      <point x="696" y="297"/>
      <point x="696" y="236" type="curve" smooth="yes"/>
      <point x="696" y="175"/>
      <point x="655" y="137"/>
      <point x="606" y="137" type="curve" smooth="yes"/>
      <point x="557" y="137"/>
      <point x="514" y="180"/>
      <point x="481" y="256" type="curve" smooth="yes"/>
      <point x="453" y="320" type="line" smooth="yes"/>
      <point x="413" y="411"/>
      <point x="329" y="459"/>
      <point x="229" y="459" type="curve" smooth="yes"/>
      <point x="108" y="459"/>
      <point x="20" y="373"/>
      <point x="20" y="236" type="curve" smooth="yes"/>
      <point x="20" y="100"/>
      <point x="99" y="13"/>
    </contour>
  </outline>
</glyph>
<glyph name="integral" format="2">
  <advance width="465"/>
  <unicode hex="222B"/>
  <outline>
    <contour>
      <point x="73" y="-218" type="curve" smooth="yes"/>
      <point x="186" y="-218"/>
      <point x="258" y="-159"/>
      <point x="271" y="-37" type="curve" smooth="yes"/>
      <point x="331" y="534" type="line" smooth="yes"/>
      <point x="335" y="573"/>
      <point x="356" y="592"/>
      <point x="392" y="592" type="curve" smooth="yes"/>
      <point x="417" y="592"/>
      <point x="441" y="588"/>
      <point x="465" y="580" type="curve"/>
      <point x="465" y="708" type="line"/>
      <point x="439" y="713"/>
      <point x="414" y="716"/>
      <point x="388" y="716" type="curve" smooth="yes"/>
      <point x="287" y="716"/>
      <point x="211" y="657"/>
      <point x="198" y="533" type="curve" smooth="yes"/>
      <point x="138" y="-36" type="line" smooth="yes"/>
      <point x="134" y="-75"/>
      <point x="112" y="-94"/>
      <point x="78" y="-94" type="curve" smooth="yes"/>
      <point x="48" y="-94"/>
      <point x="24" y="-91"/>
      <point x="0" y="-84" type="curve"/>
      <point x="0" y="-206" type="line"/>
      <point x="24" y="-214"/>
      <point x="48" y="-218"/>
    </contour>
  </outline>
</glyph>
<glyph name="approxequal" format="2">
  <advance width="438"/>
  <unicode hex="2248"/>
  <outline>
    <contour>
      <point x="76" y="324" type="line"/>
      <point x="92" y="341"/>
      <point x="118" y="348"/>
      <point x="143" y="348" type="curve" smooth="yes"/>
      <point x="170" y="348"/>
      <point x="199" y="339"/>
      <point x="220" y="328" type="curve" smooth="yes"/>
      <point x="242" y="315"/>
      <point x="270" y="310"/>
      <point x="296" y="310" type="curve" smooth="yes"/>
      <point x="329" y="310"/>
      <point x="364" y="325"/>
      <point x="378" y="349" type="curve"/>
      <point x="363" y="457" type="line"/>
      <point x="345" y="443"/>
      <point x="323" y="434"/>
      <point x="296" y="434" type="curve" smooth="yes"/>
      <point x="268" y="434"/>
      <point x="241" y="442"/>
      <point x="220" y="454" type="curve" smooth="yes"/>
      <point x="198" y="465"/>
      <point x="169" y="472"/>
      <point x="143" y="472" type="curve" smooth="yes"/>
      <point x="109" y="472"/>
      <point x="74" y="456"/>
      <point x="60" y="433" type="curve"/>
    </contour>
    <contour>
      <point x="76" y="134" type="line"/>
      <point x="92" y="150"/>
      <point x="118" y="157"/>
      <point x="143" y="157" type="curve" smooth="yes"/>
      <point x="170" y="157"/>
      <point x="199" y="148"/>
      <point x="220" y="137" type="curve" smooth="yes"/>
      <point x="242" y="125"/>
      <point x="270" y="119"/>
      <point x="296" y="119" type="curve" smooth="yes"/>
      <point x="329" y="119"/>
      <point x="364" y="135"/>
      <point x="378" y="158" type="curve"/>
      <point x="363" y="267" type="line"/>
      <point x="345" y="252"/>
      <point x="323" y="243"/>
      <point x="296" y="243" type="curve" smooth="yes"/>
      <point x="268" y="243"/>
      <point x="241" y="251"/>
      <point x="220" y="263" type="curve" smooth="yes"/>
      <point x="198" y="274"/>
      <point x="169" y="281"/>
      <point x="143" y="281" type="curve" smooth="yes"/>
      <point x="109" y="281"/>
      <point x="74" y="265"/>
      <point x="60" y="242" type="curve"/>
    </contour>
  </outline>
</glyph>
<glyph name="notequal" format="2">
  <advance width="524"/>
  <unicode hex="2260"/>
  <outline>
    <contour>
      <point x="89" y="17" type="line"/>
      <point x="203" y="17" type="line"/>
      <point x="424" y="564" type="line"/>
      <point x="310" y="564" type="line"/>
    </contour>
    <component base="equal"/>
  </outline>
</glyph>
<glyph name="lozenge" format="2">
  <advance width="608"/>
  <unicode hex="25CA"/>
  <outline>
    <contour>
      <point x="308" y="-43" type="line"/>
      <point x="558" y="290" type="line"/>
      <point x="308" y="623" type="line"/>
      <point x="50" y="290" type="line"/>
    </contour>
    <contour>
      <point x="311" y="148" type="line"/>
      <point x="203" y="290" type="line"/>
      <point x="309" y="432" type="line"/>
      <point x="417" y="290" type="line"/>
    </contour>
  </outline>
</glyph>
<glyph name="checkmark" format="2">
  <advance width="648"/>
  <unicode hex="2713"/>
  <outline>
    <contour>
      <point x="219" y="0" type="line"/>
      <point x="348" y="0" type="line"/>
      <point x="638" y="716" type="line"/>
      <point x="504" y="716" type="line"/>
      <point x="247" y="77" type="line"/>
      <point x="334" y="77" type="line"/>
      <point x="168" y="470" type="line"/>
      <point x="20" y="470" type="line"/>
    </contour>
  </outline>
</glyph>
<glyph name="Omega" format="2">
  <advance width="662"/>
  <unicode hex="A7B6"/>
  <unicode hex="2126"/>
  <outline>
    <contour>
      <point x="48" y="0" type="line"/>
      <point x="299" y="0" type="line"/>
      <point x="299" y="249" type="line"/>
      <point x="227" y="254"/>
      <point x="177" y="312"/>
      <point x="177" y="398" type="curve" smooth="yes"/>
      <point x="177" y="486"/>
      <point x="237" y="542"/>
      <point x="331" y="542" type="curve" smooth="yes"/>
      <point x="425" y="542"/>
      <point x="485" y="485"/>
      <point x="485" y="396" type="curve" smooth="yes"/>
      <point x="485" y="308"/>
      <point x="435" y="251"/>
      <point x="363" y="249" type="curve"/>
      <point x="363" y="0" type="line"/>
      <point x="613" y="0" type="line"/>
      <point x="613" y="132" type="line"/>
      <point x="433" y="132" type="line"/>
      <point x="462" y="107" type="line"/>
      <point x="462" y="211" type="line"/>
      <point x="448" y="156" type="line"/>
      <point x="557" y="180"/>
      <point x="627" y="275"/>
      <point x="627" y="401" type="curve" smooth="yes"/>
      <point x="627" y="568"/>
      <point x="512" y="674"/>
      <point x="331" y="674" type="curve" smooth="yes"/>
      <point x="150" y="674"/>
      <point x="35" y="567"/>
      <point x="35" y="399" type="curve" smooth="yes"/>
      <point x="35" y="277"/>
      <point x="105" y="184"/>
      <point x="214" y="159" type="curve"/>
      <point x="200" y="187" type="line"/>
      <point x="200" y="116" type="line"/>
      <point x="216" y="132" type="line"/>
      <point x="48" y="132" type="line"/>
    </contour>
  </outline>
</glyph>
<glyph name="A.sc" format="2">
  <advance width="571"/>
  <anchor x="286" y="500" name="top"/>
  <anchor x="554" y="16" name="ogonek"/>
  <outline>
    <contour>
      <point x="10.0" y="0.0" type="line"/>
      <point x="139.0" y="0.0" type="line"/>
      <point x="177.0" y="105.0" type="line"/>
      <point x="158.0" y="105.0" type="line"/>
      <point x="399.0" y="105.0" type="line"/>
      <point x="379.0" y="105.0" type="line"/>
      <point x="417.0" y="0.0" type="line"/>
      <point x="561.0" y="0.0" type="line"/>
      <point x="362.0" y="516.0" type="line"/>
      <point x="209.0" y="516.0" type="line"/>
    </contour>
    <contour>
      <point x="219.0" y="220.0" type="line"/>
      <point x="245.0" y="292.0" type="line"/>
      <point x="289.0" y="428.0" type="line"/>
      <point x="268.0" y="428.0" type="line"/>
      <point x="311.0" y="292.0" type="line"/>
      <point x="337.0" y="220.0" type="line"/>
      <point x="359.0" y="220.0" type="line"/>
      <point x="198.0" y="220.0" type="line"/>
    </contour>
  </outline>
</glyph>
<glyph name="AE.sc" format="2">
  <advance width="751"/>
  <anchor x="442" y="500" name="top"/>
  <outline>
    <contour>
      <point x="5.0" y="0.0" type="line"/>
      <point x="143.0" y="0.0" type="line"/>
      <point x="206.0" y="102.0" type="line"/>
      <point x="177.0" y="102.0" type="line"/>
      <point x="376.0" y="102.0" type="line"/>
      <point x="376.0" y="0.0" type="line"/>
      <point x="706.0" y="0.0" type="line"/>
      <point x="706.0" y="124.0" type="line"/>
      <point x="512.0" y="124.0" type="line"/>
      <point x="512.0" y="202.0" type="line"/>
      <point x="664.0" y="202.0" type="line"/>
      <point x="664.0" y="324.0" type="line"/>
      <point x="512.0" y="324.0" type="line"/>
      <point x="512.0" y="394.0" type="line"/>
      <point x="706.0" y="394.0" type="line"/>
      <point x="706.0" y="516.0" type="line"/>
      <point x="322.0" y="516.0" type="line"/>
    </contour>
    <contour>
      <point x="277.0" y="218.0" type="line"/>
      <point x="332.0" y="308.0" type="line"/>
      <point x="402.0" y="426.0" type="line"/>
      <point x="376.0" y="426.0" type="line"/>
      <point x="376.0" y="218.0" type="line"/>
      <point x="245.0" y="218.0" type="line"/>
    </contour>
  </outline>
</glyph>
<glyph name="B.sc" format="2">
  <advance width="479"/>
  <outline>
    <contour>
      <point x="55" y="0" type="line"/>
      <point x="264" y="0" type="line" smooth="yes"/>
      <point x="386" y="0"/>
      <point x="444" y="54"/>
      <point x="444" y="140" type="curve" smooth="yes"/>
      <point x="444" y="214"/>
      <point x="396" y="263"/>
      <point x="295" y="269" type="curve"/>
      <point x="295" y="259" type="line"/>
      <point x="388" y="267"/>
      <point x="434" y="318"/>
      <point x="434" y="385" type="curve" smooth="yes"/>
      <point x="434" y="465"/>
      <point x="379" y="516"/>
      <point x="264" y="516" type="curve" smooth="yes"/>
      <point x="55" y="516" type="line"/>
    </contour>
    <contour>
      <point x="188" y="309" type="line"/>
      <point x="188" y="413" type="line"/>
      <point x="243" y="413" type="line" smooth="yes"/>
      <point x="280" y="413"/>
      <point x="304" y="395"/>
      <point x="304" y="361" type="curve" smooth="yes"/>
      <point x="304" y="327"/>
      <point x="280" y="309"/>
      <point x="243" y="309" type="curve" smooth="yes"/>
    </contour>
    <contour>
      <point x="188" y="106" type="line"/>
      <point x="188" y="210" type="line"/>
      <point x="256" y="210" type="line" smooth="yes"/>
      <point x="291" y="210"/>
      <point x="314" y="193"/>
      <point x="314" y="159" type="curve" smooth="yes"/>
      <point x="314" y="124"/>
      <point x="291" y="106"/>
      <point x="256" y="106" type="curve" smooth="yes"/>
    </contour>
  </outline>
</glyph>
<glyph name="C.sc" format="2">
  <advance width="506"/>
  <anchor x="308" y="508" name="top"/>
  <anchor x="290" y="16" name="bottom"/>
  <outline>
    <contour>
      <point x="325" y="-12" type="curve" smooth="yes"/>
      <point x="375" y="-12"/>
      <point x="429" y="1"/>
      <point x="471" y="21" type="curve"/>
      <point x="471" y="151" type="line"/>
      <point x="425" y="125"/>
      <point x="374" y="112"/>
      <point x="328" y="112" type="curve" smooth="yes"/>
      <point x="234" y="112"/>
      <point x="172" y="171"/>
      <point x="172" y="259" type="curve" smooth="yes"/>
      <point x="172" y="346"/>
      <point x="234" y="404"/>
      <point x="328" y="404" type="curve" smooth="yes"/>
      <point x="371" y="404"/>
      <point x="420" y="391"/>
      <point x="466" y="367" type="curve"/>
      <point x="466" y="497" type="line"/>
      <point x="425" y="516"/>
      <point x="374" y="528"/>
      <point x="325" y="528" type="curve" smooth="yes"/>
      <point x="151" y="528"/>
      <point x="35" y="420"/>
      <point x="35" y="259" type="curve" smooth="yes"/>
      <point x="35" y="96"/>
      <point x="151" y="-12"/>
    </contour>
  </outline>
</glyph>
<glyph name="D.sc" format="2">
  <advance width="559"/>
  <anchor x="238" y="500" name="top"/>
  <outline>
    <contour>
      <point x="55" y="0" type="line"/>
      <point x="241" y="0" type="line" smooth="yes"/>
      <point x="413" y="0"/>
      <point x="524" y="106"/>
      <point x="524" y="264" type="curve" smooth="yes"/>
      <point x="524" y="415"/>
      <point x="416" y="516"/>
      <point x="248" y="516" type="curve" smooth="yes"/>
      <point x="55" y="516" type="line"/>
    </contour>
    <contour>
      <point x="191" y="124" type="line"/>
      <point x="191" y="392" type="line"/>
      <point x="246" y="392" type="line" smooth="yes"/>
      <point x="333" y="392"/>
      <point x="387" y="341"/>
      <point x="387" y="264" type="curve" smooth="yes"/>
      <point x="387" y="180"/>
      <point x="330" y="124"/>
      <point x="239" y="124" type="curve" smooth="yes"/>
    </contour>
  </outline>
</glyph>
<glyph name="Eng.sc" format="2">
  <advance width="605"/>
  <outline>
    <contour>
      <point x="333" y="-210" type="line" smooth="yes"/>
      <point x="466" y="-210"/>
      <point x="550" y="-136"/>
      <point x="550" y="-16" type="curve" smooth="yes"/>
      <point x="550" y="16" type="line"/>
      <point x="426" y="16" type="line"/>
      <point x="426" y="-16" type="line" smooth="yes"/>
      <point x="426" y="-72"/>
      <point x="386" y="-106"/>
      <point x="333" y="-106" type="curve" smooth="yes"/>
      <point x="325" y="-106" type="line"/>
      <point x="325" y="-210" type="line"/>
    </contour>
    <contour>
      <point x="55" y="0" type="line"/>
      <point x="181" y="0" type="line"/>
      <point x="181" y="254" type="line"/>
      <point x="177" y="404" type="line"/>
      <point x="113" y="404" type="line"/>
      <point x="217" y="254" type="line"/>
      <point x="426" y="0" type="line"/>
      <point x="550" y="0" type="line"/>
      <point x="550" y="516" type="line"/>
      <point x="424" y="516" type="line"/>
      <point x="424" y="262" type="line"/>
      <point x="428" y="112" type="line"/>
      <point x="492" y="112" type="line"/>
      <point x="388" y="262" type="line"/>
      <point x="178" y="516" type="line"/>
      <point x="55" y="516" type="line"/>
    </contour>
  </outline>
</glyph>
<glyph name="Euro.lc" format="2">
  <advance width="514"/>
  <outline>
    <contour>
      <point x="35" y="160" type="line"/>
      <point x="319" y="160" type="line"/>
      <point x="319" y="220" type="line"/>
      <point x="35" y="220" type="line"/>
    </contour>
    <contour>
      <point x="35" y="249" type="line"/>
      <point x="319" y="249" type="line"/>
      <point x="319" y="309" type="line"/>
      <point x="35" y="309" type="line"/>
    </contour>
    <component base="c" xOffset="50"/>
  </outline>
</glyph>
<glyph name="Euro.sc" format="2">
  <advance width="569"/>
  <outline>
    <contour>
      <point x="40" y="156" type="line"/>
      <point x="372" y="156" type="line"/>
      <point x="372" y="239" type="line"/>
      <point x="40" y="239" type="line"/>
    </contour>
    <contour>
      <point x="40" y="275" type="line"/>
      <point x="372" y="275" type="line"/>
      <point x="372" y="359" type="line"/>
      <point x="40" y="359" type="line"/>
    </contour>
    <component base="C.sc" xOffset="58"/>
  </outline>
</glyph>
<glyph name="Euro.tab" format="2">
  <advance width="650"/>
  <outline>
    <contour>
      <point x="424" y="-16" type="curve" smooth="yes"/>
      <point x="483" y="-16"/>
      <point x="542" y="-4"/>
      <point x="596" y="18" type="curve"/>
      <point x="596" y="157" type="line"/>
      <point x="545" y="130"/>
      <point x="488" y="116"/>
      <point x="430" y="116" type="curve" smooth="yes"/>
      <point x="324" y="116"/>
      <point x="254" y="202"/>
      <point x="254" y="330" type="curve" smooth="yes"/>
      <point x="254" y="457"/>
      <point x="324" y="542"/>
      <point x="430" y="542" type="curve" smooth="yes"/>
      <point x="485" y="542"/>
      <point x="540" y="530"/>
      <point x="590" y="506" type="curve"/>
      <point x="590" y="645" type="line"/>
      <point x="538" y="664"/>
      <point x="484" y="674"/>
      <point x="430" y="674" type="curve" smooth="yes"/>
      <point x="240" y="674"/>
      <point x="114" y="536"/>
      <point x="114" y="330" type="curve" smooth="yes"/>
      <point x="114" y="122"/>
      <point x="238" y="-16"/>
    </contour>
    <contour>
      <point x="55" y="211" type="line"/>
      <point x="377" y="211" type="line"/>
      <point x="377" y="303" type="line"/>
      <point x="55" y="303" type="line"/>
    </contour>
    <contour>
      <point x="55" y="352" type="line"/>
      <point x="375" y="352" type="line"/>
      <point x="375" y="444" type="line"/>
      <point x="55" y="444" type="line"/>
    </contour>
  </outline>
</glyph>
<glyph name="G.sc" format="2">
  <advance width="554"/>
  <anchor x="312" y="508" name="top"/>
  <anchor x="312" y="16" name="bottom"/>
  <outline>
    <contour>
      <point x="317" y="-12" type="curve" smooth="yes"/>
      <point x="386" y="-12"/>
      <point x="456" y="5"/>
      <point x="519" y="37" type="curve"/>
      <point x="519" y="307" type="line"/>
      <point x="309" y="307" type="line"/>
      <point x="309" y="191" type="line"/>
      <point x="383" y="191" type="line"/>
      <point x="383" y="126" type="line"/>
      <point x="361" y="117"/>
      <point x="337" y="112"/>
      <point x="311" y="112" type="curve" smooth="yes"/>
      <point x="228" y="112"/>
      <point x="172" y="171"/>
      <point x="172" y="259" type="curve" smooth="yes"/>
      <point x="172" y="346"/>
      <point x="234" y="404"/>
      <point x="328" y="404" type="curve" smooth="yes"/>
      <point x="381" y="404"/>
      <point x="433" y="391"/>
      <point x="483" y="367" type="curve"/>
      <point x="483" y="497" type="line"/>
      <point x="433" y="517"/>
      <point x="377" y="528"/>
      <point x="325" y="528" type="curve" smooth="yes"/>
      <point x="151" y="528"/>
      <point x="35" y="420"/>
      <point x="35" y="259" type="curve" smooth="yes"/>
      <point x="35" y="96"/>
      <point x="148" y="-12"/>
    </contour>
  </outline>
</glyph>
<glyph name="Hbar.sc" format="2">
  <advance width="572"/>
  <outline>
    <contour>
      <point x="51" y="0" type="line"/>
      <point x="187" y="0" type="line"/>
      <point x="187" y="190" type="line"/>
      <point x="386" y="190" type="line"/>
      <point x="386" y="0" type="line"/>
      <point x="522" y="0" type="line"/>
      <point x="522" y="516" type="line"/>
      <point x="386" y="516" type="line"/>
      <point x="386" y="314" type="line"/>
      <point x="187" y="314" type="line"/>
      <point x="187" y="516" type="line"/>
      <point x="51" y="516" type="line"/>
    </contour>
    <contour>
      <point x="15" y="366" type="line"/>
      <point x="557" y="366" type="line"/>
      <point x="557" y="454" type="line"/>
      <point x="15" y="454" type="line"/>
    </contour>
  </outline>
</glyph>
<glyph name="I.sc" format="2">
  <advance width="244"/>
  <anchor x="123" y="500" name="top"/>
  <anchor x="186" y="16" name="ogonek"/>
  <outline>
    <contour>
      <point x="54" y="0" type="line"/>
      <point x="190" y="0" type="line"/>
      <point x="190" y="516" type="line"/>
      <point x="54" y="516" type="line"/>
    </contour>
  </outline>
</glyph>
<glyph name="J.base" format="2">
  <advance width="313"/>
  <anchor x="188" y="642" name="top"/>
  <outline>
    <contour>
      <point x="33" y="-16" type="line" smooth="yes"/>
      <point x="170" y="-16"/>
      <point x="258.0" y="71.0"/>
      <point x="258" y="208" type="curve" smooth="yes"/>
      <point x="258" y="658" type="line"/>
      <point x="118" y="658" type="line"/>
      <point x="118" y="208" type="line" smooth="yes"/>
      <point x="118.0" y="151.0"/>
      <point x="85" y="114"/>
      <point x="33" y="114" type="curve" smooth="yes"/>
      <point x="25" y="114" type="line"/>
      <point x="25" y="-16" type="line"/>
    </contour>
  </outline>
</glyph>
<glyph name="J.base_sc" format="2">
  <advance width="299"/>
  <anchor x="181" y="500" name="top"/>
  <outline>
    <contour>
      <point x="38" y="-16" type="line" smooth="yes"/>
      <point x="171" y="-16"/>
      <point x="249.0" y="62.0"/>
      <point x="249" y="187" type="curve" smooth="yes"/>
      <point x="249" y="516" type="line"/>
      <point x="113" y="516" type="line"/>
      <point x="113" y="188" type="line" smooth="yes"/>
      <point x="113.0" y="130.0"/>
      <point x="84" y="110"/>
      <point x="38" y="110" type="curve" smooth="yes"/>
      <point x="30" y="110" type="line"/>
      <point x="30" y="-16" type="line"/>
    </contour>
  </outline>
</glyph>
<glyph name="K.sc" format="2">
  <advance width="544"/>
  <anchor x="276" y="16" name="bottom"/>
  <outline>
    <contour>
      <point x="55" y="0" type="line"/>
      <point x="191" y="0" type="line"/>
      <point x="191" y="259" type="line"/>
      <point x="175" y="259" type="line"/>
      <point x="366" y="0" type="line"/>
      <point x="534" y="0" type="line"/>
      <point x="312" y="293" type="line"/>
      <point x="313" y="251" type="line"/>
      <point x="524" y="516" type="line"/>
      <point x="370" y="516" type="line"/>
      <point x="175" y="264" type="line"/>
      <point x="191" y="264" type="line"/>
      <point x="191" y="516" type="line"/>
      <point x="55" y="516" type="line"/>
    </contour>
  </outline>
</glyph>
<glyph name="M.sc" format="2">
  <advance width="694"/>
  <outline>
    <contour>
      <point x="55" y="0" type="line"/>
      <point x="179" y="0" type="line"/>
      <point x="179" y="290" type="line"/>
      <point x="173" y="468" type="line"/>
      <point x="144" y="468" type="line"/>
      <point x="210" y="290" type="line"/>
      <point x="297" y="71" type="line"/>
      <point x="388" y="71" type="line"/>
      <point x="474" y="290" type="line"/>
      <point x="540" y="468" type="line"/>
      <point x="511" y="468" type="line"/>
      <point x="505" y="290" type="line"/>
      <point x="505" y="0" type="line"/>
      <point x="639" y="0" type="line"/>
      <point x="639" y="516" type="line"/>
      <point x="450" y="514" type="line"/>
      <point x="380" y="326" type="line"/>
      <point x="324" y="151" type="line"/>
      <point x="374" y="153" type="line"/>
      <point x="318" y="328" type="line"/>
      <point x="248" y="516" type="line"/>
      <point x="55" y="516" type="line"/>
    </contour>
  </outline>
</glyph>
<glyph name="N.sc" format="2">
  <advance width="603"/>
  <anchor x="302" y="500" name="top"/>
  <anchor x="320" y="16" name="bottom"/>
  <outline>
    <contour>
      <point x="54" y="0" type="line"/>
      <point x="180" y="0" type="line"/>
      <point x="180" y="270" type="line"/>
      <point x="176" y="404" type="line"/>
      <point x="136" y="404" type="line"/>
      <point x="216" y="270" type="line"/>
      <point x="402" y="0" type="line"/>
      <point x="549" y="0" type="line"/>
      <point x="549" y="516" type="line"/>
      <point x="423" y="516" type="line"/>
      <point x="423" y="246" type="line"/>
      <point x="427" y="112" type="line"/>
      <point x="467" y="112" type="line"/>
      <point x="387" y="246" type="line"/>
      <point x="201" y="516" type="line"/>
      <point x="54" y="516" type="line"/>
    </contour>
  </outline>
</glyph>
<glyph name="O.sc" format="2">
  <advance width="614"/>
  <guideline x="91" y="557" angle="0" identifier="vQ2Eb7Mh5s"/>
  <anchor x="307" y="508" name="top"/>
  <outline>
    <contour>
      <point x="307" y="-14" type="curve" smooth="yes"/>
      <point x="470" y="-14"/>
      <point x="578" y="95"/>
      <point x="578" y="259" type="curve" smooth="yes"/>
      <point x="578" y="422"/>
      <point x="470" y="530"/>
      <point x="307" y="530" type="curve" smooth="yes"/>
      <point x="144" y="530"/>
      <point x="36" y="421"/>
      <point x="36" y="257" type="curve" smooth="yes"/>
      <point x="36" y="94"/>
      <point x="144" y="-14"/>
    </contour>
    <contour>
      <point x="307" y="110" type="curve" smooth="yes"/>
      <point x="227" y="110"/>
      <point x="173" y="170"/>
      <point x="173" y="259" type="curve" smooth="yes"/>
      <point x="173" y="347"/>
      <point x="227" y="406"/>
      <point x="307" y="406" type="curve" smooth="yes"/>
      <point x="387" y="406"/>
      <point x="441" y="346"/>
      <point x="441" y="257" type="curve" smooth="yes"/>
      <point x="441" y="169"/>
      <point x="387" y="110"/>
    </contour>
  </outline>
</glyph>
<glyph name="OE.sc" format="2">
  <advance width="721"/>
  <outline>
    <contour>
      <point x="314" y="0" type="curve" smooth="yes"/>
      <point x="676" y="0" type="line"/>
      <point x="676" y="124" type="line"/>
      <point x="482" y="124" type="line"/>
      <point x="482" y="202" type="line"/>
      <point x="634" y="202" type="line"/>
      <point x="634" y="324" type="line"/>
      <point x="482" y="324" type="line"/>
      <point x="482" y="394" type="line"/>
      <point x="676" y="394" type="line"/>
      <point x="676" y="516" type="line"/>
      <point x="316" y="516" type="line" smooth="yes"/>
      <point x="144" y="516"/>
      <point x="35" y="417"/>
      <point x="35" y="259" type="curve" smooth="yes"/>
      <point x="35" y="100"/>
      <point x="143" y="0"/>
    </contour>
    <contour>
      <point x="313" y="124" type="line" smooth="yes"/>
      <point x="226" y="124"/>
      <point x="172" y="176"/>
      <point x="172" y="259" type="curve" smooth="yes"/>
      <point x="172" y="342"/>
      <point x="227" y="394"/>
      <point x="315" y="394" type="curve" smooth="yes"/>
      <point x="346" y="394" type="line"/>
      <point x="346" y="124" type="line"/>
    </contour>
  </outline>
</glyph>
<glyph name="Oslashacute.sc" format="2">
  <advance width="612"/>
  <outline>
    <contour>
      <point x="58" y="-48" type="line"/>
      <point x="180" y="-48" type="line"/>
      <point x="552" y="564" type="line"/>
      <point x="430" y="564" type="line"/>
    </contour>
    <component base="O.sc"/>
    <component base="acutecmb.uc" xOffset="307" yOffset="-134"/>
  </outline>
</glyph>
<glyph name="Oslashacute.sc_AT_weight800" format="2">
  <advance width="612"/>
  <outline>
    <contour>
      <point x="362" y="452" type="line"/>
      <point x="451" y="398" type="line"/>
      <point x="552" y="564" type="line"/>
      <point x="430" y="564" type="line"/>
    </contour>
    <contour>
      <point x="58" y="-48" type="line"/>
      <point x="180" y="-48" type="line"/>
      <point x="257" y="79" type="line"/>
      <point x="164" y="127" type="line"/>
    </contour>
    <component base="O.sc"/>
    <component base="acutecmb.uc" xOffset="296" yOffset="-137"/>
  </outline>
</glyph>
<glyph name="P.sc" format="2">
  <advance width="456"/>
  <outline>
    <contour>
      <point x="55" y="0" type="line"/>
      <point x="190" y="0" type="line"/>
      <point x="190" y="157" type="line"/>
      <point x="233" y="157" type="line" smooth="yes"/>
      <point x="352" y="157"/>
      <point x="431" y="226"/>
      <point x="431" y="335" type="curve" smooth="yes"/>
      <point x="431" y="443"/>
      <point x="352" y="516"/>
      <point x="233" y="516" type="curve" smooth="yes"/>
      <point x="55" y="516" type="line"/>
    </contour>
    <contour>
      <point x="190" y="270" type="line"/>
      <point x="190" y="399" type="line"/>
      <point x="225" y="399" type="line" smooth="yes"/>
      <point x="266" y="399"/>
      <point x="296" y="372"/>
      <point x="296" y="336" type="curve" smooth="yes"/>
      <point x="296" y="297"/>
      <point x="267" y="270"/>
      <point x="226" y="270" type="curve" smooth="yes"/>
    </contour>
  </outline>
</glyph>
<glyph name="Q.sc" format="2">
  <advance width="614"/>
  <outline>
    <contour>
      <point x="510" y="-145" type="curve"/>
      <point x="559" y="-35" type="line"/>
      <point x="487" y="-14"/>
      <point x="437" y="16"/>
      <point x="379" y="83" type="curve"/>
      <point x="281" y="3" type="line"/>
      <point x="348" y="-72"/>
      <point x="416" y="-111"/>
    </contour>
    <component base="O.sc" xOffset="1"/>
  </outline>
</glyph>
<glyph name="R.sc" format="2">
  <advance width="498"/>
  <anchor x="241" y="501" name="top"/>
  <anchor x="265" y="16" name="bottom"/>
  <outline>
    <contour>
      <point x="55" y="0" type="line"/>
      <point x="190" y="0" type="line"/>
      <point x="190" y="180" type="line"/>
      <point x="222" y="180" type="line" smooth="yes"/>
      <point x="255" y="180"/>
      <point x="277" y="163"/>
      <point x="289" y="131" type="curve" smooth="yes"/>
      <point x="339" y="0" type="line"/>
      <point x="486" y="0" type="line"/>
      <point x="423" y="159" type="line" smooth="yes"/>
      <point x="400" y="218"/>
      <point x="356" y="241"/>
      <point x="282" y="241" type="curve"/>
      <point x="282" y="235" type="line"/>
      <point x="380" y="235"/>
      <point x="440" y="288"/>
      <point x="440" y="375" type="curve" smooth="yes"/>
      <point x="440" y="459"/>
      <point x="370" y="516"/>
      <point x="264" y="516" type="curve" smooth="yes"/>
      <point x="55" y="516" type="line"/>
    </contour>
    <contour>
      <point x="190" y="291" type="line"/>
      <point x="190" y="402" type="line"/>
      <point x="246" y="402" type="line" smooth="yes"/>
      <point x="278" y="402"/>
      <point x="307" y="380"/>
      <point x="307" y="348" type="curve" smooth="yes"/>
      <point x="307" y="314"/>
      <point x="278" y="291"/>
      <point x="246" y="291" type="curve" smooth="yes"/>
    </contour>
  </outline>
</glyph>
<glyph name="S.sc" format="2">
  <advance width="456"/>
  <anchor x="230" y="508" name="top"/>
  <anchor x="222" y="8" name="bottom"/>
  <outline>
    <contour>
      <point x="216" y="-14" type="curve" smooth="yes"/>
      <point x="337" y="-14"/>
      <point x="418" y="55"/>
      <point x="418" y="157" type="curve" smooth="yes"/>
      <point x="418" y="245"/>
      <point x="361" y="294"/>
      <point x="256" y="324" type="curve" smooth="yes"/>
      <point x="242" y="328" type="line" smooth="yes"/>
      <point x="202" y="339"/>
      <point x="178" y="352"/>
      <point x="178" y="376" type="curve" smooth="yes"/>
      <point x="178" y="400"/>
      <point x="198" y="413"/>
      <point x="235" y="413" type="curve" smooth="yes"/>
      <point x="284" y="413"/>
      <point x="346" y="397"/>
      <point x="390" y="372" type="curve"/>
      <point x="390" y="500" type="line"/>
      <point x="338" y="520"/>
      <point x="284" y="530"/>
      <point x="231" y="530" type="curve" smooth="yes"/>
      <point x="115" y="530"/>
      <point x="38" y="462"/>
      <point x="38" y="359" type="curve" smooth="yes"/>
      <point x="38" y="281"/>
      <point x="89" y="229"/>
      <point x="189" y="201" type="curve" smooth="yes"/>
      <point x="203" y="197" type="line" smooth="yes"/>
      <point x="251" y="183"/>
      <point x="278" y="169"/>
      <point x="278" y="144" type="curve" smooth="yes"/>
      <point x="278" y="117"/>
      <point x="256" y="103"/>
      <point x="215" y="103" type="curve" smooth="yes"/>
      <point x="156" y="103"/>
      <point x="99" y="117"/>
      <point x="53" y="144" type="curve"/>
      <point x="53" y="16" type="line"/>
      <point x="102" y="-4"/>
      <point x="157" y="-14"/>
    </contour>
  </outline>
</glyph>
<glyph name="T.sc" format="2">
  <advance width="444"/>
  <anchor x="222" y="500" name="top"/>
  <anchor x="222" y="16" name="bottom"/>
  <outline>
    <contour>
      <point x="154" y="0" type="line"/>
      <point x="290" y="0" type="line"/>
      <point x="290" y="392" type="line"/>
      <point x="424" y="392" type="line"/>
      <point x="424" y="516" type="line"/>
      <point x="20" y="516" type="line"/>
      <point x="20" y="392" type="line"/>
      <point x="154" y="392" type="line"/>
    </contour>
  </outline>
</glyph>
<glyph name="Thorn.sc" format="2">
  <advance width="451"/>
  <outline>
    <contour>
      <point x="55" y="0" type="line"/>
      <point x="191" y="0" type="line"/>
      <point x="191" y="82" type="line"/>
      <point x="233" y="82" type="line" smooth="yes"/>
      <point x="354" y="82"/>
      <point x="431" y="150"/>
      <point x="431" y="259" type="curve" smooth="yes"/>
      <point x="431" y="366"/>
      <point x="352" y="437"/>
      <point x="233" y="437" type="curve" smooth="yes"/>
      <point x="191" y="437" type="line"/>
      <point x="191" y="516" type="line"/>
      <point x="55" y="516" type="line"/>
    </contour>
    <contour>
      <point x="191" y="202" type="line"/>
      <point x="191" y="317" type="line"/>
      <point x="225" y="317" type="line" smooth="yes"/>
      <point x="267" y="317"/>
      <point x="294" y="295"/>
      <point x="294" y="260" type="curve" smooth="yes"/>
      <point x="294" y="224"/>
      <point x="268" y="202"/>
      <point x="226" y="202" type="curve" smooth="yes"/>
    </contour>
  </outline>
</glyph>
<glyph name="U.sc" format="2">
  <advance width="580"/>
  <anchor x="297" y="500" name="top"/>
  <outline>
    <contour>
      <point x="293" y="-12" type="curve" smooth="yes"/>
      <point x="433" y="-12"/>
      <point x="530" y="81"/>
      <point x="530" y="217" type="curve" smooth="yes"/>
      <point x="530" y="516" type="line"/>
      <point x="402" y="516" type="line"/>
      <point x="402" y="217" type="line" smooth="yes"/>
      <point x="402" y="152"/>
      <point x="359" y="108"/>
      <point x="294" y="108" type="curve" smooth="yes"/>
      <point x="229" y="108"/>
      <point x="186" y="152"/>
      <point x="186" y="217" type="curve" smooth="yes"/>
      <point x="186" y="516" type="line"/>
      <point x="50" y="516" type="line"/>
      <point x="50" y="217" type="line" smooth="yes"/>
      <point x="50" y="81"/>
      <point x="147" y="-12"/>
    </contour>
  </outline>
</glyph>
<glyph name="Uogonek.sc" format="2">
  <advance width="580"/>
  <outline>
    <contour>
      <point x="433" y="-220" type="curve"/>
      <point x="433" y="-112" type="line"/>
      <point x="389" y="-112"/>
      <point x="360" y="-87"/>
      <point x="360" y="-50" type="curve" smooth="yes"/>
      <point x="360" y="-22"/>
      <point x="374" y="-2"/>
      <point x="407" y="13" type="curve" smooth="yes"/>
      <point x="480" y="46"/>
      <point x="530" y="119"/>
      <point x="530" y="217" type="curve" smooth="yes"/>
      <point x="530" y="516" type="line"/>
      <point x="402" y="516" type="line"/>
      <point x="402" y="217" type="line" smooth="yes"/>
      <point x="402" y="152"/>
      <point x="359" y="108"/>
      <point x="294" y="108" type="curve" smooth="yes"/>
      <point x="229" y="108"/>
      <point x="186" y="152"/>
      <point x="186" y="217" type="curve" smooth="yes"/>
      <point x="186" y="516" type="line"/>
      <point x="50" y="516" type="line"/>
      <point x="50" y="217" type="line" smooth="yes"/>
      <point x="50" y="81"/>
      <point x="147" y="-12"/>
      <point x="293" y="-12" type="curve" smooth="yes"/>
      <point x="327" y="-12"/>
      <point x="358" y="-7"/>
      <point x="385" y="4" type="curve"/>
      <point x="380" y="63" type="line"/>
      <point x="294" y="51"/>
      <point x="241" y="-4"/>
      <point x="241" y="-81" type="curve" smooth="yes"/>
      <point x="241" y="-166"/>
      <point x="318" y="-220"/>
    </contour>
  </outline>
</glyph>
<glyph name="W.sc" format="2">
  <advance width="800"/>
  <anchor x="406" y="500" name="top"/>
  <outline>
    <contour>
      <point x="166" y="0" type="line"/>
      <point x="304" y="0" type="line"/>
      <point x="376" y="259" type="line"/>
      <point x="420" y="441" type="line"/>
      <point x="376" y="441" type="line"/>
      <point x="420" y="259" type="line"/>
      <point x="492" y="0" type="line"/>
      <point x="630" y="0" type="line"/>
      <point x="792" y="516" type="line"/>
      <point x="662" y="516" type="line"/>
      <point x="592" y="269" type="line"/>
      <point x="548" y="91" type="line"/>
      <point x="584" y="91" type="line"/>
      <point x="540" y="269" type="line"/>
      <point x="470" y="516" type="line"/>
      <point x="339" y="516" type="line"/>
      <point x="269" y="269" type="line"/>
      <point x="225" y="92" type="line"/>
      <point x="266" y="92" type="line"/>
      <point x="220" y="269" type="line"/>
      <point x="150" y="516" type="line"/>
      <point x="8" y="516" type="line"/>
    </contour>
  </outline>
</glyph>
<glyph name="X.sc" format="2">
  <advance width="537"/>
  <outline>
    <contour>
      <point x="10" y="0" type="line"/>
      <point x="162" y="0" type="line"/>
      <point x="234" y="110" type="line"/>
      <point x="288" y="200" type="line"/>
      <point x="325" y="227" type="line"/>
      <point x="527" y="516" type="line"/>
      <point x="375" y="516" type="line"/>
      <point x="305" y="409" type="line"/>
      <point x="256" y="325" type="line"/>
      <point x="214" y="292" type="line"/>
    </contour>
    <contour>
      <point x="363" y="0" type="line"/>
      <point x="526" y="0" type="line"/>
      <point x="332" y="290" type="line"/>
      <point x="295" y="326" type="line"/>
      <point x="248" y="409" type="line"/>
      <point x="181" y="516" type="line"/>
      <point x="18" y="516" type="line"/>
      <point x="216" y="220" type="line"/>
      <point x="244" y="197" type="line"/>
      <point x="294" y="110" type="line"/>
    </contour>
  </outline>
</glyph>
<glyph name="Y.sc" format="2">
  <advance width="512"/>
  <anchor x="265" y="500" name="top"/>
  <outline>
    <contour>
      <point x="186" y="0" type="line"/>
      <point x="322" y="0" type="line"/>
      <point x="322" y="267" type="line"/>
      <point x="299" y="146" type="line"/>
      <point x="502" y="516" type="line"/>
      <point x="358" y="516" type="line"/>
      <point x="293" y="376" type="line"/>
      <point x="223" y="225" type="line"/>
      <point x="304" y="225" type="line"/>
      <point x="236" y="376" type="line"/>
      <point x="170" y="516" type="line"/>
      <point x="10" y="516" type="line"/>
      <point x="214" y="146" type="line"/>
      <point x="186" y="267" type="line"/>
    </contour>
  </outline>
</glyph>
<glyph name="Z.sc" format="2">
  <advance width="491"/>
  <anchor x="259" y="500" name="top"/>
  <outline>
    <contour>
      <point x="40" y="0" type="line"/>
      <point x="447" y="0" type="line"/>
      <point x="447" y="124" type="line"/>
      <point x="136" y="124" type="line"/>
      <point x="151" y="44" type="line"/>
      <point x="272" y="188" type="line"/>
      <point x="451" y="426" type="line"/>
      <point x="451" y="516" type="line"/>
      <point x="48" y="516" type="line"/>
      <point x="48" y="392" type="line"/>
      <point x="346" y="392" type="line"/>
      <point x="329" y="457" type="line"/>
      <point x="220" y="328" type="line"/>
      <point x="40" y="90" type="line"/>
    </contour>
  </outline>
</glyph>
<glyph name="a.sinf" format="2">
  <advance width="378"/>
  <anchor x="189" y="438" name="top"/>
  <anchor x="380" y="16" name="ogonek"/>
  <outline>
    <contour>
      <point x="137" y="-178" type="curve" smooth="yes"/>
      <point x="176" y="-178"/>
      <point x="212" y="-159"/>
      <point x="231" y="-124" type="curve"/>
      <point x="239" y="-170" type="line"/>
      <point x="348" y="-170" type="line"/>
      <point x="348" y="68" type="line" smooth="yes"/>
      <point x="348" y="150"/>
      <point x="286" y="198"/>
      <point x="193" y="198" type="curve" smooth="yes"/>
      <point x="142" y="198"/>
      <point x="88" y="189"/>
      <point x="44" y="174" type="curve"/>
      <point x="44" y="79" type="line"/>
      <point x="79" y="99"/>
      <point x="123" y="108"/>
      <point x="163" y="108" type="curve" smooth="yes"/>
      <point x="209" y="108"/>
      <point x="230" y="96"/>
      <point x="230" y="70" type="curve" smooth="yes"/>
      <point x="230" y="63" type="line"/>
      <point x="166" y="52" type="line" smooth="yes"/>
      <point x="73" y="36"/>
      <point x="25" y="-2"/>
      <point x="25" y="-74" type="curve" smooth="yes"/>
      <point x="25" y="-137"/>
      <point x="69" y="-178"/>
    </contour>
    <contour>
      <point x="183" y="-88" type="curve" smooth="yes"/>
      <point x="160" y="-88"/>
      <point x="145" y="-75"/>
      <point x="145" y="-55" type="curve" smooth="yes"/>
      <point x="145" y="-34"/>
      <point x="161" y="-22"/>
      <point x="185" y="-18" type="curve" smooth="yes"/>
      <point x="230" y="-11" type="line"/>
      <point x="230" y="-57" type="line"/>
      <point x="223" y="-76"/>
      <point x="204" y="-88"/>
    </contour>
  </outline>
</glyph>
<glyph name="acutecmb.uc" format="2">
  <anchor x="0.0" y="642" name="_top"/>
  <anchor x="4" y="16" name="_bottom"/>
  <outline>
    <contour>
      <point x="63" y="706" type="line"/>
      <point x="169" y="841" type="line"/>
      <point x="34" y="841" type="line"/>
      <point x="-55" y="706" type="line"/>
    </contour>
  </outline>
</glyph>
<glyph name="ampersand.sc" format="2">
  <advance width="535"/>
  <outline>
    <contour>
      <point x="215" y="-14" type="curve" smooth="yes"/>
      <point x="276" y="-14"/>
      <point x="333" y="10"/>
      <point x="363" y="50" type="curve"/>
      <point x="387" y="86" type="line"/>
      <point x="439" y="140"/>
      <point x="473" y="221"/>
      <point x="473" y="314" type="curve"/>
      <point x="361" y="314" type="line"/>
      <point x="361" y="261"/>
      <point x="345" y="210"/>
      <point x="321" y="184" type="curve"/>
      <point x="293" y="141" type="line"/>
      <point x="278" y="115"/>
      <point x="257" y="94"/>
      <point x="216" y="94" type="curve" smooth="yes"/>
      <point x="179" y="94"/>
      <point x="148" y="123"/>
      <point x="148" y="162" type="curve" smooth="yes"/>
      <point x="148" y="195"/>
      <point x="170" y="229"/>
      <point x="212" y="248" type="curve"/>
      <point x="162" y="332" type="line"/>
      <point x="87" y="303"/>
      <point x="30" y="238"/>
      <point x="30" y="153" type="curve" smooth="yes"/>
      <point x="30" y="62"/>
      <point x="98" y="-14"/>
    </contour>
    <contour>
      <point x="383" y="0" type="line"/>
      <point x="530" y="0" type="line"/>
      <point x="294" y="276" type="line" smooth="yes"/>
      <point x="254" y="322"/>
      <point x="245" y="340"/>
      <point x="245" y="369" type="curve" smooth="yes"/>
      <point x="245" y="401"/>
      <point x="269" y="422"/>
      <point x="304" y="422" type="curve" smooth="yes"/>
      <point x="346" y="422"/>
      <point x="375" y="409"/>
      <point x="408" y="383" type="curve"/>
      <point x="408" y="502" type="line"/>
      <point x="368" y="520"/>
      <point x="325" y="530"/>
      <point x="280" y="530" type="curve" smooth="yes"/>
      <point x="185" y="530"/>
      <point x="126" y="466"/>
      <point x="126" y="378" type="curve" smooth="yes"/>
      <point x="126" y="328"/>
      <point x="159" y="277"/>
      <point x="195" y="232" type="curve" smooth="yes"/>
    </contour>
  </outline>
</glyph>
<glyph name="aogonekcmb" format="2">
  <anchor x="0.0" y="454.0" name="_top"/>
  <anchor x="0.0" y="16.0" name="_ogonek"/>
  <outline>
    <contour>
      <point x="0" y="-220" type="curve"/>
      <point x="0" y="-112" type="line"/>
      <point x="-39" y="-112"/>
      <point x="-66" y="-90"/>
      <point x="-66" y="-58" type="curve" smooth="yes"/>
      <point x="-66" y="-22"/>
      <point x="-39" y="0"/>
      <point x="0" y="0" type="curve"/>
      <point x="-13" y="48" type="line"/>
      <point x="-119" y="19"/>
      <point x="-180" y="-25"/>
      <point x="-180" y="-102" type="curve" smooth="yes"/>
      <point x="-180" y="-187"/>
      <point x="-108" y="-220"/>
    </contour>
  </outline>
</glyph>
<glyph name="b.sinf" format="2">
  <advance width="406"/>
  <outline>
    <contour>
      <point x="189" y="-178" type="curve" smooth="yes"/>
      <point x="311" y="-178"/>
      <point x="386" y="-102"/>
      <point x="386" y="18" type="curve" smooth="yes"/>
      <point x="386" y="128"/>
      <point x="329" y="198"/>
      <point x="239" y="198" type="curve" smooth="yes"/>
      <point x="208" y="198"/>
      <point x="177" y="187"/>
      <point x="153" y="167" type="curve"/>
      <point x="153" y="374" type="line"/>
      <point x="35" y="374" type="line"/>
      <point x="35" y="-148" type="line"/>
      <point x="87" y="-168"/>
      <point x="137" y="-178"/>
    </contour>
    <contour>
      <point x="195" y="-81" type="curve" smooth="yes"/>
      <point x="181" y="-81"/>
      <point x="166" y="-78"/>
      <point x="153" y="-73" type="curve"/>
      <point x="153" y="78" type="line"/>
      <point x="166" y="87"/>
      <point x="183" y="93"/>
      <point x="199" y="93" type="curve" smooth="yes"/>
      <point x="241" y="93"/>
      <point x="267" y="59"/>
      <point x="267" y="9" type="curve" smooth="yes"/>
      <point x="267" y="-45"/>
      <point x="240" y="-81"/>
    </contour>
  </outline>
</glyph>
<glyph name="backslash.tab" format="2">
  <advance width="325"/>
  <outline>
    <contour>
      <point x="253" y="0" type="line"/>
      <point x="381" y="0" type="line"/>
      <point x="73" y="716" type="line"/>
      <point x="-56" y="716" type="line"/>
    </contour>
  </outline>
</glyph>
<glyph name="bitcoin.lc" format="2">
  <advance width="455"/>
  <outline>
    <contour>
      <point x="55.0" y="0.0" type="line"/>
      <point x="55.0" y="470.0" type="line"/>
      <point x="119.0" y="470.0" type="line"/>
      <point x="119.0" y="565.0" type="line"/>
      <point x="207.0" y="565.0" type="line"/>
      <point x="207.0" y="470.0" type="line"/>
      <point x="223.0" y="470.0" type="line"/>
      <point x="231.0" y="470.0"/>
      <point x="239.0" y="470.0"/>
      <point x="247.0" y="470.0" type="curve"/>
      <point x="247.0" y="565.0" type="line"/>
      <point x="335.0" y="565.0" type="line"/>
      <point x="335.0" y="458.0" type="line"/>
      <point x="385.0" y="440.0"/>
      <point x="410.0" y="403.0"/>
      <point x="410.0" y="354.0" type="curve" smooth="yes"/>
      <point x="410.0" y="300.0"/>
      <point x="377.0" y="258.0"/>
      <point x="312.0" y="242.0" type="curve"/>
      <point x="385.0" y="229.0"/>
      <point x="420.0" y="189.0"/>
      <point x="420.0" y="133.0" type="curve" smooth="yes"/>
      <point x="420.0" y="75.0"/>
      <point x="392.0" y="33.0"/>
      <point x="335.0" y="13.0" type="curve"/>
      <point x="335.0" y="-96.0" type="line"/>
      <point x="247.0" y="-96.0" type="line"/>
      <point x="247.0" y="0.0" type="line"/>
      <point x="240" y="0.0"/>
      <point x="233" y="0.0"/>
      <point x="226.0" y="0.0" type="curve"/>
      <point x="207.0" y="0.0" type="line"/>
      <point x="207.0" y="-96.0" type="line"/>
      <point x="119.0" y="-96.0" type="line"/>
      <point x="119.0" y="0.0" type="line"/>
    </contour>
    <contour>
      <point x="184" y="284" type="line"/>
      <point x="233" y="284" type="line" smooth="yes"/>
      <point x="264" y="284"/>
      <point x="284" y="299"/>
      <point x="284" y="329" type="curve" smooth="yes"/>
      <point x="284" y="355"/>
      <point x="264" y="369"/>
      <point x="233" y="369" type="curve" smooth="yes"/>
      <point x="184" y="369" type="line"/>
    </contour>
    <contour>
      <point x="184" y="102" type="line"/>
      <point x="240" y="102" type="line" smooth="yes"/>
      <point x="273" y="102"/>
      <point x="294" y="117"/>
      <point x="294" y="149" type="curve" smooth="yes"/>
      <point x="294" y="177"/>
      <point x="273" y="193"/>
      <point x="240" y="193" type="curve" smooth="yes"/>
      <point x="184" y="193" type="line"/>
    </contour>
  </outline>
</glyph>
<glyph name="bitcoin.sc" format="2">
  <advance width="479"/>
  <outline>
    <contour>
      <point x="117" y="488" type="line"/>
      <point x="207" y="488" type="line"/>
      <point x="207" y="628" type="line"/>
      <point x="117" y="628" type="line"/>
    </contour>
    <contour>
      <point x="260" y="488" type="line"/>
      <point x="350" y="488" type="line"/>
      <point x="350" y="628" type="line"/>
      <point x="260" y="628" type="line"/>
    </contour>
    <contour>
      <point x="117" y="-112" type="line"/>
      <point x="207" y="-112" type="line"/>
      <point x="207" y="28" type="line"/>
      <point x="117" y="28" type="line"/>
    </contour>
    <contour>
      <point x="260" y="-112" type="line"/>
      <point x="350" y="-112" type="line"/>
      <point x="350" y="28" type="line"/>
      <point x="260" y="28" type="line"/>
    </contour>
    <component base="B.sc"/>
  </outline>
</glyph>
<glyph name="braceleft.sc" format="2">
  <advance width="405"/>
  <outline>
    <contour>
      <point x="332" y="-70" type="curve" smooth="yes"/>
      <point x="365" y="-70" type="line"/>
      <point x="365" y="46" type="line"/>
      <point x="331" y="46" type="line" smooth="yes"/>
      <point x="281" y="46"/>
      <point x="260" y="70"/>
      <point x="268" y="109" type="curve" smooth="yes"/>
      <point x="273" y="134" type="line" smooth="yes"/>
      <point x="286" y="199"/>
      <point x="243" y="243"/>
      <point x="167" y="258" type="curve"/>
      <point x="167" y="259" type="line"/>
      <point x="243" y="273"/>
      <point x="286" y="316"/>
      <point x="273" y="383" type="curve" smooth="yes"/>
      <point x="268" y="408" type="line" smooth="yes"/>
      <point x="260" y="446"/>
      <point x="281" y="470"/>
      <point x="331" y="470" type="curve" smooth="yes"/>
      <point x="365" y="470" type="line"/>
      <point x="365" y="586" type="line"/>
      <point x="332" y="586" type="line" smooth="yes"/>
      <point x="191" y="586"/>
      <point x="110" y="524"/>
      <point x="134" y="403" type="curve" smooth="yes"/>
      <point x="139" y="378" type="line" smooth="yes"/>
      <point x="146" y="341"/>
      <point x="123" y="319"/>
      <point x="56" y="313" type="curve"/>
      <point x="56" y="203" type="line"/>
      <point x="123" y="196"/>
      <point x="146" y="174"/>
      <point x="139" y="138" type="curve" smooth="yes"/>
      <point x="134" y="113" type="line" smooth="yes"/>
      <point x="110" y="-8"/>
      <point x="191" y="-70"/>
    </contour>
  </outline>
</glyph>
<glyph name="braceleft.tab" format="2">
  <advance width="325"/>
  <outline>
    <contour>
      <point x="306" y="-58" type="curve" smooth="yes"/>
      <point x="321" y="-58" type="line"/>
      <point x="321" y="58" type="line"/>
      <point x="305" y="58" type="line" smooth="yes"/>
      <point x="255" y="58"/>
      <point x="231" y="88"/>
      <point x="235" y="146" type="curve" smooth="yes"/>
      <point x="239" y="194" type="line" smooth="yes"/>
      <point x="244" y="255"/>
      <point x="206" y="308"/>
      <point x="131" y="329" type="curve"/>
      <point x="131" y="330" type="line"/>
      <point x="206" y="346"/>
      <point x="244" y="399"/>
      <point x="239" y="464" type="curve" smooth="yes"/>
      <point x="235" y="512" type="line" smooth="yes"/>
      <point x="231" y="570"/>
      <point x="255" y="600"/>
      <point x="305" y="600" type="curve" smooth="yes"/>
      <point x="321" y="600" type="line"/>
      <point x="321" y="716" type="line"/>
      <point x="306" y="716" type="line" smooth="yes"/>
      <point x="155" y="716"/>
      <point x="87" y="650"/>
      <point x="94" y="550" type="curve" smooth="yes"/>
      <point x="98" y="494" type="line" smooth="yes"/>
      <point x="102" y="431"/>
      <point x="64" y="393"/>
      <point x="4" y="384" type="curve"/>
      <point x="4" y="274" type="line"/>
      <point x="64" y="265"/>
      <point x="103" y="230"/>
      <point x="99" y="176" type="curve" smooth="yes"/>
      <point x="95" y="120" type="line" smooth="yes"/>
      <point x="87" y="13"/>
      <point x="155" y="-58"/>
    </contour>
  </outline>
</glyph>
<glyph name="braceleft.uc" format="2">
  <advance width="437"/>
  <outline>
    <contour>
      <point x="382" y="-58" type="curve" smooth="yes"/>
      <point x="397" y="-58" type="line"/>
      <point x="397" y="58" type="line"/>
      <point x="381" y="58" type="line" smooth="yes"/>
      <point x="325" y="58"/>
      <point x="298" y="88"/>
      <point x="303" y="146" type="curve" smooth="yes"/>
      <point x="307" y="194" type="line" smooth="yes"/>
      <point x="312" y="255"/>
      <point x="272" y="308"/>
      <point x="191" y="329" type="curve"/>
      <point x="191" y="330" type="line"/>
      <point x="272" y="346"/>
      <point x="312" y="399"/>
      <point x="307" y="464" type="curve" smooth="yes"/>
      <point x="303" y="512" type="line" smooth="yes"/>
      <point x="298" y="570"/>
      <point x="325" y="600"/>
      <point x="381" y="600" type="curve" smooth="yes"/>
      <point x="397" y="600" type="line"/>
      <point x="397" y="716" type="line"/>
      <point x="382" y="716" type="line" smooth="yes"/>
      <point x="225" y="716"/>
      <point x="155" y="650"/>
      <point x="162" y="550" type="curve" smooth="yes"/>
      <point x="166" y="494" type="line" smooth="yes"/>
      <point x="170" y="431"/>
      <point x="126" y="393"/>
      <point x="56" y="384" type="curve"/>
      <point x="56" y="274" type="line"/>
      <point x="126" y="265"/>
      <point x="171" y="230"/>
      <point x="167" y="176" type="curve" smooth="yes"/>
      <point x="163" y="120" type="line" smooth="yes"/>
      <point x="155" y="13"/>
      <point x="225" y="-58"/>
    </contour>
  </outline>
</glyph>
<glyph name="braceright.sc" format="2">
  <advance width="405"/>
  <outline>
    <contour>
      <point x="40" y="-70" type="line"/>
      <point x="73" y="-70" type="line" smooth="yes"/>
      <point x="214" y="-70"/>
      <point x="295" y="-8"/>
      <point x="271" y="114" type="curve" smooth="yes"/>
      <point x="266" y="139" type="line" smooth="yes"/>
      <point x="259" y="176"/>
      <point x="282" y="198"/>
      <point x="349" y="204" type="curve"/>
      <point x="349" y="314" type="line"/>
      <point x="282" y="321"/>
      <point x="259" y="343"/>
      <point x="266" y="379" type="curve" smooth="yes"/>
      <point x="271" y="404" type="line" smooth="yes"/>
      <point x="295" y="524"/>
      <point x="214" y="586"/>
      <point x="73" y="586" type="curve" smooth="yes"/>
      <point x="40" y="586" type="line"/>
      <point x="40" y="470" type="line"/>
      <point x="74" y="470" type="line" smooth="yes"/>
      <point x="124" y="470"/>
      <point x="145" y="446"/>
      <point x="137" y="408" type="curve" smooth="yes"/>
      <point x="132" y="383" type="line" smooth="yes"/>
      <point x="119" y="318"/>
      <point x="162" y="274"/>
      <point x="238" y="259" type="curve"/>
      <point x="238" y="258" type="line"/>
      <point x="162" y="244"/>
      <point x="119" y="201"/>
      <point x="132" y="134" type="curve" smooth="yes"/>
      <point x="137" y="109" type="line" smooth="yes"/>
      <point x="145" y="70"/>
      <point x="124" y="46"/>
      <point x="74" y="46" type="curve" smooth="yes"/>
      <point x="40" y="46" type="line"/>
    </contour>
  </outline>
</glyph>
<glyph name="braceright.tab" format="2">
  <advance width="325"/>
  <outline>
    <contour>
      <point x="4" y="-58" type="line"/>
      <point x="19" y="-58" type="line" smooth="yes"/>
      <point x="170" y="-58"/>
      <point x="238" y="8"/>
      <point x="231" y="108" type="curve" smooth="yes"/>
      <point x="227" y="164" type="line" smooth="yes"/>
      <point x="223" y="227"/>
      <point x="261" y="265"/>
      <point x="321" y="274" type="curve"/>
      <point x="321" y="384" type="line"/>
      <point x="261" y="393"/>
      <point x="222" y="428"/>
      <point x="226" y="482" type="curve" smooth="yes"/>
      <point x="230" y="538" type="line" smooth="yes"/>
      <point x="238" y="645"/>
      <point x="170" y="716"/>
      <point x="19" y="716" type="curve" smooth="yes"/>
      <point x="4" y="716" type="line"/>
      <point x="4" y="600" type="line"/>
      <point x="20" y="600" type="line" smooth="yes"/>
      <point x="70" y="600"/>
      <point x="94" y="570"/>
      <point x="90" y="512" type="curve" smooth="yes"/>
      <point x="86" y="464" type="line" smooth="yes"/>
      <point x="81" y="403"/>
      <point x="119" y="350"/>
      <point x="194" y="329" type="curve"/>
      <point x="194" y="328" type="line"/>
      <point x="119" y="312"/>
      <point x="81" y="259"/>
      <point x="86" y="194" type="curve" smooth="yes"/>
      <point x="90" y="146" type="line" smooth="yes"/>
      <point x="94" y="88"/>
      <point x="70" y="58"/>
      <point x="20" y="58" type="curve" smooth="yes"/>
      <point x="4" y="58" type="line"/>
    </contour>
  </outline>
</glyph>
<glyph name="braceright.uc" format="2">
  <advance width="437"/>
  <outline>
    <contour>
      <point x="40" y="-58" type="line"/>
      <point x="55" y="-58" type="line" smooth="yes"/>
      <point x="212" y="-58"/>
      <point x="282" y="8"/>
      <point x="275" y="108" type="curve" smooth="yes"/>
      <point x="271" y="164" type="line" smooth="yes"/>
      <point x="267" y="227"/>
      <point x="311" y="265"/>
      <point x="381" y="274" type="curve"/>
      <point x="381" y="384" type="line"/>
      <point x="311" y="393"/>
      <point x="266" y="428"/>
      <point x="270" y="482" type="curve" smooth="yes"/>
      <point x="274" y="538" type="line" smooth="yes"/>
      <point x="282" y="645"/>
      <point x="212" y="716"/>
      <point x="55" y="716" type="curve" smooth="yes"/>
      <point x="40" y="716" type="line"/>
      <point x="40" y="600" type="line"/>
      <point x="56" y="600" type="line" smooth="yes"/>
      <point x="112" y="600"/>
      <point x="139" y="570"/>
      <point x="134" y="512" type="curve" smooth="yes"/>
      <point x="130" y="464" type="line" smooth="yes"/>
      <point x="125" y="403"/>
      <point x="165" y="350"/>
      <point x="246" y="329" type="curve"/>
      <point x="246" y="328" type="line"/>
      <point x="165" y="312"/>
      <point x="125" y="259"/>
      <point x="130" y="194" type="curve" smooth="yes"/>
      <point x="134" y="146" type="line" smooth="yes"/>
      <point x="139" y="88"/>
      <point x="112" y="58"/>
      <point x="56" y="58" type="curve" smooth="yes"/>
      <point x="40" y="58" type="line"/>
    </contour>
  </outline>
</glyph>
<glyph name="bracketleft.uc" format="2">
  <advance width="388"/>
  <outline>
    <contour>
      <point x="80" y="-58" type="line"/>
      <point x="328" y="-58" type="line"/>
      <point x="328" y="58" type="line"/>
      <point x="212" y="58" type="line"/>
      <point x="212" y="600" type="line"/>
      <point x="328" y="600" type="line"/>
      <point x="328" y="716" type="line"/>
      <point x="80" y="716" type="line"/>
    </contour>
  </outline>
</glyph>
<glyph name="bracketright.tab" format="2">
  <advance width="325"/>
  <outline>
    <contour>
      <point x="39" y="-58" type="line"/>
      <point x="287" y="-58" type="line"/>
      <point x="287" y="716" type="line"/>
      <point x="39" y="716" type="line"/>
      <point x="39" y="600" type="line"/>
      <point x="155" y="600" type="line"/>
      <point x="155" y="58" type="line"/>
      <point x="39" y="58" type="line"/>
    </contour>
  </outline>
</glyph>
<glyph name="brevecmb.uc" format="2">
  <anchor x="0.0" y="642" name="_top"/>
  <anchor x="2" y="16" name="_bottom"/>
  <outline>
    <contour>
      <point x="2" y="698" type="curve" smooth="yes"/>
      <point x="77" y="698"/>
      <point x="125" y="749"/>
      <point x="125" y="830" type="curve"/>
      <point x="46" y="830" type="line"/>
      <point x="46" y="800"/>
      <point x="29" y="781"/>
      <point x="2" y="781" type="curve" smooth="yes"/>
      <point x="-24" y="781"/>
      <point x="-41" y="800"/>
      <point x="-41" y="830" type="curve"/>
      <point x="-120" y="830" type="line"/>
      <point x="-120" y="749"/>
      <point x="-72" y="698"/>
    </contour>
  </outline>
</glyph>
